font.ufo
<glyph name="exclam" format="1">
  <advance width="325"/>
  <unicode hex="0021"/>
  <outline>
    <contour>
      <point x="255" y="614" type="line"/>
      <point x="343" y="850" type="line"/>
      <point x="308" y="889"/>
      <point x="261" y="895"/>
      <point x="202" y="881" type="curve"/>
      <point x="148" y="438" type="line"/>
      <point x="105" y="226" type="line"/>
      <point x="131" y="206"/>
      <point x="157" y="205"/>
      <point x="172" y="223" type="curve"/>
    </contour>
    <contour>
      <point x="189" y="60" type="curve"/>
      <point x="185" y="99"/>
      <point x="151" y="143"/>
      <point x="123" y="143" type="curve"/>
      <point x="82" y="138"/>
      <point x="38" y="91"/>
      <point x="29" y="47" type="curve"/>
      <point x="31" y="17"/>
      <point x="52" y="-4"/>
      <point x="80" y="-4" type="curve"/>
      <point x="115" y="-4"/>
      <point x="161" y="24"/>
    </contour>
  </outline>
</glyph>
<glyph name="quotedbl" format="1">
  <advance width="335"/>
  <unicode hex="0022"/>
  <outline>
    <contour>
      <point x="122" y="674" type="line"/>
      <point x="136" y="663"/>
      <point x="157" y="659"/>
      <point x="178" y="662" type="curve"/>
      <point x="236" y="818" type="line"/>
      <point x="249" y="898" type="line"/>
      <point x="231" y="910"/>
      <point x="198" y="911"/>
      <point x="167" y="898" type="curve"/>
    </contour>
    <contour>
      <point x="270" y="674" type="line"/>
      <point x="282" y="663"/>
      <point x="302" y="659"/>
      <point x="323" y="662" type="curve"/>
      <point x="383" y="818" type="line"/>
      <point x="395" y="898" type="line"/>
      <point x="378" y="910"/>
      <point x="345" y="911"/>
      <point x="314" y="898" type="curve"/>
    </contour>
  </outline>
</glyph>
<glyph name="numbersign" format="1">
  <advance width="730"/>
  <unicode hex="0023"/>
  <outline>
    <contour>
      <point x="347" y="605" type="line"/>
      <point x="428" y="844" type="line"/>
      <point x="394" y="872"/>
      <point x="348" y="875"/>
      <point x="301" y="866" type="curve"/>
      <point x="224" y="443" type="line"/>
      <point x="123" y="-1" type="line"/>
      <point x="157" y="-29"/>
      <point x="206" y="-33"/>
      <point x="237" y="-24" type="curve"/>
      <point x="273" y="270" type="line"/>
    </contour>
    <contour>
      <point x="600" y="605" type="line"/>
      <point x="681" y="844" type="line"/>
      <point x="646" y="872"/>
      <point x="600" y="875"/>
      <point x="554" y="866" type="curve"/>
      <point x="477" y="446" type="line"/>
      <point x="376" y="-1" type="line"/>
      <point x="409" y="-29"/>
      <point x="459" y="-33"/>
      <point x="490" y="-24" type="curve"/>
      <point x="526" y="270" type="line"/>
    </contour>
    <contour>
      <point x="364" y="284" type="line"/>
      <point x="62" y="293" type="line"/>
      <point x="43" y="264"/>
      <point x="41" y="243"/>
      <point x="56" y="227" type="curve"/>
      <point x="666" y="236" type="line"/>
      <point x="690" y="269"/>
      <point x="691" y="294"/>
      <point x="675" y="305" type="curve"/>
    </contour>
    <contour>
      <point x="420" y="612" type="line"/>
      <point x="112" y="621" type="line"/>
      <point x="94" y="591"/>
      <point x="91" y="572"/>
      <point x="109" y="556" type="curve"/>
      <point x="723" y="564" type="line"/>
      <point x="746" y="597"/>
      <point x="748" y="622"/>
      <point x="732" y="633" type="curve"/>
    </contour>
  </outline>
</glyph>
<glyph name="dollar" format="1">
  <advance width="598"/>
  <unicode hex="0024"/>
  <outline>
    <contour>
      <point x="253" y="122" type="line"/>
      <point x="182" y="-92" type="line"/>
      <point x="197" y="-123"/>
      <point x="224" y="-138"/>
      <point x="257" y="-129" type="curve"/>
      <point x="386" y="633" type="line"/>
      <point x="461" y="834" type="line"/>
      <point x="447" y="864"/>
      <point x="423" y="875"/>
      <point x="389" y="864" type="curve"/>
    </contour>
    <component base="S"/>
  </outline>
</glyph>
<glyph name="percent" format="1">
  <advance width="725"/>
  <unicode hex="0025"/>
  <outline>
    <contour>
      <point x="233" y="736" type="curve" smooth="yes"/>
      <point x="159" y="737"/>
      <point x="97" y="647"/>
      <point x="77" y="525" type="curve" smooth="yes"/>
      <point x="53" y="380"/>
      <point x="124" y="319"/>
      <point x="182" y="319" type="curve" smooth="yes"/>
      <point x="262" y="319"/>
      <point x="326" y="397"/>
      <point x="348" y="531" type="curve" smooth="yes"/>
      <point x="369" y="659"/>
      <point x="306" y="736"/>
    </contour>
    <contour>
      <point x="230" y="687" type="curve"/>
      <point x="247" y="683"/>
      <point x="264" y="671"/>
      <point x="271" y="653" type="curve"/>
      <point x="274" y="621"/>
      <point x="273" y="583"/>
      <point x="263" y="525" type="curve" smooth="yes"/>
      <point x="249" y="451"/>
      <point x="224" y="392"/>
      <point x="193" y="363" type="curve"/>
      <point x="176" y="371"/>
      <point x="158" y="384"/>
      <point x="151" y="403" type="curve"/>
      <point x="149" y="436"/>
      <point x="151" y="471"/>
      <point x="162" y="529" type="curve" smooth="yes"/>
      <point x="175" y="600"/>
      <point x="197" y="655"/>
    </contour>
    <contour>
      <point x="567" y="410" type="curve" smooth="yes"/>
      <point x="493" y="411"/>
      <point x="432" y="321"/>
      <point x="411" y="199" type="curve" smooth="yes"/>
      <point x="387" y="55"/>
      <point x="459" y="-7"/>
      <point x="516" y="-7" type="curve" smooth="yes"/>
      <point x="596" y="-7"/>
      <point x="661" y="71"/>
      <point x="682" y="205" type="curve" smooth="yes"/>
      <point x="703" y="333"/>
      <point x="641" y="409"/>
    </contour>
    <contour>
      <point x="565" y="361" type="curve"/>
      <point x="581" y="357"/>
      <point x="598" y="345"/>
      <point x="605" y="326" type="curve"/>
      <point x="608" y="295"/>
      <point x="607" y="257"/>
      <point x="597" y="200" type="curve" smooth="yes"/>
      <point x="583" y="125"/>
      <point x="558" y="66"/>
      <point x="528" y="37" type="curve"/>
      <point x="510" y="45"/>
      <point x="493" y="58"/>
      <point x="486" y="77" type="curve"/>
      <point x="483" y="110"/>
      <point x="485" y="145"/>
      <point x="496" y="203" type="curve" smooth="yes"/>
      <point x="509" y="274"/>
      <point x="531" y="329"/>
    </contour>
    <component base="fraction" xOffset="102"/>
  </outline>
</glyph>
<glyph name="ampersand" format="1">
  <advance width="634"/>
  <unicode hex="0026"/>
  <outline>
    <contour>
      <point x="580" y="186" type="curve"/>
      <point x="593" y="232"/>
      <point x="567" y="270"/>
      <point x="516" y="259" type="curve"/>
      <point x="471" y="207"/>
      <point x="406" y="166"/>
      <point x="317" y="136" type="curve"/>
      <point x="262" y="153"/>
      <point x="215" y="189"/>
      <point x="201" y="238" type="curve"/>
      <point x="259" y="317"/>
      <point x="339" y="343"/>
      <point x="446" y="357" type="curve"/>
      <point x="457" y="394"/>
      <point x="455" y="421"/>
      <point x="423" y="436" type="curve"/>
      <point x="401" y="428"/>
      <point x="377" y="421"/>
      <point x="341" y="415" type="curve"/>
      <point x="286" y="432"/>
      <point x="251" y="452"/>
      <point x="227" y="494" type="curve"/>
      <point x="275" y="551"/>
      <point x="335" y="601"/>
      <point x="438" y="606" type="curve"/>
      <point x="500" y="521" type="line"/>
      <point x="566" y="535"/>
      <point x="584" y="557"/>
      <point x="577" y="593" type="curve"/>
      <point x="546" y="631"/>
      <point x="496" y="666"/>
      <point x="428" y="666" type="curve" smooth="yes"/>
      <point x="301" y="666"/>
      <point x="181" y="604"/>
      <point x="109" y="493" type="curve"/>
      <point x="120" y="441"/>
      <point x="186" y="393"/>
      <point x="273" y="379" type="curve"/>
      <point x="185" y="355"/>
      <point x="130" y="315"/>
      <point x="87" y="226" type="curve"/>
      <point x="110" y="161"/>
      <point x="182" y="96"/>
      <point x="309" y="71" type="curve"/>
      <point x="431" y="96"/>
      <point x="505" y="132"/>
    </contour>
    <contour>
      <point x="445" y="721" type="curve"/>
      <point x="488" y="887" type="line"/>
      <point x="456" y="913"/>
      <point x="428" y="910"/>
      <point x="376" y="882" type="curve"/>
      <point x="377" y="728" type="line"/>
      <point x="392" y="714"/>
      <point x="413" y="713"/>
    </contour>
    <contour>
      <point x="285" y="7" type="curve"/>
      <point x="241" y="-159" type="line"/>
      <point x="274" y="-184"/>
      <point x="303" y="-182"/>
      <point x="353" y="-154" type="curve"/>
      <point x="352" y="0" type="line"/>
      <point x="338" y="14"/>
      <point x="316" y="15"/>
    </contour>
  </outline>
</glyph>
<glyph name="quotesingle" format="1">
  <advance width="186"/>
  <unicode hex="0027"/>
  <outline>
    <contour>
      <point x="120" y="674" type="line"/>
      <point x="134" y="663"/>
      <point x="155" y="659"/>
      <point x="176" y="662" type="curve"/>
      <point x="234" y="818" type="line"/>
      <point x="246" y="898" type="line"/>
      <point x="228" y="910"/>
      <point x="196" y="911"/>
      <point x="165" y="898" type="curve"/>
    </contour>
  </outline>
</glyph>
<glyph name="parenleft" format="1">
  <advance width="528"/>
  <unicode hex="0028"/>
  <outline>
    <contour>
      <point x="429" y="726" type="curve"/>
      <point x="567" y="828" type="line"/>
      <point x="561" y="855"/>
      <point x="541" y="872"/>
      <point x="510" y="871" type="curve"/>
      <point x="331" y="765"/>
      <point x="199" y="581"/>
      <point x="181" y="359" type="curve" smooth="yes"/>
      <point x="166" y="172"/>
      <point x="241" y="34"/>
      <point x="331" y="-64" type="curve"/>
      <point x="359" y="-69"/>
      <point x="383" y="-58"/>
      <point x="399" y="-36" type="curve"/>
      <point x="312" y="78"/>
      <point x="279" y="170"/>
      <point x="295" y="354" type="curve" smooth="yes"/>
      <point x="305" y="473"/>
      <point x="355" y="628"/>
    </contour>
  </outline>
</glyph>
<glyph name="parenright" format="1">
  <advance width="528"/>
  <unicode hex="0029"/>
  <outline>
    <contour>
      <point x="65" y="-65" type="curve"/>
      <point x="244" y="40"/>
      <point x="375" y="226"/>
      <point x="394" y="446" type="curve" smooth="yes"/>
      <point x="409" y="634"/>
      <point x="334" y="773"/>
      <point x="244" y="871" type="curve"/>
      <point x="215" y="874"/>
      <point x="192" y="864"/>
      <point x="175" y="842" type="curve"/>
      <point x="264" y="728"/>
      <point x="296" y="636"/>
      <point x="279" y="452" type="curve" smooth="yes"/>
      <point x="269" y="334"/>
      <point x="220" y="179"/>
      <point x="147" y="80" type="curve"/>
      <point x="7" y="-23" type="line"/>
      <point x="14" y="-49"/>
      <point x="34" y="-67"/>
    </contour>
  </outline>
</glyph>
<glyph name="asterisk" format="1">
  <advance width="368"/>
  <unicode hex="002A"/>
  <outline>
    <contour>
      <point x="283" y="770" type="line"/>
      <point x="416" y="752" type="line"/>
      <point x="425" y="770"/>
      <point x="428" y="789"/>
      <point x="423" y="809" type="curve"/>
      <point x="285" y="790" type="line"/>
      <point x="320" y="925" type="line"/>
      <point x="301" y="930"/>
      <point x="282" y="930"/>
      <point x="262" y="925" type="curve"/>
      <point x="265" y="790" type="line"/>
      <point x="132" y="809" type="line"/>
      <point x="122" y="790"/>
      <point x="120" y="770"/>
      <point x="125" y="752" type="curve"/>
      <point x="263" y="770" type="line"/>
      <point x="228" y="635" type="line"/>
      <point x="248" y="629"/>
      <point x="267" y="629"/>
      <point x="285" y="635" type="curve"/>
    </contour>
    <contour>
      <point x="289" y="781" type="line"/>
      <point x="406" y="863" type="line"/>
      <point x="400" y="881"/>
      <point x="388" y="895"/>
      <point x="371" y="903" type="curve"/>
      <point x="276" y="796" type="line"/>
      <point x="205" y="903" type="line"/>
      <point x="185" y="895"/>
      <point x="171" y="882"/>
      <point x="160" y="864" type="curve"/>
      <point x="259" y="781" type="line"/>
      <point x="141" y="698" type="line"/>
      <point x="149" y="679"/>
      <point x="161" y="666"/>
      <point x="177" y="657" type="curve"/>
      <point x="272" y="765" type="line"/>
      <point x="343" y="657" type="line"/>
      <point x="364" y="665"/>
      <point x="378" y="677"/>
      <point x="388" y="697" type="curve"/>
    </contour>
  </outline>
</glyph>
<glyph name="plus" format="1">
  <advance width="692"/>
  <unicode hex="002B"/>
  <outline>
    <contour>
      <point x="394" y="362" type="line"/>
      <point x="433" y="562" type="line"/>
      <point x="408" y="596"/>
      <point x="375" y="607"/>
      <point x="362" y="593" type="curve"/>
      <point x="328" y="361" type="line"/>
      <point x="106" y="367" type="line"/>
      <point x="83" y="338"/>
      <point x="79" y="310"/>
      <point x="93" y="295" type="curve"/>
      <point x="316" y="296" type="line"/>
      <point x="268" y="87" type="line"/>
      <point x="290" y="60"/>
      <point x="318" y="50"/>
      <point x="336" y="61" type="curve"/>
      <point x="381" y="297" type="line"/>
      <point x="604" y="298" type="line"/>
      <point x="631" y="330"/>
      <point x="636" y="364"/>
      <point x="620" y="374" type="curve"/>
    </contour>
  </outline>
</glyph>
<glyph name="comma" format="1">
  <advance width="230"/>
  <unicode hex="002C"/>
  <outline>
    <contour>
      <point x="155" y="47" type="curve"/>
      <point x="145" y="100"/>
      <point x="91" y="145"/>
      <point x="26" y="109" type="curve"/>
      <point x="25" y="-33" type="line"/>
      <point x="-54" y="-115" type="line"/>
      <point x="-47" y="-132"/>
      <point x="-32" y="-141"/>
      <point x="-12" y="-145" type="curve"/>
      <point x="59" y="-103"/>
      <point x="133" y="-30"/>
    </contour>
  </outline>
</glyph>
<glyph name="hyphen" format="1">
  <advance width="517"/>
  <unicode hex="002D"/>
  <outline>
    <contour>
      <point x="474" y="374" type="curve"/>
      <point x="262" y="358" type="line"/>
      <point x="74" y="362" type="line"/>
      <point x="53" y="334"/>
      <point x="48" y="305"/>
      <point x="63" y="290" type="curve"/>
      <point x="459" y="298" type="line"/>
      <point x="486" y="330"/>
      <point x="490" y="364"/>
    </contour>
  </outline>
</glyph>
<glyph name="period" format="1">
  <advance width="244"/>
  <unicode hex="002E"/>
  <outline>
    <contour>
      <point x="55" y="0" type="curve"/>
      <point x="90" y="0"/>
      <point x="134" y="27"/>
      <point x="159" y="63" type="curve"/>
      <point x="152" y="101"/>
      <point x="116" y="144"/>
      <point x="88" y="144" type="curve"/>
      <point x="48" y="140"/>
      <point x="8" y="93"/>
      <point x="2" y="50" type="curve"/>
      <point x="6" y="20"/>
      <point x="29" y="0"/>
    </contour>
  </outline>
</glyph>
<glyph name="zero" format="1">
  <advance width="575"/>
  <unicode hex="0030"/>
  <outline>
    <contour>
      <point x="344" y="732" type="curve" smooth="yes"/>
      <point x="213" y="734"/>
      <point x="105" y="576"/>
      <point x="68" y="360" type="curve" smooth="yes"/>
      <point x="26" y="105"/>
      <point x="151" y="-3"/>
      <point x="253" y="-3" type="curve" smooth="yes"/>
      <point x="393" y="-3"/>
      <point x="506" y="134"/>
      <point x="545" y="370" type="curve" smooth="yes"/>
      <point x="582" y="596"/>
      <point x="472" y="731"/>
    </contour>
    <contour>
      <point x="336" y="674" type="curve"/>
      <point x="375" y="664"/>
      <point x="414" y="641"/>
      <point x="434" y="606" type="curve"/>
      <point x="445" y="544"/>
      <point x="444" y="472"/>
      <point x="425" y="361" type="curve" smooth="yes"/>
      <point x="401" y="218"/>
      <point x="348" y="104"/>
      <point x="275" y="49" type="curve"/>
      <point x="234" y="62"/>
      <point x="193" y="88"/>
      <point x="175" y="125" type="curve"/>
      <point x="165" y="189"/>
      <point x="167" y="255"/>
      <point x="186" y="366" type="curve" smooth="yes"/>
      <point x="211" y="506"/>
      <point x="259" y="610"/>
    </contour>
  </outline>
</glyph>
<glyph name="one" format="1">
  <advance width="341"/>
  <unicode hex="0031"/>
  <outline>
    <contour>
      <point x="285" y="532" type="line"/>
      <point x="346" y="696" type="line"/>
      <point x="308" y="740"/>
      <point x="251" y="753"/>
      <point x="179" y="738" type="curve"/>
      <point x="85" y="555" type="line"/>
      <point x="94" y="537"/>
      <point x="117" y="531"/>
      <point x="142" y="538" type="curve"/>
      <point x="207" y="632" type="line"/>
      <point x="221" y="626" type="line"/>
      <point x="195" y="561" type="line"/>
      <point x="74" y="21" type="line"/>
      <point x="114" y="-2"/>
      <point x="146" y="-9"/>
      <point x="193" y="-1" type="curve"/>
      <point x="207" y="177" type="line"/>
    </contour>
  </outline>
</glyph>
<glyph name="two" format="1">
  <advance width="501"/>
  <unicode hex="0032"/>
  <outline>
    <contour>
      <point x="338" y="275" type="line"/>
      <point x="435" y="356"/>
      <point x="489" y="426"/>
      <point x="489" y="489" type="curve" smooth="yes"/>
      <point x="489" y="603"/>
      <point x="395" y="751"/>
      <point x="296" y="751" type="curve" smooth="yes"/>
      <point x="211" y="751"/>
      <point x="123" y="684"/>
      <point x="75" y="590" type="curve"/>
      <point x="98" y="553"/>
      <point x="132" y="516"/>
      <point x="162" y="492" type="curve"/>
      <point x="178" y="495"/>
      <point x="203" y="504"/>
      <point x="213" y="521" type="curve"/>
      <point x="177" y="595" type="line"/>
      <point x="207" y="637"/>
      <point x="245" y="664"/>
      <point x="284" y="664" type="curve" smooth="yes"/>
      <point x="343" y="664"/>
      <point x="383" y="594"/>
      <point x="402" y="502" type="curve"/>
      <point x="367" y="437"/>
      <point x="329" y="391"/>
      <point x="270" y="337" type="curve" smooth="yes"/>
      <point x="3" y="99" type="line"/>
      <point x="1" y="53"/>
      <point x="28" y="16"/>
      <point x="60" y="-3" type="curve"/>
      <point x="137" y="15" type="line"/>
      <point x="404" y="-10" type="line"/>
      <point x="434" y="26"/>
      <point x="451" y="72"/>
      <point x="435" y="100" type="curve"/>
      <point x="117" y="77" type="line"/>
      <point x="110" y="84" type="line"/>
    </contour>
  </outline>
</glyph>
<glyph name="three" format="1">
  <advance width="532"/>
  <unicode hex="0033"/>
  <outline>
    <contour>
      <point x="414" y="434" type="line"/>
      <point x="482" y="467"/>
      <point x="509" y="495"/>
      <point x="510" y="540" type="curve" smooth="yes"/>
      <point x="512" y="646"/>
      <point x="392" y="751"/>
      <point x="291" y="751" type="curve" smooth="yes"/>
      <point x="195" y="751"/>
      <point x="108" y="684"/>
      <point x="60" y="590" type="curve"/>
      <point x="82" y="553"/>
      <point x="116" y="516"/>
      <point x="145" y="492" type="curve"/>
      <point x="162" y="495"/>
      <point x="186" y="504"/>
      <point x="196" y="521" type="curve"/>
      <point x="161" y="595" type="line"/>
      <point x="187" y="626"/>
      <point x="228" y="655"/>
      <point x="279" y="655" type="curve" smooth="yes"/>
      <point x="330" y="655"/>
      <point x="401" y="600"/>
      <point x="411" y="522" type="curve"/>
      <point x="218" y="390" type="line"/>
      <point x="206" y="343" type="line"/>
      <point x="327" y="302"/>
      <point x="390" y="258"/>
      <point x="408" y="206" type="curve"/>
      <point x="325" y="138"/>
      <point x="222" y="103"/>
      <point x="24" y="67" type="curve"/>
      <point x="17" y="45"/>
      <point x="25" y="17"/>
      <point x="51" y="-2" type="curve"/>
      <point x="294" y="22"/>
      <point x="493" y="95"/>
      <point x="503" y="209" type="curve" smooth="yes"/>
      <point x="513" y="311"/>
      <point x="383" y="362"/>
      <point x="270" y="393" type="curve"/>
      <point x="253" y="357" type="line"/>
    </contour>
  </outline>
</glyph>
<glyph name="four" format="1">
  <advance width="566"/>
  <unicode hex="0034"/>
  <outline>
    <contour>
      <point x="561" y="685" type="line"/>
      <point x="530" y="726"/>
      <point x="491" y="743"/>
      <point x="440" y="743" type="curve" smooth="yes"/>
      <point x="424" y="743"/>
      <point x="406" y="742"/>
      <point x="387" y="737" type="curve"/>
      <point x="23" y="254" type="line"/>
      <point x="25" y="224"/>
      <point x="37" y="201"/>
      <point x="60" y="186" type="curve"/>
      <point x="298" y="195" type="line"/>
      <point x="541" y="184" type="line"/>
      <point x="562" y="206"/>
      <point x="570" y="243"/>
      <point x="558" y="269" type="curve"/>
      <point x="225" y="256" type="line"/>
      <point x="137" y="256" type="line"/>
      <point x="324" y="510" type="line"/>
      <point x="443" y="673" type="line"/>
      <point x="455" y="669" type="line"/>
      <point x="379" y="404" type="line"/>
      <point x="291" y="22" type="line"/>
      <point x="327" y="-3"/>
      <point x="372" y="-9"/>
      <point x="412" y="-1" type="curve"/>
      <point x="426" y="183" type="line"/>
      <point x="500" y="528" type="line"/>
    </contour>
  </outline>
</glyph>
<glyph name="five" format="1">
  <advance width="545"/>
  <unicode hex="0035"/>
  <outline>
    <contour>
      <point x="275" y="713" type="line"/>
      <point x="210" y="733" type="line" smooth="yes"/>
      <point x="178" y="721"/>
      <point x="161" y="698"/>
      <point x="150" y="638" type="curve" smooth="yes"/>
      <point x="114" y="474" type="line" smooth="yes"/>
      <point x="102" y="413"/>
      <point x="120" y="387"/>
      <point x="173" y="376" type="curve" smooth="yes"/>
      <point x="285" y="356" type="line" smooth="yes"/>
      <point x="354" y="342"/>
      <point x="383" y="320"/>
      <point x="399" y="278" type="curve"/>
      <point x="385" y="193"/>
      <point x="338" y="121"/>
      <point x="260" y="70" type="curve"/>
      <point x="80" y="152" type="line"/>
      <point x="52" y="142"/>
      <point x="33" y="102"/>
      <point x="37" y="42" type="curve"/>
      <point x="95" y="13"/>
      <point x="161" y="-1"/>
      <point x="221" y="-1" type="curve" smooth="yes"/>
      <point x="345" y="-1"/>
      <point x="478" y="159"/>
      <point x="481" y="286" type="curve" smooth="yes"/>
      <point x="483" y="380"/>
      <point x="423" y="425"/>
      <point x="292" y="436" type="curve" smooth="yes"/>
      <point x="183" y="444" type="line"/>
      <point x="272" y="653" type="line"/>
      <point x="521" y="638" type="line"/>
      <point x="542" y="664"/>
      <point x="545" y="707"/>
      <point x="506" y="748" type="curve" smooth="yes"/>
    </contour>
  </outline>
</glyph>
<glyph name="six" format="1">
  <advance width="585"/>
  <unicode hex="0036"/>
  <outline>
    <contour>
      <point x="553" y="742" type="curve"/>
      <point x="311" y="755"/>
      <point x="109" y="616"/>
      <point x="67" y="336" type="curve" smooth="yes"/>
      <point x="28" y="80"/>
      <point x="173" y="-6"/>
      <point x="282" y="-3" type="curve" smooth="yes"/>
      <point x="393" y="0"/>
      <point x="525" y="172"/>
      <point x="547" y="304" type="curve" smooth="yes"/>
      <point x="568" y="429"/>
      <point x="521" y="482"/>
      <point x="430" y="482" type="curve" smooth="yes"/>
      <point x="332" y="482"/>
      <point x="216" y="348"/>
      <point x="146" y="97" type="curve"/>
      <point x="190" y="100" type="line"/>
      <point x="221" y="208"/>
      <point x="303" y="343"/>
      <point x="386" y="399" type="curve"/>
      <point x="451" y="397"/>
      <point x="453" y="342"/>
      <point x="438" y="274" type="curve" smooth="yes"/>
      <point x="423" y="199"/>
      <point x="339" y="77"/>
      <point x="284" y="74" type="curve" smooth="yes"/>
      <point x="194" y="70"/>
      <point x="146" y="162"/>
      <point x="162" y="297" type="curve"/>
      <point x="187" y="454"/>
      <point x="229" y="521"/>
      <point x="303" y="614" type="curve"/>
      <point x="370" y="645"/>
      <point x="450" y="653"/>
      <point x="547" y="647" type="curve"/>
      <point x="569" y="687"/>
      <point x="572" y="724"/>
    </contour>
  </outline>
</glyph>
<glyph name="seven" format="1">
  <advance width="485"/>
  <unicode hex="0037"/>
  <outline>
    <contour>
      <point x="467" y="736" type="curve"/>
      <point x="404" y="716" type="line"/>
      <point x="107" y="746" type="line"/>
      <point x="73" y="707"/>
      <point x="58" y="661"/>
      <point x="77" y="636" type="curve"/>
      <point x="409" y="647" type="line"/>
      <point x="414" y="641" type="line"/>
      <point x="331" y="519" type="line"/>
      <point x="66" y="17" type="line"/>
      <point x="90" y="-5"/>
      <point x="127" y="-12"/>
      <point x="156" y="2" type="curve"/>
      <point x="509" y="624" type="line" smooth="yes"/>
      <point x="539" y="678"/>
      <point x="513" y="716"/>
    </contour>
  </outline>
</glyph>
<glyph name="eight" format="1">
  <advance width="557"/>
  <unicode hex="0038"/>
  <outline>
    <contour>
      <point x="358" y="388" type="line"/>
      <point x="489" y="469"/>
      <point x="562" y="511"/>
      <point x="561" y="581" type="curve" smooth="yes"/>
      <point x="561" y="656"/>
      <point x="479" y="746"/>
      <point x="387" y="750" type="curve" smooth="yes"/>
      <point x="276" y="753"/>
      <point x="119" y="656"/>
      <point x="113" y="533" type="curve" smooth="yes"/>
      <point x="106" y="388"/>
      <point x="402" y="314"/>
      <point x="413" y="189" type="curve"/>
      <point x="392" y="144"/>
      <point x="359" y="101"/>
      <point x="316" y="71" type="curve"/>
      <point x="199" y="61"/>
      <point x="152" y="102"/>
      <point x="148" y="182" type="curve"/>
      <point x="189" y="239"/>
      <point x="240" y="292"/>
      <point x="306" y="346" type="curve"/>
      <point x="269" y="383" type="line"/>
      <point x="108" y="274"/>
      <point x="57" y="233"/>
      <point x="51" y="154" type="curve" smooth="yes"/>
      <point x="45" y="67"/>
      <point x="119" y="-1"/>
      <point x="226" y="-4" type="curve" smooth="yes"/>
      <point x="338" y="-11"/>
      <point x="498" y="85"/>
      <point x="504" y="221" type="curve" smooth="yes"/>
      <point x="509" y="389"/>
      <point x="227" y="438"/>
      <point x="210" y="556" type="curve"/>
      <point x="239" y="611"/>
      <point x="304" y="662"/>
      <point x="353" y="684" type="curve"/>
      <point x="416" y="668"/>
      <point x="458" y="624"/>
      <point x="464" y="546" type="curve"/>
      <point x="411" y="494"/>
      <point x="367" y="458"/>
      <point x="316" y="422" type="curve"/>
    </contour>
  </outline>
</glyph>
<glyph name="nine" format="1">
  <advance width="587"/>
  <unicode hex="0039"/>
  <outline>
    <contour>
      <point x="155" y="-12" type="curve"/>
      <point x="401" y="56"/>
      <point x="520" y="179"/>
      <point x="549" y="407" type="curve" smooth="yes"/>
      <point x="578" y="623"/>
      <point x="470" y="749"/>
      <point x="353" y="749" type="curve" smooth="yes"/>
      <point x="225" y="749"/>
      <point x="93" y="589"/>
      <point x="69" y="439" type="curve" smooth="yes"/>
      <point x="50" y="325"/>
      <point x="107" y="261"/>
      <point x="187" y="261" type="curve" smooth="yes"/>
      <point x="283" y="261"/>
      <point x="401" y="395"/>
      <point x="470" y="647" type="curve"/>
      <point x="426" y="644" type="line"/>
      <point x="395" y="535"/>
      <point x="313" y="401"/>
      <point x="230" y="344" type="curve"/>
      <point x="165" y="346"/>
      <point x="167" y="398"/>
      <point x="176" y="452" type="curve" smooth="yes"/>
      <point x="192" y="544"/>
      <point x="286" y="658"/>
      <point x="343" y="670" type="curve"/>
      <point x="410" y="655"/>
      <point x="467" y="577"/>
      <point x="452" y="425" type="curve" smooth="yes"/>
      <point x="443" y="336"/>
      <point x="412" y="242"/>
      <point x="367" y="173" type="curve"/>
      <point x="296" y="122"/>
      <point x="209" y="92"/>
      <point x="112" y="73" type="curve"/>
      <point x="105" y="42"/>
      <point x="130" y="3"/>
    </contour>
  </outline>
</glyph>
<glyph name="colon" format="1">
  <advance width="260"/>
  <unicode hex="003A"/>
  <outline>
    <contour>
      <point x="71" y="0" type="curve"/>
      <point x="106" y="0"/>
      <point x="150" y="27"/>
      <point x="174" y="63" type="curve"/>
      <point x="168" y="101"/>
      <point x="132" y="144"/>
      <point x="104" y="144" type="curve"/>
      <point x="63" y="140"/>
      <point x="24" y="93"/>
      <point x="17" y="50" type="curve"/>
      <point x="22" y="20"/>
      <point x="44" y="0"/>
    </contour>
    <contour>
      <point x="126" y="357" type="curve"/>
      <point x="161" y="357"/>
      <point x="205" y="384"/>
      <point x="229" y="420" type="curve"/>
      <point x="223" y="458"/>
      <point x="187" y="502"/>
      <point x="159" y="502" type="curve"/>
      <point x="119" y="497"/>
      <point x="79" y="450"/>
      <point x="73" y="407" type="curve"/>
      <point x="77" y="378"/>
      <point x="99" y="357"/>
    </contour>
  </outline>
</glyph>
<glyph name="semicolon" format="1">
  <advance width="254"/>
  <unicode hex="003B"/>
  <outline>
    <contour>
      <point x="126" y="357" type="curve"/>
      <point x="161" y="357"/>
      <point x="205" y="384"/>
      <point x="229" y="420" type="curve"/>
      <point x="223" y="458"/>
      <point x="187" y="502"/>
      <point x="159" y="502" type="curve"/>
      <point x="119" y="497"/>
      <point x="79" y="450"/>
      <point x="73" y="407" type="curve"/>
      <point x="77" y="378"/>
      <point x="99" y="357"/>
    </contour>
    <contour>
      <point x="166" y="47" type="curve"/>
      <point x="156" y="100"/>
      <point x="102" y="145"/>
      <point x="37" y="109" type="curve"/>
      <point x="36" y="-33" type="line"/>
      <point x="-43" y="-115" type="line"/>
      <point x="-37" y="-132"/>
      <point x="-21" y="-141"/>
      <point x="-2" y="-145" type="curve"/>
      <point x="69" y="-103"/>
      <point x="144" y="-30"/>
    </contour>
  </outline>
</glyph>
<glyph name="less" format="1">
  <advance width="596"/>
  <unicode hex="003C"/>
  <outline>
    <contour>
      <point x="354" y="439" type="line"/>
      <point x="550" y="510" type="line"/>
      <point x="566" y="541"/>
      <point x="558" y="578"/>
      <point x="534" y="593" type="curve"/>
      <point x="82" y="388" type="line"/>
      <point x="68" y="365"/>
      <point x="64" y="343"/>
      <point x="70" y="319" type="curve"/>
      <point x="271" y="215" type="line"/>
      <point x="465" y="98" type="line"/>
      <point x="492" y="109"/>
      <point x="510" y="131"/>
      <point x="510" y="160" type="curve"/>
      <point x="158" y="350" type="line"/>
    </contour>
  </outline>
</glyph>
<glyph name="equal" format="1">
  <advance width="643"/>
  <unicode hex="003D"/>
  <outline>
    <contour>
      <point x="609" y="480" type="curve"/>
      <point x="357" y="463" type="line"/>
      <point x="101" y="468" type="line"/>
      <point x="80" y="440"/>
      <point x="76" y="411"/>
      <point x="90" y="396" type="curve"/>
      <point x="594" y="404" type="line"/>
      <point x="621" y="435"/>
      <point x="625" y="469"/>
    </contour>
    <contour>
      <point x="578" y="290" type="curve"/>
      <point x="325" y="273" type="line"/>
      <point x="69" y="278" type="line"/>
      <point x="48" y="250"/>
      <point x="43" y="220"/>
      <point x="58" y="205" type="curve"/>
      <point x="562" y="214" type="line"/>
      <point x="590" y="245"/>
      <point x="594" y="279"/>
    </contour>
  </outline>
</glyph>
<glyph name="greater" format="1">
  <advance width="596"/>
  <unicode hex="003E"/>
  <outline>
    <contour>
      <point x="112" y="531" type="curve"/>
      <point x="280" y="450" type="line"/>
      <point x="465" y="341" type="line"/>
      <point x="71" y="181" type="line"/>
      <point x="55" y="150"/>
      <point x="64" y="113"/>
      <point x="88" y="98" type="curve"/>
      <point x="303" y="201" type="line"/>
      <point x="540" y="303" type="line"/>
      <point x="554" y="326"/>
      <point x="558" y="348"/>
      <point x="552" y="372" type="curve"/>
      <point x="157" y="593" type="line"/>
      <point x="130" y="583"/>
      <point x="112" y="560"/>
    </contour>
  </outline>
</glyph>
<glyph name="question" format="1">
  <advance width="681"/>
  <unicode hex="003F"/>
  <outline>
    <contour>
      <point x="284" y="400" type="line"/>
      <point x="475" y="446"/>
      <point x="614" y="516"/>
      <point x="659" y="648" type="curve" smooth="yes"/>
      <point x="697" y="766"/>
      <point x="639" y="867"/>
      <point x="527" y="867" type="curve" smooth="yes"/>
      <point x="423" y="867"/>
      <point x="297" y="821"/>
      <point x="177" y="736" type="curve"/>
      <point x="160" y="659"/>
      <point x="198" y="579"/>
      <point x="225" y="579" type="curve" smooth="yes"/>
      <point x="235" y="579"/>
      <point x="246" y="583"/>
      <point x="261" y="590" type="curve"/>
      <point x="251" y="676" type="line"/>
      <point x="341" y="738"/>
      <point x="453" y="781"/>
      <point x="558" y="785" type="curve"/>
      <point x="591" y="754"/>
      <point x="595" y="719"/>
      <point x="583" y="679" type="curve" smooth="yes"/>
      <point x="551" y="586"/>
      <point x="422" y="512"/>
      <point x="256" y="482" type="curve"/>
      <point x="229" y="467"/>
      <point x="200" y="436"/>
      <point x="188" y="404" type="curve"/>
      <point x="198" y="205" type="line" smooth="yes"/>
      <point x="199" y="184"/>
      <point x="215" y="178"/>
      <point x="247" y="188" type="curve"/>
    </contour>
    <contour>
      <point x="183" y="-4" type="curve" smooth="yes"/>
      <point x="218" y="-4"/>
      <point x="264" y="24"/>
      <point x="292" y="60" type="curve"/>
      <point x="288" y="99"/>
      <point x="254" y="143"/>
      <point x="226" y="143" type="curve"/>
      <point x="185" y="138"/>
      <point x="141" y="91"/>
      <point x="132" y="47" type="curve"/>
      <point x="134" y="17"/>
      <point x="155" y="-4"/>
    </contour>
  </outline>
</glyph>
<glyph name="at" format="1">
  <advance width="981"/>
  <unicode hex="0040"/>
  <outline>
    <contour>
      <point x="607" y="252" type="line"/>
      <point x="552" y="201"/>
      <point x="493" y="147"/>
      <point x="431" y="90" type="curve"/>
      <point x="391" y="114"/>
      <point x="379" y="147"/>
      <point x="379" y="193" type="curve" smooth="yes"/>
      <point x="379" y="317"/>
      <point x="441" y="430"/>
      <point x="552" y="477" type="curve"/>
      <point x="594" y="449"/>
      <point x="615" y="422"/>
      <point x="636" y="379" type="curve"/>
      <point x="674" y="405" type="line"/>
      <point x="651" y="460"/>
      <point x="607" y="519"/>
      <point x="558" y="545" type="curve"/>
      <point x="400" y="543"/>
      <point x="265" y="353"/>
      <point x="267" y="188" type="curve" smooth="yes"/>
      <point x="268" y="89"/>
      <point x="327" y="17"/>
      <point x="450" y="13" type="curve"/>
      <point x="513" y="84"/>
      <point x="590" y="162"/>
      <point x="633" y="216" type="curve"/>
    </contour>
    <contour>
      <point x="437" y="-123" type="curve"/>
      <point x="266" y="-80"/>
      <point x="126" y="36"/>
      <point x="126" y="235" type="curve" smooth="yes"/>
      <point x="126" y="463"/>
      <point x="341" y="681"/>
      <point x="613" y="705" type="curve"/>
      <point x="805" y="642"/>
      <point x="884" y="549"/>
      <point x="901" y="355" type="curve"/>
      <point x="869" y="234"/>
      <point x="774" y="142"/>
      <point x="649" y="75" type="curve"/>
      <point x="670" y="75" type="line"/>
      <point x="683" y="168"/>
      <point x="697" y="264"/>
      <point x="713" y="357" type="curve"/>
      <point x="794" y="511" type="line"/>
      <point x="772" y="545"/>
      <point x="744" y="554"/>
      <point x="671" y="547" type="curve"/>
      <point x="660" y="525"/>
      <point x="655" y="494"/>
      <point x="654" y="445" type="curve"/>
      <point x="634" y="379" type="line"/>
      <point x="605" y="252" type="line"/>
      <point x="586" y="168" type="line"/>
      <point x="601" y="158" type="line"/>
      <point x="583" y="106"/>
      <point x="593" y="66"/>
      <point x="651" y="27" type="curve"/>
      <point x="814" y="82"/>
      <point x="966" y="226"/>
      <point x="966" y="376" type="curve" smooth="yes"/>
      <point x="966" y="576"/>
      <point x="805" y="760"/>
      <point x="600" y="760" type="curve" smooth="yes"/>
      <point x="320" y="760"/>
      <point x="26" y="523"/>
      <point x="26" y="241" type="curve" smooth="yes"/>
      <point x="26" y="13"/>
      <point x="211" y="-142"/>
      <point x="442" y="-182" type="curve"/>
      <point x="529" y="-159"/>
      <point x="616" y="-124"/>
      <point x="667" y="-75" type="curve"/>
      <point x="668" y="-38"/>
      <point x="657" y="-18"/>
      <point x="609" y="-17" type="curve"/>
      <point x="572" y="-55"/>
      <point x="507" y="-97"/>
    </contour>
  </outline>
</glyph>
<glyph name="A" format="1">
  <advance width="616"/>
  <unicode hex="0041"/>
  <outline>
    <contour>
      <point x="440" y="787" type="move" name="top"/>
    </contour>
    <contour>
      <point x="507" y="0" type="move" name="ogonek"/>
    </contour>
    <contour>
      <point x="405" y="331" type="line"/>
      <point x="42" y="318" type="line"/>
      <point x="19" y="290"/>
      <point x="17" y="264"/>
      <point x="36" y="240" type="curve"/>
      <point x="271" y="271" type="line"/>
      <point x="594" y="290" type="line"/>
      <point x="617" y="324"/>
      <point x="618" y="354"/>
      <point x="600" y="368" type="curve"/>
    </contour>
    <contour>
      <point x="523" y="6" type="curve"/>
      <point x="479" y="553" type="line"/>
      <point x="496" y="724" type="line"/>
      <point x="458" y="739"/>
      <point x="386" y="745"/>
      <point x="318" y="709" type="curve"/>
      <point x="218" y="453" type="line"/>
      <point x="-6" y="30" type="line"/>
      <point x="10" y="2"/>
      <point x="62" y="-7"/>
      <point x="112" y="6" type="curve"/>
      <point x="385" y="636" type="line"/>
      <point x="395" y="638" type="line"/>
      <point x="406" y="320" type="line"/>
      <point x="395" y="29" type="line"/>
      <point x="423" y="3"/>
      <point x="478" y="-8"/>
    </contour>
  </outline>
</glyph>
<glyph name="B" format="1">
  <advance width="620"/>
  <unicode hex="0042"/>
  <outline>
    <contour>
      <point x="480" y="543" type="curve" smooth="yes"/>
      <point x="478" y="471"/>
      <point x="461" y="460"/>
      <point x="418" y="422" type="curve"/>
      <point x="363" y="398"/>
      <point x="309" y="391"/>
      <point x="236" y="392" type="curve"/>
      <point x="282" y="666" type="line"/>
      <point x="418" y="680"/>
      <point x="482" y="616"/>
    </contour>
    <contour>
      <point x="182" y="66" type="curve"/>
      <point x="230" y="336" type="line"/>
      <point x="345" y="347"/>
      <point x="400" y="333"/>
      <point x="454" y="290" type="curve"/>
      <point x="462" y="271"/>
      <point x="465" y="253"/>
      <point x="465" y="235" type="curve" smooth="yes"/>
      <point x="464" y="184"/>
      <point x="451" y="143"/>
      <point x="410" y="94" type="curve"/>
      <point x="346" y="72"/>
      <point x="259" y="64"/>
    </contour>
    <contour>
      <point x="458" y="373" type="line"/>
      <point x="552" y="421"/>
      <point x="593" y="463"/>
      <point x="594" y="557" type="curve" smooth="yes"/>
      <point x="595" y="649"/>
      <point x="499" y="738"/>
      <point x="311" y="738" type="curve" smooth="yes"/>
      <point x="250" y="738"/>
      <point x="182" y="732"/>
      <point x="126" y="719" type="curve"/>
      <point x="112" y="700"/>
      <point x="112" y="671"/>
      <point x="141" y="651" type="curve"/>
      <point x="180" y="657" type="line"/>
      <point x="157" y="450" type="line"/>
      <point x="134" y="330"/>
      <point x="109" y="231"/>
      <point x="64" y="82" type="curve"/>
      <point x="69" y="39"/>
      <point x="109" y="14"/>
      <point x="165" y="0" type="curve"/>
      <point x="282" y="-5"/>
      <point x="377" y="2"/>
      <point x="490" y="42" type="curve"/>
      <point x="559" y="112"/>
      <point x="578" y="178"/>
      <point x="579" y="240" type="curve" smooth="yes"/>
      <point x="579" y="266"/>
      <point x="573" y="293"/>
      <point x="558" y="318" type="curve"/>
      <point x="531" y="339"/>
      <point x="496" y="357"/>
      <point x="457" y="366" type="curve"/>
    </contour>
  </outline>
</glyph>
<glyph name="C" format="1">
  <advance width="610"/>
  <unicode hex="0043"/>
  <outline>
    <contour>
      <point x="396" y="787" type="move" name="top"/>
    </contour>
    <contour>
      <point x="345" y="0" type="move" name="bottom"/>
    </contour>
    <contour>
      <point x="423" y="675" type="line"/>
      <point x="459" y="634"/>
      <point x="468" y="585"/>
      <point x="473" y="525" type="curve"/>
      <point x="516" y="507"/>
      <point x="566" y="521"/>
      <point x="597" y="553" type="curve"/>
      <point x="589" y="629"/>
      <point x="543" y="714"/>
      <point x="450" y="749" type="curve"/>
      <point x="288" y="723"/>
      <point x="186" y="627"/>
      <point x="117" y="550" type="curve"/>
      <point x="70" y="467"/>
      <point x="45" y="395"/>
      <point x="45" y="321" type="curve" smooth="yes"/>
      <point x="45" y="163"/>
      <point x="123" y="46"/>
      <point x="323" y="0" type="curve"/>
      <point x="414" y="35"/>
      <point x="514" y="97"/>
      <point x="559" y="151" type="curve"/>
      <point x="561" y="179"/>
      <point x="544" y="209"/>
      <point x="506" y="202" type="curve"/>
      <point x="466" y="160"/>
      <point x="395" y="111"/>
      <point x="319" y="80" type="curve"/>
      <point x="206" y="125"/>
      <point x="153" y="193"/>
      <point x="153" y="326" type="curve" smooth="yes"/>
      <point x="153" y="467"/>
      <point x="264" y="622"/>
      <point x="407" y="673" type="curve"/>
    </contour>
  </outline>
</glyph>
<glyph name="D" format="1">
  <advance width="655"/>
  <unicode hex="0044"/>
  <outline>
    <contour>
      <point x="342" y="787" type="move" name="top"/>
    </contour>
    <contour>
      <point x="146" y="0" type="curve"/>
      <point x="253" y="0"/>
      <point x="342" y="18"/>
      <point x="422" y="44" type="curve"/>
      <point x="568" y="130"/>
      <point x="645" y="262"/>
      <point x="643" y="414" type="curve" smooth="yes"/>
      <point x="641" y="600"/>
      <point x="527" y="739"/>
      <point x="316" y="739" type="curve" smooth="yes"/>
      <point x="233" y="739"/>
      <point x="167" y="731"/>
      <point x="107" y="715" type="curve"/>
      <point x="92" y="695"/>
      <point x="92" y="664"/>
      <point x="124" y="640" type="curve"/>
      <point x="162" y="648" type="line"/>
      <point x="160" y="489" type="line"/>
      <point x="130" y="330"/>
      <point x="99" y="230"/>
      <point x="48" y="77" type="curve"/>
      <point x="61" y="35"/>
      <point x="96" y="13"/>
    </contour>
    <contour>
      <point x="121" y="77" type="curve"/>
      <point x="175" y="49" type="line"/>
      <point x="215" y="348" type="line"/>
      <point x="240" y="449"/>
      <point x="270" y="577"/>
      <point x="300" y="701" type="curve"/>
      <point x="236" y="650" type="line"/>
      <point x="433" y="689"/>
      <point x="527" y="567"/>
      <point x="529" y="402" type="curve" smooth="yes"/>
      <point x="531" y="280"/>
      <point x="481" y="182"/>
      <point x="369" y="100" type="curve"/>
      <point x="284" y="77"/>
      <point x="217" y="77"/>
    </contour>
  </outline>
</glyph>
<glyph name="E" format="1">
  <advance width="545"/>
  <unicode hex="0045"/>
  <outline>
    <contour>
      <point x="379" y="787" type="move" name="top"/>
    </contour>
    <contour>
      <point x="436" y="0" type="move" name="ogonek"/>
    </contour>
    <contour>
      <point x="460" y="652" type="curve"/>
      <point x="530" y="600" type="line"/>
      <point x="578" y="632"/>
      <point x="598" y="696"/>
      <point x="568" y="731" type="curve"/>
      <point x="381" y="736"/>
      <point x="271" y="732"/>
      <point x="130" y="719" type="curve"/>
      <point x="117" y="707"/>
      <point x="117" y="684"/>
      <point x="127" y="661" type="curve"/>
      <point x="147" y="659"/>
      <point x="166" y="655"/>
      <point x="179" y="648" type="curve"/>
      <point x="167" y="492" type="line"/>
      <point x="137" y="335"/>
      <point x="100" y="221"/>
      <point x="47" y="80" type="curve"/>
      <point x="49" y="40"/>
      <point x="83" y="15"/>
      <point x="142" y="0" type="curve"/>
      <point x="457" y="28" type="line"/>
      <point x="480" y="61"/>
      <point x="491" y="116"/>
      <point x="452" y="129" type="curve"/>
      <point x="366" y="110"/>
      <point x="266" y="92"/>
      <point x="164" y="79" type="curve"/>
      <point x="226" y="331" type="line"/>
      <point x="301" y="333"/>
      <point x="374" y="328"/>
      <point x="447" y="322" type="curve"/>
      <point x="468" y="355"/>
      <point x="473" y="396"/>
      <point x="455" y="417" type="curve"/>
      <point x="393" y="410"/>
      <point x="318" y="404"/>
      <point x="236" y="395" type="curve"/>
      <point x="264" y="552" type="line"/>
      <point x="294" y="654" type="line"/>
      <point x="364" y="663"/>
      <point x="416" y="657"/>
    </contour>
  </outline>
</glyph>
<glyph name="F" format="1">
  <advance width="541"/>
  <unicode hex="0046"/>
  <outline>
    <contour>
      <point x="294" y="655" type="line"/>
      <point x="364" y="663"/>
      <point x="416" y="658"/>
      <point x="460" y="653" type="curve"/>
      <point x="530" y="600" type="line"/>
      <point x="578" y="632"/>
      <point x="598" y="698"/>
      <point x="568" y="732" type="curve"/>
      <point x="381" y="737"/>
      <point x="271" y="733"/>
      <point x="130" y="720" type="curve"/>
      <point x="117" y="708"/>
      <point x="117" y="685"/>
      <point x="127" y="662" type="curve"/>
      <point x="147" y="660"/>
      <point x="166" y="656"/>
      <point x="179" y="649" type="curve"/>
      <point x="175" y="513" type="line"/>
      <point x="146" y="350"/>
      <point x="121" y="221"/>
      <point x="66" y="34" type="curve"/>
      <point x="91" y="2"/>
      <point x="163" y="-8"/>
      <point x="195" y="9" type="curve"/>
      <point x="205" y="132"/>
      <point x="215" y="219"/>
      <point x="227" y="311" type="curve"/>
      <point x="303" y="314"/>
      <point x="376" y="310"/>
      <point x="448" y="303" type="curve"/>
      <point x="472" y="338"/>
      <point x="473" y="380"/>
      <point x="459" y="398" type="curve"/>
      <point x="397" y="390"/>
      <point x="320" y="386"/>
      <point x="239" y="376" type="curve"/>
      <point x="264" y="553" type="line"/>
    </contour>
  </outline>
</glyph>
<glyph name="G" format="1">
  <advance width="648"/>
  <unicode hex="0047"/>
  <outline>
    <contour>
      <point x="462" y="787" type="move" name="top"/>
    </contour>
    <contour>
      <point x="341" y="0" type="move" name="bottom"/>
    </contour>
    <contour>
      <point x="534" y="239" type="line"/>
      <point x="521" y="179"/>
      <point x="480" y="89"/>
      <point x="451" y="29" type="curve"/>
      <point x="464" y="5"/>
      <point x="499" y="-4"/>
      <point x="532" y="3" type="curve"/>
      <point x="592" y="178"/>
      <point x="629" y="292"/>
      <point x="583" y="373" type="curve"/>
      <point x="504" y="361"/>
      <point x="408" y="364"/>
      <point x="344" y="375" type="curve"/>
      <point x="314" y="352"/>
      <point x="321" y="310"/>
      <point x="348" y="283" type="curve"/>
      <point x="503" y="310" type="line"/>
      <point x="507" y="305" type="line"/>
      <point x="462" y="214"/>
      <point x="393" y="136"/>
      <point x="324" y="77" type="curve"/>
      <point x="214" y="132"/>
      <point x="160" y="182"/>
      <point x="161" y="315" type="curve" smooth="yes"/>
      <point x="162" y="473"/>
      <point x="279" y="622"/>
      <point x="423" y="673" type="curve"/>
      <point x="438" y="673" type="line"/>
      <point x="477" y="630"/>
      <point x="485" y="586"/>
      <point x="492" y="525" type="curve"/>
      <point x="535" y="502"/>
      <point x="584" y="521"/>
      <point x="614" y="558" type="curve"/>
      <point x="602" y="632"/>
      <point x="559" y="713"/>
      <point x="454" y="746" type="curve"/>
      <point x="300" y="720"/>
      <point x="188" y="628"/>
      <point x="125" y="536" type="curve"/>
      <point x="90" y="479"/>
      <point x="52" y="387"/>
      <point x="53" y="310" type="curve" smooth="yes"/>
      <point x="54" y="153"/>
      <point x="127" y="51"/>
      <point x="334" y="0" type="curve"/>
      <point x="424" y="64"/>
      <point x="490" y="156"/>
      <point x="527" y="242" type="curve"/>
    </contour>
  </outline>
</glyph>
<glyph name="H" format="1">
  <advance width="709"/>
  <unicode hex="0048"/>
  <outline>
    <contour>
      <point x="373" y="395" type="line"/>
      <point x="75" y="389" type="line"/>
      <point x="51" y="361"/>
      <point x="48" y="333"/>
      <point x="66" y="309" type="curve"/>
      <point x="234" y="330" type="line"/>
      <point x="674" y="363" type="line"/>
      <point x="699" y="398"/>
      <point x="701" y="429"/>
      <point x="681" y="442" type="curve"/>
    </contour>
    <contour>
      <point x="312" y="728" type="line"/>
      <point x="297" y="735"/>
      <point x="281" y="739"/>
      <point x="264" y="739" type="curve" smooth="yes"/>
      <point x="237" y="739"/>
      <point x="209" y="730"/>
      <point x="174" y="710" type="curve"/>
      <point x="163" y="507" type="line"/>
      <point x="131" y="318"/>
      <point x="106" y="214"/>
      <point x="58" y="36" type="curve"/>
      <point x="77" y="2"/>
      <point x="142" y="-8"/>
      <point x="188" y="7" type="curve"/>
      <point x="204" y="162"/>
      <point x="223" y="308"/>
      <point x="233" y="413" type="curve"/>
    </contour>
    <contour>
      <point x="679" y="728" type="line"/>
      <point x="664" y="735"/>
      <point x="649" y="739"/>
      <point x="631" y="739" type="curve" smooth="yes"/>
      <point x="605" y="739"/>
      <point x="576" y="730"/>
      <point x="541" y="710" type="curve"/>
      <point x="530" y="507" type="line"/>
      <point x="499" y="318"/>
      <point x="473" y="214"/>
      <point x="426" y="36" type="curve"/>
      <point x="444" y="2"/>
      <point x="510" y="-8"/>
      <point x="556" y="7" type="curve"/>
      <point x="571" y="162"/>
      <point x="591" y="308"/>
      <point x="600" y="413" type="curve"/>
    </contour>
  </outline>
</glyph>
<glyph name="I" format="1">
  <advance width="253"/>
  <unicode hex="0049"/>
  <outline>
    <contour>
      <point x="210" y="787" type="move" name="top"/>
    </contour>
    <contour>
      <point x="136" y="0" type="move" name="ogonek"/>
    </contour>
    <contour>
      <point x="124" y="507" type="line"/>
      <point x="94" y="318"/>
      <point x="68" y="214"/>
      <point x="20" y="36" type="curve"/>
      <point x="39" y="2"/>
      <point x="105" y="-8"/>
      <point x="150" y="7" type="curve"/>
      <point x="166" y="162"/>
      <point x="185" y="308"/>
      <point x="195" y="413" type="curve"/>
      <point x="274" y="728" type="line"/>
      <point x="258" y="735"/>
      <point x="243" y="739"/>
      <point x="226" y="739" type="curve" smooth="yes"/>
      <point x="200" y="739"/>
      <point x="170" y="730"/>
      <point x="136" y="710" type="curve"/>
    </contour>
  </outline>
</glyph>
<glyph name="J" format="1">
  <advance width="577"/>
  <unicode hex="004A"/>
  <outline>
    <contour>
      <point x="128" y="719" type="curve"/>
      <point x="113" y="695"/>
      <point x="112" y="673"/>
      <point x="140" y="642" type="curve"/>
      <point x="392" y="667" type="line"/>
      <point x="625" y="645" type="line"/>
      <point x="656" y="680"/>
      <point x="658" y="710"/>
      <point x="642" y="725" type="curve"/>
      <point x="438" y="735"/>
      <point x="319" y="731"/>
    </contour>
    <contour>
      <point x="377" y="400" type="curve"/>
      <point x="447" y="693" type="line"/>
      <point x="417" y="718"/>
      <point x="373" y="716"/>
      <point x="324" y="687" type="curve"/>
      <point x="317" y="512" type="line"/>
      <point x="290" y="342"/>
      <point x="263" y="233"/>
      <point x="229" y="80" type="curve"/>
      <point x="213" y="72" type="line"/>
      <point x="171" y="116"/>
      <point x="143" y="165"/>
      <point x="135" y="232" type="curve"/>
      <point x="99" y="252"/>
      <point x="56" y="234"/>
      <point x="25" y="190" type="curve"/>
      <point x="42" y="123"/>
      <point x="98" y="48"/>
      <point x="181" y="2" type="curve"/>
      <point x="253" y="-4"/>
      <point x="315" y="19"/>
      <point x="344" y="69" type="curve"/>
      <point x="355" y="200"/>
      <point x="368" y="297"/>
    </contour>
  </outline>
</glyph>
<glyph name="K" format="1">
  <advance width="622"/>
  <unicode hex="004B"/>
  <outline>
    <contour>
      <point x="304" y="0" type="move" name="bottom"/>
    </contour>
    <contour>
      <point x="137" y="507" type="line"/>
      <point x="107" y="318"/>
      <point x="81" y="214"/>
      <point x="34" y="36" type="curve"/>
      <point x="52" y="2"/>
      <point x="118" y="-8"/>
      <point x="164" y="7" type="curve"/>
      <point x="179" y="162"/>
      <point x="198" y="308"/>
      <point x="208" y="413" type="curve"/>
      <point x="288" y="730" type="line"/>
      <point x="272" y="738"/>
      <point x="257" y="741"/>
      <point x="240" y="741" type="curve" smooth="yes"/>
      <point x="213" y="741"/>
      <point x="184" y="732"/>
      <point x="149" y="713" type="curve"/>
    </contour>
    <contour>
      <point x="187" y="332" type="line"/>
      <point x="224" y="357" type="line"/>
      <point x="273" y="208"/>
      <point x="365" y="66"/>
      <point x="487" y="0" type="curve"/>
      <point x="545" y="18"/>
      <point x="569" y="61"/>
      <point x="550" y="101" type="curve"/>
      <point x="395" y="155"/>
      <point x="313" y="270"/>
      <point x="267" y="392" type="curve"/>
      <point x="243" y="364" type="line"/>
      <point x="374" y="440"/>
      <point x="551" y="590"/>
      <point x="625" y="669" type="curve"/>
      <point x="621" y="710"/>
      <point x="599" y="734"/>
      <point x="544" y="741" type="curve"/>
      <point x="339" y="489" type="line"/>
      <point x="167" y="373" type="line"/>
    </contour>
  </outline>
</glyph>
<glyph name="L" format="1">
  <advance width="485"/>
  <unicode hex="004C"/>
  <outline>
    <contour>
      <point x="197" y="787" type="move" name="top"/>
    </contour>
    <contour>
      <point x="262" y="0" type="move" name="bottom"/>
    </contour>
    <contour>
      <point x="141" y="710" type="curve"/>
      <point x="131" y="506" type="line"/>
      <point x="100" y="348"/>
      <point x="70" y="219"/>
      <point x="17" y="77" type="curve"/>
      <point x="22" y="39"/>
      <point x="58" y="15"/>
      <point x="111" y="0" type="curve"/>
      <point x="426" y="34" type="line"/>
      <point x="446" y="62"/>
      <point x="457" y="114"/>
      <point x="419" y="129" type="curve"/>
      <point x="336" y="110"/>
      <point x="238" y="91"/>
      <point x="135" y="77" type="curve"/>
      <point x="196" y="387" type="line"/>
      <point x="279" y="728" type="line" smooth="yes"/>
      <point x="238" y="749"/>
      <point x="195" y="741"/>
    </contour>
  </outline>
</glyph>
<glyph name="M" format="1">
  <advance width="741"/>
  <unicode hex="004D"/>
  <outline>
    <contour>
      <point x="201" y="627" type="curve"/>
      <point x="234" y="623" type="line"/>
      <point x="188" y="413" type="line"/>
      <point x="178" y="309"/>
      <point x="157" y="163"/>
      <point x="142" y="7" type="curve"/>
      <point x="97" y="-8"/>
      <point x="31" y="2"/>
      <point x="13" y="36" type="curve"/>
      <point x="61" y="216"/>
      <point x="86" y="319"/>
      <point x="117" y="506" type="curve"/>
      <point x="130" y="718" type="line"/>
      <point x="155" y="732"/>
      <point x="180" y="738"/>
      <point x="206" y="738" type="curve" smooth="yes"/>
      <point x="228" y="738"/>
      <point x="249" y="732"/>
      <point x="265" y="718" type="curve"/>
      <point x="273" y="607"/>
      <point x="297" y="455"/>
      <point x="332" y="351" type="curve"/>
      <point x="396" y="254" type="line"/>
      <point x="363" y="240" type="line"/>
      <point x="532" y="495" type="line"/>
      <point x="647" y="723" type="line"/>
      <point x="666" y="730"/>
      <point x="691" y="739"/>
      <point x="718" y="739" type="curve" smooth="yes"/>
      <point x="737" y="739"/>
      <point x="756" y="735"/>
      <point x="770" y="724" type="curve"/>
      <point x="692" y="412" type="line"/>
      <point x="682" y="304"/>
      <point x="662" y="160"/>
      <point x="648" y="7" type="curve"/>
      <point x="601" y="-8"/>
      <point x="537" y="2"/>
      <point x="517" y="36" type="curve"/>
      <point x="563" y="207"/>
      <point x="586" y="301"/>
      <point x="617" y="484" type="curve"/>
      <point x="625" y="609" type="line"/>
      <point x="649" y="584" type="line"/>
      <point x="423" y="205" type="line"/>
      <point x="375" y="191"/>
      <point x="347" y="198"/>
      <point x="312" y="226" type="curve"/>
      <point x="240" y="369"/>
      <point x="217" y="503"/>
    </contour>
  </outline>
</glyph>
<glyph name="N" format="1">
  <advance width="667"/>
  <unicode hex="004E"/>
  <outline>
    <contour>
      <point x="425" y="787" type="move" name="top"/>
    </contour>
    <contour>
      <point x="322" y="0" type="move" name="bottom"/>
    </contour>
    <contour>
      <point x="222" y="739" type="curve" smooth="yes"/>
      <point x="195" y="739"/>
      <point x="166" y="731"/>
      <point x="128" y="710" type="curve"/>
      <point x="115" y="506" type="line"/>
      <point x="83" y="320"/>
      <point x="58" y="218"/>
      <point x="7" y="36" type="curve"/>
      <point x="26" y="2"/>
      <point x="91" y="-8"/>
      <point x="137" y="7" type="curve"/>
      <point x="153" y="159"/>
      <point x="174" y="303"/>
      <point x="184" y="413" type="curve"/>
      <point x="242" y="661" type="line"/>
      <point x="216" y="650" type="line"/>
      <point x="273" y="439"/>
      <point x="337" y="239"/>
      <point x="442" y="28" type="curve"/>
      <point x="473" y="2"/>
      <point x="526" y="-7"/>
      <point x="571" y="7" type="curve"/>
      <point x="587" y="162"/>
      <point x="609" y="308"/>
      <point x="620" y="414" type="curve"/>
      <point x="701" y="728" type="line"/>
      <point x="686" y="735"/>
      <point x="670" y="739"/>
      <point x="653" y="739" type="curve" smooth="yes"/>
      <point x="627" y="739"/>
      <point x="597" y="730"/>
      <point x="563" y="710" type="curve"/>
      <point x="550" y="505" type="line"/>
      <point x="523" y="335"/>
      <point x="495" y="233"/>
      <point x="468" y="105" type="curve"/>
      <point x="486" y="125" type="line"/>
      <point x="420" y="245" type="line"/>
      <point x="360" y="408"/>
      <point x="313" y="560"/>
      <point x="268" y="727" type="curve"/>
      <point x="252" y="735"/>
      <point x="239" y="739"/>
    </contour>
  </outline>
</glyph>
<glyph name="O" format="1">
  <advance width="635"/>
  <unicode hex="004F"/>
  <outline>
    <contour>
      <point x="422" y="789" type="move" name="top"/>
    </contour>
    <contour>
      <point x="247" y="0" type="move" name="bottom"/>
    </contour>
    <contour>
      <point x="50" y="303" type="curve" smooth="yes"/>
      <point x="51" y="177"/>
      <point x="167" y="0"/>
      <point x="289" y="0" type="curve" smooth="yes"/>
      <point x="418" y="0"/>
      <point x="622" y="229"/>
      <point x="620" y="376" type="curve" smooth="yes"/>
      <point x="617" y="552"/>
      <point x="502" y="742"/>
      <point x="406" y="742" type="curve" smooth="yes"/>
      <point x="232" y="742"/>
      <point x="48" y="522"/>
    </contour>
    <contour>
      <point x="519" y="363" type="curve"/>
      <point x="478" y="238"/>
      <point x="413" y="139"/>
      <point x="287" y="64" type="curve"/>
      <point x="203" y="115"/>
      <point x="159" y="220"/>
      <point x="159" y="319" type="curve" smooth="yes"/>
      <point x="159" y="465"/>
      <point x="257" y="606"/>
      <point x="399" y="679" type="curve"/>
      <point x="476" y="597"/>
      <point x="504" y="490"/>
    </contour>
  </outline>
</glyph>
<glyph name="P" format="1">
  <advance width="575"/>
  <unicode hex="0050"/>
  <outline>
    <contour>
      <point x="233" y="418" type="curve"/>
      <point x="294" y="695" type="line"/>
      <point x="235" y="664" type="line"/>
      <point x="405" y="689"/>
      <point x="482" y="622"/>
      <point x="484" y="530" type="curve" smooth="yes"/>
      <point x="484" y="464"/>
      <point x="451" y="402"/>
      <point x="400" y="367" type="curve"/>
      <point x="341" y="337"/>
      <point x="268" y="322"/>
      <point x="178" y="309" type="curve"/>
      <point x="201" y="259" type="line"/>
      <point x="275" y="263"/>
      <point x="361" y="280"/>
      <point x="435" y="305" type="curve"/>
      <point x="539" y="360"/>
      <point x="588" y="441"/>
      <point x="588" y="535" type="curve" smooth="yes"/>
      <point x="587" y="642"/>
      <point x="488" y="741"/>
      <point x="304" y="741" type="curve" smooth="yes"/>
      <point x="233" y="741"/>
      <point x="176" y="734"/>
      <point x="127" y="720" type="curve"/>
      <point x="110" y="710"/>
      <point x="108" y="681"/>
      <point x="126" y="657" type="curve"/>
      <point x="174" y="659" type="line"/>
      <point x="157" y="470" type="line"/>
      <point x="132" y="329"/>
      <point x="109" y="197"/>
      <point x="62" y="31" type="curve"/>
      <point x="86" y="1"/>
      <point x="160" y="-8"/>
      <point x="192" y="9" type="curve"/>
      <point x="209" y="151"/>
      <point x="224" y="277"/>
    </contour>
  </outline>
</glyph>
<glyph name="Q" format="1">
  <advance width="653"/>
  <unicode hex="0051"/>
  <outline>
    <contour>
      <point x="286" y="20" type="line"/>
      <point x="396" y="-166" type="line"/>
      <point x="456" y="-168"/>
      <point x="500" y="-144"/>
      <point x="499" y="-92" type="curve"/>
      <point x="390" y="-36" type="line"/>
      <point x="347" y="38" type="line"/>
    </contour>
    <component base="O"/>
  </outline>
</glyph>
<glyph name="R" format="1">
  <advance width="608"/>
  <unicode hex="0052"/>
  <outline>
    <contour>
      <point x="336" y="787" type="move" name="top"/>
    </contour>
    <contour>
      <point x="302" y="0" type="move" name="bottom"/>
    </contour>
    <contour>
      <point x="237" y="336" type="line"/>
      <point x="253" y="205"/>
      <point x="323" y="79"/>
      <point x="459" y="0" type="curve"/>
      <point x="516" y="17"/>
      <point x="548" y="60"/>
      <point x="528" y="99" type="curve"/>
      <point x="382" y="151"/>
      <point x="323" y="212"/>
      <point x="275" y="346" type="curve"/>
    </contour>
    <contour>
      <point x="407" y="331" type="curve"/>
      <point x="524" y="393"/>
      <point x="576" y="452"/>
      <point x="577" y="556" type="curve" smooth="yes"/>
      <point x="577" y="650"/>
      <point x="487" y="743"/>
      <point x="303" y="743" type="curve" smooth="yes"/>
      <point x="231" y="743"/>
      <point x="175" y="735"/>
      <point x="125" y="721" type="curve"/>
      <point x="108" y="711"/>
      <point x="107" y="682"/>
      <point x="125" y="658" type="curve"/>
      <point x="175" y="659" type="line"/>
      <point x="155" y="474" type="line"/>
      <point x="130" y="333"/>
      <point x="106" y="197"/>
      <point x="57" y="31" type="curve"/>
      <point x="82" y="1"/>
      <point x="154" y="-8"/>
      <point x="187" y="9" type="curve"/>
      <point x="212" y="182"/>
      <point x="223" y="299"/>
      <point x="232" y="423" type="curve"/>
      <point x="295" y="695" type="line"/>
      <point x="234" y="665" type="line"/>
      <point x="401" y="693"/>
      <point x="466" y="626"/>
      <point x="466" y="549" type="curve" smooth="yes"/>
      <point x="466" y="479"/>
      <point x="442" y="439"/>
      <point x="381" y="394" type="curve"/>
      <point x="321" y="377"/>
      <point x="272" y="369"/>
      <point x="199" y="368" type="curve"/>
      <point x="208" y="317" type="line"/>
      <point x="292" y="319"/>
      <point x="330" y="321"/>
    </contour>
  </outline>
</glyph>
<glyph name="S" format="1">
  <advance width="598"/>
  <unicode hex="0053"/>
  <outline>
    <contour>
      <point x="391" y="787" type="move" name="top"/>
    </contour>
    <contour>
      <point x="295" y="0" type="move" name="bottom"/>
    </contour>
    <contour>
      <point x="561" y="239" type="curve"/>
      <point x="501" y="386"/>
      <point x="199" y="463"/>
      <point x="195" y="549" type="curve" smooth="yes"/>
      <point x="194" y="595"/>
      <point x="296" y="666"/>
      <point x="375" y="685" type="curve"/>
      <point x="414" y="654"/>
      <point x="445" y="619"/>
      <point x="471" y="539" type="curve"/>
      <point x="532" y="530"/>
      <point x="566" y="552"/>
      <point x="574" y="592" type="curve"/>
      <point x="536" y="666"/>
      <point x="468" y="722"/>
      <point x="382" y="748" type="curve"/>
      <point x="264" y="738"/>
      <point x="133" y="659"/>
      <point x="85" y="546" type="curve"/>
      <point x="111" y="375"/>
      <point x="446" y="306"/>
      <point x="447" y="226" type="curve" smooth="yes"/>
      <point x="447" y="153"/>
      <point x="368" y="89"/>
      <point x="265" y="64" type="curve"/>
      <point x="187" y="119"/>
      <point x="160" y="156"/>
      <point x="134" y="243" type="curve"/>
      <point x="77" y="261"/>
      <point x="49" y="239"/>
      <point x="20" y="192" type="curve"/>
      <point x="41" y="120"/>
      <point x="147" y="30"/>
      <point x="256" y="0" type="curve"/>
      <point x="439" y="29"/>
      <point x="542" y="119"/>
    </contour>
  </outline>
</glyph>
<glyph name="T" format="1">
  <advance width="577"/>
  <unicode hex="0054"/>
  <outline>
    <contour>
      <point x="376" y="787" type="move" name="top"/>
    </contour>
    <contour>
      <point x="279" y="0" type="move" name="bottom"/>
    </contour>
    <contour>
      <point x="291" y="514" type="line"/>
      <point x="260" y="325"/>
      <point x="232" y="208"/>
      <point x="184" y="35" type="curve"/>
      <point x="204" y="2"/>
      <point x="269" y="-8"/>
      <point x="314" y="7" type="curve"/>
      <point x="329" y="148"/>
      <point x="343" y="271"/>
      <point x="355" y="406" type="curve"/>
      <point x="425" y="704" type="line"/>
      <point x="397" y="719"/>
      <point x="356" y="717"/>
      <point x="297" y="687" type="curve"/>
    </contour>
    <contour>
      <point x="103" y="719" type="curve"/>
      <point x="89" y="695"/>
      <point x="87" y="672"/>
      <point x="115" y="641" type="curve"/>
      <point x="383" y="665" type="line"/>
      <point x="622" y="647" type="line"/>
      <point x="651" y="682"/>
      <point x="652" y="712"/>
      <point x="637" y="728" type="curve"/>
      <point x="406" y="735"/>
      <point x="270" y="731"/>
    </contour>
  </outline>
</glyph>
<glyph name="U" format="1">
  <advance width="605"/>
  <unicode hex="0055"/>
  <outline>
    <contour>
      <point x="378" y="787" type="move" name="top"/>
    </contour>
    <contour>
      <point x="299" y="0" type="move" name="ogonek"/>
    </contour>
    <contour>
      <point x="571" y="366" type="curve" smooth="yes"/>
      <point x="599" y="503"/>
      <point x="614" y="617"/>
      <point x="637" y="730" type="curve"/>
      <point x="622" y="738"/>
      <point x="607" y="741"/>
      <point x="589" y="741" type="curve" smooth="yes"/>
      <point x="562" y="741"/>
      <point x="533" y="732"/>
      <point x="499" y="713" type="curve"/>
      <point x="508" y="494" type="line"/>
      <point x="480" y="319"/>
      <point x="452" y="181"/>
      <point x="367" y="87" type="curve"/>
      <point x="236" y="39"/>
      <point x="156" y="124"/>
      <point x="161" y="214" type="curve" smooth="yes"/>
      <point x="164" y="372"/>
      <point x="213" y="558"/>
      <point x="265" y="730" type="curve"/>
      <point x="250" y="738"/>
      <point x="234" y="741"/>
      <point x="217" y="741" type="curve" smooth="yes"/>
      <point x="191" y="741"/>
      <point x="161" y="732"/>
      <point x="126" y="713" type="curve"/>
      <point x="109" y="516"/>
      <point x="84" y="381"/>
      <point x="49" y="179" type="curve"/>
      <point x="61" y="104"/>
      <point x="133" y="0"/>
      <point x="272" y="0" type="curve" smooth="yes"/>
      <point x="463" y="0"/>
      <point x="526" y="142"/>
    </contour>
  </outline>
</glyph>
<glyph name="V" format="1">
  <advance width="585"/>
  <unicode hex="0056"/>
  <outline>
    <contour>
      <point x="248" y="273" type="line"/>
      <point x="234" y="719" type="line"/>
      <point x="207" y="741"/>
      <point x="140" y="731"/>
      <point x="104" y="698" type="curve"/>
      <point x="187" y="33" type="line"/>
      <point x="220" y="0"/>
      <point x="277" y="-8"/>
      <point x="323" y="5" type="curve"/>
      <point x="380" y="157" type="line"/>
      <point x="451" y="286"/>
      <point x="517" y="390"/>
      <point x="588" y="517" type="curve"/>
      <point x="616" y="572"/>
      <point x="638" y="637"/>
      <point x="632" y="708" type="curve"/>
      <point x="601" y="734"/>
      <point x="545" y="742"/>
      <point x="486" y="706" type="curve"/>
      <point x="508" y="533" type="line"/>
      <point x="256" y="38" type="line"/>
      <point x="283" y="39" type="line"/>
    </contour>
  </outline>
</glyph>
<glyph name="W" format="1">
  <advance width="859"/>
  <unicode hex="0057"/>
  <outline>
    <contour>
      <point x="767" y="711" type="curve"/>
      <point x="789" y="535" type="line"/>
      <point x="579" y="37" type="line"/>
      <point x="604" y="35" type="line"/>
      <point x="561" y="300" type="line"/>
      <point x="554" y="666" type="line"/>
      <point x="509" y="686"/>
      <point x="465" y="672"/>
      <point x="431" y="640" type="curve"/>
      <point x="462" y="430" type="line"/>
      <point x="259" y="48" type="line"/>
      <point x="291" y="36" type="line"/>
      <point x="252" y="273" type="line"/>
      <point x="234" y="723" type="line"/>
      <point x="206" y="744"/>
      <point x="141" y="737"/>
      <point x="105" y="703" type="curve"/>
      <point x="195" y="33" type="line"/>
      <point x="228" y="0"/>
      <point x="284" y="-8"/>
      <point x="330" y="5" type="curve"/>
      <point x="386" y="155" type="line"/>
      <point x="478" y="330" type="line"/>
      <point x="510" y="32" type="line"/>
      <point x="541" y="0"/>
      <point x="600" y="-8"/>
      <point x="645" y="5" type="curve"/>
      <point x="691" y="160" type="line"/>
      <point x="870" y="520" type="line" smooth="yes"/>
      <point x="899" y="579"/>
      <point x="918" y="643"/>
      <point x="913" y="713" type="curve"/>
      <point x="880" y="737"/>
      <point x="826" y="746"/>
    </contour>
  </outline>
</glyph>
<glyph name="X" format="1">
  <advance width="641"/>
  <unicode hex="0058"/>
  <outline>
    <contour>
      <point x="359" y="394" type="curve"/>
      <point x="334" y="523"/>
      <point x="268" y="664"/>
      <point x="184" y="739" type="curve"/>
      <point x="121" y="731"/>
      <point x="88" y="689"/>
      <point x="94" y="636" type="curve"/>
      <point x="172" y="583"/>
      <point x="262" y="482"/>
      <point x="322" y="358" type="curve"/>
      <point x="335" y="255"/>
      <point x="420" y="75"/>
      <point x="489" y="0" type="curve"/>
      <point x="559" y="13"/>
      <point x="591" y="56"/>
      <point x="583" y="100" type="curve"/>
      <point x="499" y="161"/>
      <point x="401" y="319"/>
    </contour>
    <contour>
      <point x="588" y="740" type="curve"/>
      <point x="331" y="383" type="line"/>
      <point x="242" y="290"/>
      <point x="116" y="159"/>
      <point x="16" y="83" type="curve"/>
      <point x="13" y="43"/>
      <point x="32" y="9"/>
      <point x="104" y="0" type="curve"/>
      <point x="361" y="359" type="line"/>
      <point x="482" y="485"/>
      <point x="584" y="587"/>
      <point x="674" y="664" type="curve"/>
      <point x="666" y="715"/>
      <point x="642" y="744"/>
    </contour>
  </outline>
</glyph>
<glyph name="Y" format="1">
  <advance width="598"/>
  <unicode hex="0059"/>
  <outline>
    <contour>
      <point x="387" y="786" type="move" name="top"/>
    </contour>
    <contour>
      <point x="109" y="698" type="curve"/>
      <point x="168" y="574"/>
      <point x="230" y="445"/>
      <point x="285" y="302" type="curve"/>
      <point x="274" y="229"/>
      <point x="253" y="113"/>
      <point x="222" y="27" type="curve"/>
      <point x="254" y="-2"/>
      <point x="322" y="-11"/>
      <point x="352" y="7" type="curve"/>
      <point x="359" y="122"/>
      <point x="370" y="248"/>
      <point x="392" y="330" type="curve"/>
      <point x="460" y="413"/>
      <point x="528" y="495"/>
      <point x="589" y="573" type="curve" smooth="yes"/>
      <point x="624" y="617"/>
      <point x="638" y="659"/>
      <point x="639" y="714" type="curve"/>
      <point x="605" y="744"/>
      <point x="559" y="754"/>
      <point x="483" y="720" type="curve"/>
      <point x="521" y="583" type="line"/>
      <point x="368" y="382" type="line"/>
      <point x="344" y="337" type="line"/>
      <point x="340" y="337" type="line"/>
      <point x="258" y="552" type="line"/>
      <point x="230" y="733" type="line"/>
      <point x="193" y="753"/>
      <point x="139" y="736"/>
    </contour>
  </outline>
</glyph>
<glyph name="Z" format="1">
  <advance width="614"/>
  <unicode hex="005A"/>
  <outline>
    <contour>
      <point x="386" y="787" type="move" name="top"/>
    </contour>
    <contour>
      <point x="122" y="49" type="line"/>
      <point x="219" y="46"/>
      <point x="389" y="30"/>
      <point x="474" y="0" type="curve"/>
      <point x="539" y="44"/>
      <point x="574" y="88"/>
      <point x="588" y="138" type="curve"/>
      <point x="574" y="175"/>
      <point x="542" y="189"/>
      <point x="475" y="175" type="curve"/>
      <point x="468" y="143"/>
      <point x="463" y="125"/>
      <point x="447" y="93" type="curve"/>
      <point x="368" y="104"/>
      <point x="242" y="103"/>
      <point x="148" y="104" type="curve"/>
      <point x="144" y="113" type="line"/>
      <point x="287" y="240"/>
      <point x="583" y="545"/>
      <point x="631" y="699" type="curve"/>
      <point x="619" y="736"/>
      <point x="591" y="747"/>
      <point x="530" y="748" type="curve"/>
      <point x="509" y="698" type="line"/>
      <point x="425" y="701"/>
      <point x="274" y="718"/>
      <point x="191" y="741" type="curve"/>
      <point x="122" y="713"/>
      <point x="90" y="650"/>
      <point x="74" y="591" type="curve"/>
      <point x="89" y="558"/>
      <point x="122" y="546"/>
      <point x="185" y="556" type="curve"/>
      <point x="189" y="593"/>
      <point x="200" y="628"/>
      <point x="224" y="660" type="curve"/>
      <point x="286" y="647"/>
      <point x="406" y="644"/>
      <point x="485" y="644" type="curve"/>
      <point x="491" y="636" type="line"/>
      <point x="375" y="402"/>
      <point x="9" y="147"/>
      <point x="8" y="62" type="curve" smooth="yes"/>
      <point x="7" y="38"/>
      <point x="11" y="20"/>
      <point x="27" y="1" type="curve"/>
      <point x="80" y="-4"/>
      <point x="106" y="3"/>
      <point x="125" y="23" type="curve"/>
      <point x="117" y="45" type="line"/>
    </contour>
  </outline>
</glyph>
<glyph name="bracketleft" format="1">
  <advance width="542"/>
  <unicode hex="005B"/>
  <outline>
    <contour>
      <point x="459" y="804" type="line"/>
      <point x="559" y="798" type="line"/>
      <point x="578" y="828"/>
      <point x="583" y="843"/>
      <point x="578" y="867" type="curve"/>
      <point x="278" y="861" type="line"/>
      <point x="211" y="418" type="line"/>
      <point x="104" y="-18" type="line"/>
      <point x="109" y="-38"/>
      <point x="126" y="-58"/>
      <point x="154" y="-73" type="curve"/>
      <point x="400" y="-32" type="line"/>
      <point x="420" y="-10"/>
      <point x="424" y="11"/>
      <point x="415" y="25" type="curve"/>
      <point x="230" y="-1" type="line"/>
      <point x="270" y="259" type="line"/>
      <point x="341" y="632" type="line"/>
      <point x="389" y="800" type="line"/>
    </contour>
  </outline>
</glyph>
<glyph name="backslash" format="1">
  <advance width="476"/>
  <unicode hex="005C"/>
  <outline>
    <contour>
      <point x="65" y="842" type="curve"/>
      <point x="346" y="-116" type="line"/>
      <point x="376" y="-127"/>
      <point x="403" y="-129"/>
      <point x="424" y="-102" type="curve"/>
      <point x="258" y="364" type="line"/>
      <point x="140" y="873" type="line" smooth="yes"/>
      <point x="108" y="887"/>
      <point x="77" y="874"/>
    </contour>
  </outline>
</glyph>
<glyph name="bracketright" format="1">
  <advance width="564"/>
  <unicode hex="005D"/>
  <outline>
    <contour>
      <point x="373" y="236" type="line"/>
      <point x="505" y="780" type="line"/>
      <point x="502" y="812"/>
      <point x="492" y="834"/>
      <point x="472" y="853" type="curve"/>
      <point x="181" y="866" type="line"/>
      <point x="168" y="850"/>
      <point x="174" y="827"/>
      <point x="193" y="799" type="curve"/>
      <point x="383" y="804" type="line"/>
      <point x="311" y="418" type="line"/>
      <point x="239" y="8" type="line"/>
      <point x="28" y="4" type="line"/>
      <point x="13" y="-26"/>
      <point x="16" y="-51"/>
      <point x="32" y="-76" type="curve"/>
      <point x="357" y="-31" type="line"/>
    </contour>
  </outline>
</glyph>
<glyph name="asciicircum" format="1">
  <advance width="487"/>
  <unicode hex="005E"/>
  <outline>
    <contour>
      <point x="54" y="418" type="line"/>
      <point x="57" y="400"/>
      <point x="76" y="389"/>
      <point x="99" y="391" type="curve"/>
      <point x="298" y="714" type="line"/>
      <point x="388" y="402" type="line"/>
      <point x="407" y="390"/>
      <point x="453" y="382"/>
      <point x="486" y="411" type="curve"/>
      <point x="375" y="759" type="line"/>
      <point x="352" y="775"/>
      <point x="317" y="779"/>
      <point x="276" y="771" type="curve"/>
    </contour>
  </outline>
</glyph>
<glyph name="underscore" format="1">
  <advance width="640"/>
  <unicode hex="005F"/>
  <outline>
    <contour>
      <point x="516" y="-49" type="curve"/>
      <point x="263" y="-65" type="line"/>
      <point x="8" y="-61" type="line"/>
      <point x="-14" y="-89"/>
      <point x="-18" y="-118"/>
      <point x="-4" y="-133" type="curve"/>
      <point x="501" y="-125" type="line"/>
      <point x="528" y="-94"/>
      <point x="532" y="-59"/>
    </contour>
  </outline>
</glyph>
<glyph name="grave" format="1">
  <advance width="248"/>
  <unicode hex="0060"/>
  <outline>
    <contour>
      <point x="253" y="587" type="move" name="_top"/>
    </contour>
    <contour>
      <point x="217" y="801" type="line"/>
      <point x="175" y="814"/>
      <point x="122" y="802"/>
      <point x="106" y="757" type="curve"/>
      <point x="192" y="673" type="line"/>
      <point x="247" y="594" type="line"/>
      <point x="270" y="589"/>
      <point x="289" y="596"/>
      <point x="296" y="611" type="curve"/>
    </contour>
  </outline>
</glyph>
<glyph name="a" format="1">
  <advance width="560"/>
  <unicode hex="0061"/>
  <outline>
    <contour>
      <point x="379" y="587" type="move" name="top"/>
    </contour>
    <contour>
      <point x="421" y="0" type="move" name="ogonek"/>
    </contour>
    <contour>
      <point x="371" y="252" type="line"/>
      <point x="316" y="201"/>
      <point x="257" y="147"/>
      <point x="195" y="90" type="curve"/>
      <point x="155" y="114"/>
      <point x="143" y="147"/>
      <point x="143" y="193" type="curve" smooth="yes"/>
      <point x="143" y="317"/>
      <point x="205" y="430"/>
      <point x="315" y="477" type="curve"/>
      <point x="357" y="449"/>
      <point x="379" y="422"/>
      <point x="400" y="379" type="curve"/>
      <point x="437" y="405" type="line"/>
      <point x="415" y="460"/>
      <point x="371" y="519"/>
      <point x="322" y="545" type="curve"/>
      <point x="164" y="543"/>
      <point x="29" y="353"/>
      <point x="31" y="188" type="curve" smooth="yes"/>
      <point x="32" y="89"/>
      <point x="90" y="17"/>
      <point x="214" y="13" type="curve"/>
      <point x="276" y="84"/>
      <point x="354" y="162"/>
      <point x="397" y="216" type="curve"/>
    </contour>
    <contour>
      <point x="437" y="547" type="curve"/>
      <point x="427" y="526"/>
      <point x="421" y="493"/>
      <point x="420" y="444" type="curve"/>
      <point x="400" y="380" type="line"/>
      <point x="371" y="252" type="line"/>
      <point x="347" y="166" type="line"/>
      <point x="363" y="152" type="line"/>
      <point x="318" y="35" type="line"/>
      <point x="351" y="3"/>
      <point x="411" y="-8"/>
      <point x="454" y="7" type="curve"/>
      <point x="460" y="137"/>
      <point x="467" y="256"/>
      <point x="480" y="358" type="curve"/>
      <point x="560" y="511" type="line"/>
      <point x="541" y="544"/>
      <point x="506" y="553"/>
    </contour>
  </outline>
</glyph>
<glyph name="b" format="1">
  <advance width="542"/>
  <unicode hex="0062"/>
  <outline>
    <contour>
      <point x="283" y="811" type="line"/>
      <point x="243" y="830"/>
      <point x="207" y="824"/>
      <point x="149" y="792" type="curve"/>
      <point x="138" y="540" type="line"/>
      <point x="110" y="385"/>
      <point x="76" y="229"/>
      <point x="40" y="91" type="curve"/>
      <point x="47" y="49"/>
      <point x="82" y="17"/>
      <point x="151" y="0" type="curve"/>
      <point x="340" y="37"/>
      <point x="481" y="148"/>
      <point x="526" y="325" type="curve"/>
      <point x="503" y="442"/>
      <point x="464" y="509"/>
      <point x="327" y="545" type="curve"/>
      <point x="266" y="486"/>
      <point x="205" y="417"/>
      <point x="147" y="336" type="curve"/>
      <point x="176" y="299" type="line"/>
      <point x="231" y="367"/>
      <point x="283" y="418"/>
      <point x="329" y="459" type="curve"/>
      <point x="387" y="434"/>
      <point x="412" y="397"/>
      <point x="423" y="328" type="curve"/>
      <point x="401" y="207"/>
      <point x="298" y="95"/>
      <point x="125" y="66" type="curve"/>
      <point x="143" y="57" type="line"/>
      <point x="166" y="161"/>
      <point x="180" y="257"/>
      <point x="195" y="373" type="curve"/>
      <point x="171" y="398" type="line"/>
      <point x="204" y="458" type="line"/>
      <point x="225" y="573" type="line"/>
    </contour>
  </outline>
</glyph>
<glyph name="c" format="1">
  <advance width="515"/>
  <unicode hex="0063"/>
  <outline>
    <contour>
      <point x="334" y="587" type="move" name="top"/>
    </contour>
    <contour>
      <point x="289" y="0" type="move" name="bottom"/>
    </contour>
    <contour>
      <point x="330" y="547" type="curve"/>
      <point x="217" y="523"/>
      <point x="128" y="439"/>
      <point x="73" y="363" type="curve"/>
      <point x="53" y="326"/>
      <point x="39" y="288"/>
      <point x="38" y="243" type="curve" smooth="yes"/>
      <point x="33" y="136"/>
      <point x="86" y="32"/>
      <point x="237" y="0" type="curve"/>
      <point x="314" y="12"/>
      <point x="418" y="65"/>
      <point x="462" y="111" type="curve"/>
      <point x="467" y="144"/>
      <point x="458" y="163"/>
      <point x="425" y="162" type="curve"/>
      <point x="385" y="125"/>
      <point x="311" y="89"/>
      <point x="252" y="71" type="curve"/>
      <point x="165" y="113"/>
      <point x="144" y="175"/>
      <point x="149" y="264" type="curve" smooth="yes"/>
      <point x="152" y="333"/>
      <point x="207" y="427"/>
      <point x="294" y="478" type="curve"/>
      <point x="315" y="482" type="line"/>
      <point x="348" y="450"/>
      <point x="364" y="422"/>
      <point x="365" y="361" type="curve"/>
      <point x="408" y="348"/>
      <point x="454" y="359"/>
      <point x="479" y="391" type="curve"/>
      <point x="468" y="466"/>
      <point x="420" y="532"/>
    </contour>
  </outline>
</glyph>
<glyph name="d" format="1">
  <advance width="523"/>
  <unicode hex="0064"/>
  <outline>
    <contour>
      <point x="371" y="252" type="line"/>
      <point x="316" y="201"/>
      <point x="256" y="147"/>
      <point x="195" y="90" type="curve"/>
      <point x="155" y="114"/>
      <point x="143" y="147"/>
      <point x="143" y="193" type="curve" smooth="yes"/>
      <point x="144" y="317"/>
      <point x="208" y="434"/>
      <point x="319" y="480" type="curve"/>
      <point x="362" y="453"/>
      <point x="379" y="422"/>
      <point x="402" y="379" type="curve"/>
      <point x="437" y="405" type="line"/>
      <point x="416" y="462"/>
      <point x="382" y="536"/>
      <point x="324" y="545" type="curve" smooth="yes"/>
      <point x="166" y="544"/>
      <point x="30" y="355"/>
      <point x="31" y="188" type="curve" smooth="yes"/>
      <point x="31" y="88"/>
      <point x="93" y="15"/>
      <point x="214" y="13" type="curve"/>
      <point x="277" y="85"/>
      <point x="355" y="162"/>
      <point x="397" y="216" type="curve"/>
    </contour>
    <contour>
      <point x="577" y="811" type="line"/>
      <point x="539" y="831"/>
      <point x="502" y="824"/>
      <point x="440" y="792" type="curve"/>
      <point x="439" y="540" type="line"/>
      <point x="427" y="483"/>
      <point x="416" y="432"/>
      <point x="402" y="379" type="curve"/>
      <point x="371" y="252" type="line"/>
      <point x="337" y="173" type="line"/>
      <point x="361" y="151" type="line"/>
      <point x="312" y="31" type="line"/>
      <point x="336" y="-1"/>
      <point x="388" y="-6"/>
      <point x="436" y="7" type="curve"/>
      <point x="459" y="166"/>
      <point x="495" y="412"/>
      <point x="516" y="582" type="curve"/>
    </contour>
  </outline>
</glyph>
<glyph name="e" format="1">
  <advance width="515"/>
  <unicode hex="0065"/>
  <outline>
    <contour>
      <point x="315" y="587" type="move" name="top"/>
    </contour>
    <contour>
      <point x="282" y="0" type="move" name="ogonek"/>
    </contour>
    <contour>
      <point x="126" y="205" type="line"/>
      <point x="239" y="226"/>
      <point x="351" y="266"/>
      <point x="463" y="320" type="curve"/>
      <point x="481" y="428"/>
      <point x="443" y="525"/>
      <point x="312" y="553" type="curve"/>
      <point x="189" y="511"/>
      <point x="118" y="433"/>
      <point x="67" y="367" type="curve"/>
      <point x="48" y="328"/>
      <point x="34" y="288"/>
      <point x="32" y="245" type="curve" smooth="yes"/>
      <point x="30" y="128"/>
      <point x="93" y="29"/>
      <point x="237" y="0" type="curve"/>
      <point x="304" y="12"/>
      <point x="420" y="61"/>
      <point x="456" y="105" type="curve"/>
      <point x="461" y="143"/>
      <point x="451" y="157"/>
      <point x="419" y="157" type="curve"/>
      <point x="373" y="117"/>
      <point x="307" y="89"/>
      <point x="247" y="72" type="curve"/>
      <point x="157" y="111"/>
      <point x="138" y="174"/>
      <point x="139" y="268" type="curve" smooth="yes"/>
      <point x="141" y="338"/>
      <point x="202" y="435"/>
      <point x="285" y="482" type="curve"/>
      <point x="300" y="486" type="line"/>
      <point x="356" y="457"/>
      <point x="372" y="416"/>
      <point x="368" y="345" type="curve"/>
      <point x="288" y="308"/>
      <point x="213" y="280"/>
      <point x="117" y="256" type="curve"/>
    </contour>
  </outline>
</glyph>
<glyph name="f" format="1">
  <advance width="401"/>
  <unicode hex="0066"/>
  <outline>
    <contour>
      <point x="317" y="765" type="curve"/>
      <point x="354" y="734"/>
      <point x="370" y="708"/>
      <point x="374" y="647" type="curve"/>
      <point x="413" y="633"/>
      <point x="461" y="646"/>
      <point x="484" y="677" type="curve"/>
      <point x="473" y="750"/>
      <point x="422" y="816"/>
      <point x="334" y="832" type="curve"/>
      <point x="254" y="823"/>
      <point x="194" y="778"/>
      <point x="143" y="714" type="curve"/>
      <point x="153" y="470" type="line"/>
      <point x="126" y="308"/>
      <point x="93" y="173"/>
      <point x="45" y="31" type="curve"/>
      <point x="63" y="2"/>
      <point x="118" y="-8"/>
      <point x="168" y="7" type="curve"/>
      <point x="201" y="208"/>
      <point x="248" y="570"/>
      <point x="242" y="725" type="curve"/>
      <point x="266" y="746"/>
      <point x="289" y="759"/>
    </contour>
    <contour>
      <point x="167" y="463" type="line"/>
      <point x="15" y="463" type="line"/>
      <point x="-6" y="434"/>
      <point x="-6" y="407"/>
      <point x="14" y="383" type="curve"/>
      <point x="210" y="419" type="line"/>
      <point x="404" y="430" type="line"/>
      <point x="426" y="464"/>
      <point x="425" y="495"/>
      <point x="406" y="509" type="curve"/>
    </contour>
  </outline>
</glyph>
<glyph name="g" format="1">
  <advance width="534"/>
  <unicode hex="0067"/>
  <outline>
    <contour>
      <point x="363" y="587" type="move" name="top"/>
    </contour>
    <contour>
      <point x="326" y="58" type="line"/>
      <point x="311" y="-39"/>
      <point x="303" y="-93"/>
      <point x="276" y="-191" type="curve"/>
      <point x="267" y="-200"/>
      <point x="252" y="-206"/>
      <point x="236" y="-205" type="curve"/>
      <point x="184" y="-159"/>
      <point x="157" y="-108"/>
      <point x="151" y="-46" type="curve"/>
      <point x="115" y="-24"/>
      <point x="70" y="-43"/>
      <point x="40" y="-90" type="curve"/>
      <point x="53" y="-157"/>
      <point x="108" y="-231"/>
      <point x="210" y="-281" type="curve"/>
      <point x="279" y="-280"/>
      <point x="352" y="-257"/>
      <point x="383" y="-214" type="curve"/>
      <point x="406" y="-59"/>
      <point x="439" y="190"/>
      <point x="471" y="333" type="curve"/>
      <point x="558" y="511" type="line"/>
      <point x="538" y="544"/>
      <point x="504" y="553"/>
      <point x="435" y="547" type="curve"/>
      <point x="426" y="527"/>
      <point x="420" y="494"/>
      <point x="419" y="445" type="curve"/>
      <point x="400" y="380" type="line"/>
      <point x="371" y="252" type="line"/>
      <point x="348" y="168" type="line"/>
      <point x="364" y="154" type="line"/>
    </contour>
    <contour>
      <point x="371" y="252" type="line"/>
      <point x="316" y="201"/>
      <point x="257" y="147"/>
      <point x="195" y="90" type="curve"/>
      <point x="155" y="114"/>
      <point x="143" y="147"/>
      <point x="143" y="195" type="curve" smooth="yes"/>
      <point x="143" y="319"/>
      <point x="208" y="434"/>
      <point x="319" y="480" type="curve"/>
      <point x="360" y="454"/>
      <point x="378" y="423"/>
      <point x="399" y="379" type="curve"/>
      <point x="437" y="405" type="line"/>
      <point x="414" y="460"/>
      <point x="380" y="535"/>
      <point x="321" y="545" type="curve" smooth="yes"/>
      <point x="165" y="544"/>
      <point x="30" y="353"/>
      <point x="31" y="188" type="curve" smooth="yes"/>
      <point x="31" y="89"/>
      <point x="91" y="17"/>
      <point x="214" y="13" type="curve"/>
      <point x="277" y="84"/>
      <point x="354" y="162"/>
      <point x="397" y="216" type="curve"/>
    </contour>
  </outline>
</glyph>
<glyph name="h" format="1">
  <advance width="558"/>
  <unicode hex="0068"/>
  <outline>
    <contour>
      <point x="472" y="7" type="curve"/>
      <point x="474" y="132"/>
      <point x="482" y="246"/>
      <point x="490" y="318" type="curve"/>
      <point x="529" y="416" type="line"/>
      <point x="517" y="469"/>
      <point x="472" y="537"/>
      <point x="381" y="545" type="curve"/>
      <point x="288" y="499"/>
      <point x="213" y="422"/>
      <point x="152" y="336" type="curve"/>
      <point x="184" y="297" type="line"/>
      <point x="247" y="374"/>
      <point x="311" y="428"/>
      <point x="374" y="457" type="curve"/>
      <point x="395" y="448"/>
      <point x="410" y="432"/>
      <point x="415" y="402" type="curve"/>
      <point x="390" y="280"/>
      <point x="365" y="162"/>
      <point x="347" y="32" type="curve"/>
      <point x="376" y="3"/>
      <point x="426" y="-8"/>
    </contour>
    <contour>
      <point x="25" y="31" type="curve"/>
      <point x="43" y="2"/>
      <point x="98" y="-8"/>
      <point x="148" y="7" type="curve"/>
      <point x="169" y="127"/>
      <point x="186" y="242"/>
      <point x="202" y="373" type="curve"/>
      <point x="181" y="401" type="line"/>
      <point x="217" y="447" type="line"/>
      <point x="227" y="577" type="line"/>
      <point x="286" y="811" type="line"/>
      <point x="246" y="830"/>
      <point x="209" y="824"/>
      <point x="150" y="789" type="curve"/>
      <point x="144" y="540" type="line"/>
      <point x="123" y="417"/>
      <point x="81" y="207"/>
    </contour>
  </outline>
</glyph>
<glyph name="i" format="1">
  <advance width="255"/>
  <unicode hex="0069"/>
  <outline>
    <contour>
      <point x="141" y="0" type="move" name="ogonek"/>
    </contour>
    <contour>
      <point x="188" y="592" type="curve" smooth="yes"/>
      <point x="224" y="592"/>
      <point x="253" y="622"/>
      <point x="251" y="657" type="curve" smooth="yes"/>
      <point x="250" y="695"/>
      <point x="221" y="723"/>
      <point x="185" y="723" type="curve" smooth="yes"/>
      <point x="147" y="723"/>
      <point x="117" y="695"/>
      <point x="118" y="657" type="curve" smooth="yes"/>
      <point x="119" y="622"/>
      <point x="149" y="592"/>
    </contour>
    <contour>
      <point x="113" y="359" type="line"/>
      <point x="91" y="250"/>
      <point x="66" y="141"/>
      <point x="32" y="36" type="curve"/>
      <point x="56" y="2"/>
      <point x="116" y="-8"/>
      <point x="161" y="7" type="curve"/>
      <point x="173" y="151"/>
      <point x="183" y="268"/>
      <point x="196" y="385" type="curve"/>
      <point x="236" y="526" type="line"/>
      <point x="205" y="555"/>
      <point x="163" y="548"/>
      <point x="109" y="524" type="curve"/>
    </contour>
  </outline>
</glyph>
<glyph name="j" format="1">
  <advance width="295"/>
  <unicode hex="006A"/>
  <outline>
    <contour>
      <point x="274" y="595" type="curve" smooth="yes"/>
      <point x="308" y="595"/>
      <point x="336" y="623"/>
      <point x="336" y="657" type="curve" smooth="yes"/>
      <point x="335" y="693"/>
      <point x="306" y="721"/>
      <point x="271" y="721" type="curve" smooth="yes"/>
      <point x="234" y="721"/>
      <point x="206" y="693"/>
      <point x="207" y="657" type="curve" smooth="yes"/>
      <point x="208" y="623"/>
      <point x="237" y="595"/>
    </contour>
    <contour>
      <point x="-37" y="-44" type="curve"/>
      <point x="-72" y="-24"/>
      <point x="-117" y="-42"/>
      <point x="-145" y="-91" type="curve"/>
      <point x="-131" y="-155"/>
      <point x="-76" y="-229"/>
      <point x="9" y="-278" type="curve"/>
      <point x="80" y="-283"/>
      <point x="148" y="-260"/>
      <point x="167" y="-218" type="curve"/>
      <point x="178" y="-44"/>
      <point x="203" y="198"/>
      <point x="223" y="324" type="curve"/>
      <point x="310" y="513" type="line"/>
      <point x="285" y="545"/>
      <point x="250" y="553"/>
      <point x="182" y="547" type="curve"/>
      <point x="117" y="274"/>
      <point x="96" y="47"/>
      <point x="61" y="-197" type="curve"/>
      <point x="44" y="-205" type="line"/>
      <point x="0" y="-163"/>
      <point x="-29" y="-110"/>
    </contour>
  </outline>
</glyph>
<glyph name="k" format="1">
  <advance width="529"/>
  <unicode hex="006B"/>
  <outline>
    <contour>
      <point x="262" y="0" type="move" name="bottom"/>
    </contour>
    <contour>
      <point x="134" y="580" type="line"/>
      <point x="107" y="411"/>
      <point x="68" y="208"/>
      <point x="11" y="32" type="curve"/>
      <point x="29" y="2"/>
      <point x="84" y="-8"/>
      <point x="135" y="7" type="curve"/>
      <point x="154" y="130"/>
      <point x="167" y="227"/>
      <point x="183" y="323" type="curve"/>
      <point x="163" y="361" type="line"/>
      <point x="191" y="400" type="line"/>
      <point x="226" y="619"/>
      <point x="242" y="735"/>
      <point x="238" y="816" type="curve"/>
      <point x="196" y="823"/>
      <point x="156" y="821"/>
      <point x="115" y="781" type="curve"/>
    </contour>
    <contour>
      <point x="411" y="0" type="curve"/>
      <point x="464" y="22"/>
      <point x="490" y="65"/>
      <point x="468" y="96" type="curve"/>
      <point x="317" y="150"/>
      <point x="228" y="237"/>
      <point x="180" y="341" type="curve"/>
      <point x="163" y="282" type="line"/>
      <point x="258" y="364"/>
      <point x="373" y="414"/>
      <point x="480" y="449" type="curve"/>
      <point x="507" y="495"/>
      <point x="484" y="541"/>
      <point x="443" y="547" type="curve"/>
      <point x="318" y="481"/>
      <point x="236" y="417"/>
      <point x="128" y="315" type="curve"/>
      <point x="177" y="194"/>
      <point x="290" y="65"/>
    </contour>
  </outline>
</glyph>
<glyph name="l" format="1">
  <advance width="272"/>
  <unicode hex="006C"/>
  <outline>
    <contour>
      <point x="203" y="853" type="move" name="top"/>
    </contour>
    <contour>
      <point x="129" y="0" type="move" name="bottom"/>
    </contour>
    <contour>
      <point x="146" y="540" type="line"/>
      <point x="119" y="359"/>
      <point x="89" y="223"/>
      <point x="36" y="36" type="curve"/>
      <point x="55" y="2"/>
      <point x="123" y="-8"/>
      <point x="168" y="7" type="curve"/>
      <point x="191" y="211"/>
      <point x="208" y="384"/>
      <point x="228" y="583" type="curve"/>
      <point x="289" y="811" type="line"/>
      <point x="248" y="831"/>
      <point x="207" y="822"/>
      <point x="153" y="790" type="curve"/>
    </contour>
  </outline>
</glyph>
<glyph name="m" format="1">
  <advance width="816"/>
  <unicode hex="006D"/>
  <outline>
    <contour>
      <point x="443" y="7" type="curve"/>
      <point x="444" y="148"/>
      <point x="453" y="254"/>
      <point x="477" y="337" type="curve"/>
      <point x="533" y="399"/>
      <point x="579" y="435"/>
      <point x="631" y="457" type="curve"/>
      <point x="651" y="447"/>
      <point x="666" y="432"/>
      <point x="672" y="402" type="curve"/>
      <point x="648" y="283"/>
      <point x="624" y="165"/>
      <point x="606" y="32" type="curve"/>
      <point x="635" y="3"/>
      <point x="685" y="-8"/>
      <point x="731" y="7" type="curve"/>
      <point x="733" y="129"/>
      <point x="740" y="243"/>
      <point x="747" y="313" type="curve"/>
      <point x="785" y="416" type="line"/>
      <point x="777" y="471"/>
      <point x="729" y="532"/>
      <point x="638" y="545" type="curve"/>
      <point x="576" y="511"/>
      <point x="523" y="464"/>
      <point x="472" y="406" type="curve"/>
      <point x="462" y="412" type="line"/>
      <point x="495" y="464" type="line"/>
      <point x="470" y="503"/>
      <point x="427" y="537"/>
      <point x="361" y="545" type="curve"/>
      <point x="277" y="499"/>
      <point x="230" y="441"/>
      <point x="186" y="386" type="curve"/>
      <point x="176" y="396" type="line"/>
      <point x="205" y="445" type="line"/>
      <point x="215" y="504"/>
      <point x="216" y="526"/>
      <point x="210" y="546" type="curve"/>
      <point x="165" y="555"/>
      <point x="126" y="548"/>
      <point x="87" y="512" type="curve"/>
      <point x="111" y="365" type="line"/>
      <point x="89" y="263"/>
      <point x="57" y="145"/>
      <point x="21" y="31" type="curve"/>
      <point x="40" y="2"/>
      <point x="94" y="-8"/>
      <point x="144" y="7" type="curve"/>
      <point x="162" y="107"/>
      <point x="176" y="204"/>
      <point x="189" y="309" type="curve"/>
      <point x="247" y="380"/>
      <point x="291" y="430"/>
      <point x="349" y="461" type="curve"/>
      <point x="372" y="451"/>
      <point x="389" y="437"/>
      <point x="402" y="407" type="curve"/>
      <point x="368" y="284"/>
      <point x="347" y="174"/>
      <point x="323" y="30" type="curve"/>
      <point x="339" y="7"/>
      <point x="384" y="-10"/>
    </contour>
  </outline>
</glyph>
<glyph name="n" format="1">
  <advance width="553"/>
  <unicode hex="006E"/>
  <outline>
    <contour>
      <point x="317" y="587" type="move" name="top"/>
    </contour>
    <contour>
      <point x="275" y="0" type="move" name="bottom"/>
    </contour>
    <contour>
      <point x="468" y="7" type="curve"/>
      <point x="470" y="129"/>
      <point x="478" y="244"/>
      <point x="484" y="313" type="curve"/>
      <point x="523" y="416" type="line"/>
      <point x="510" y="469"/>
      <point x="464" y="537"/>
      <point x="375" y="545" type="curve"/>
      <point x="281" y="500"/>
      <point x="204" y="422"/>
      <point x="146" y="336" type="curve"/>
      <point x="178" y="297" type="line"/>
      <point x="243" y="374"/>
      <point x="305" y="427"/>
      <point x="368" y="457" type="curve"/>
      <point x="388" y="447"/>
      <point x="404" y="432"/>
      <point x="409" y="402" type="curve"/>
      <point x="384" y="280"/>
      <point x="361" y="164"/>
      <point x="343" y="32" type="curve"/>
      <point x="372" y="3"/>
      <point x="422" y="-8"/>
    </contour>
    <contour>
      <point x="111" y="365" type="line"/>
      <point x="89" y="263"/>
      <point x="57" y="145"/>
      <point x="21" y="31" type="curve"/>
      <point x="40" y="2"/>
      <point x="94" y="-8"/>
      <point x="144" y="7" type="curve"/>
      <point x="165" y="130"/>
      <point x="182" y="245"/>
      <point x="196" y="377" type="curve"/>
      <point x="176" y="396" type="line"/>
      <point x="205" y="445" type="line"/>
      <point x="215" y="504"/>
      <point x="216" y="526"/>
      <point x="210" y="548" type="curve"/>
      <point x="166" y="555"/>
      <point x="127" y="548"/>
      <point x="87" y="512" type="curve"/>
    </contour>
  </outline>
</glyph>
<glyph name="o" format="1">
  <advance width="520"/>
  <unicode hex="006F"/>
  <outline>
    <contour>
      <point x="313" y="587" type="move" name="top"/>
    </contour>
    <contour>
      <point x="28" y="234" type="curve" smooth="yes"/>
      <point x="28" y="364"/>
      <point x="177" y="557"/>
      <point x="308" y="557" type="curve" smooth="yes"/>
      <point x="385" y="557"/>
      <point x="489" y="394"/>
      <point x="491" y="299" type="curve" smooth="yes"/>
      <point x="494" y="171"/>
      <point x="329" y="0"/>
      <point x="208" y="0" type="curve"/>
      <point x="136" y="0"/>
      <point x="28" y="106"/>
    </contour>
    <contour>
      <point x="295" y="492" type="curve"/>
      <point x="193" y="429"/>
      <point x="144" y="344"/>
      <point x="127" y="246" type="curve"/>
      <point x="130" y="165"/>
      <point x="158" y="107"/>
      <point x="212" y="60" type="curve"/>
      <point x="322" y="111"/>
      <point x="376" y="182"/>
      <point x="398" y="288" type="curve"/>
      <point x="388" y="361"/>
      <point x="352" y="438"/>
    </contour>
  </outline>
</glyph>
<glyph name="p" format="1">
  <advance width="543"/>
  <unicode hex="0070"/>
  <outline>
    <contour>
      <point x="99" y="86" type="line"/>
      <point x="123" y="55"/>
      <point x="176" y="15"/>
      <point x="251" y="0" type="curve"/>
      <point x="400" y="76"/>
      <point x="498" y="166"/>
      <point x="533" y="307" type="curve"/>
      <point x="517" y="429"/>
      <point x="468" y="513"/>
      <point x="325" y="545" type="curve"/>
      <point x="264" y="488"/>
      <point x="205" y="418"/>
      <point x="145" y="336" type="curve"/>
      <point x="177" y="297" type="line"/>
      <point x="230" y="367"/>
      <point x="280" y="418"/>
      <point x="327" y="459" type="curve"/>
      <point x="389" y="434"/>
      <point x="424" y="379"/>
      <point x="430" y="311" type="curve"/>
      <point x="401" y="199"/>
      <point x="339" y="129"/>
      <point x="245" y="70" type="curve"/>
      <point x="201" y="81"/>
      <point x="161" y="105"/>
      <point x="139" y="132" type="curve"/>
    </contour>
    <contour>
      <point x="-21" y="-243" type="curve"/>
      <point x="1" y="-272"/>
      <point x="52" y="-281"/>
      <point x="103" y="-267" type="curve"/>
      <point x="143" y="-89"/>
      <point x="167" y="173"/>
      <point x="194" y="377" type="curve"/>
      <point x="174" y="396" type="line"/>
      <point x="203" y="445" type="line"/>
      <point x="213" y="504"/>
      <point x="214" y="526"/>
      <point x="208" y="548" type="curve"/>
      <point x="163" y="555"/>
      <point x="124" y="548"/>
      <point x="85" y="512" type="curve"/>
      <point x="111" y="359" type="line"/>
      <point x="82" y="168"/>
      <point x="42" y="-25"/>
    </contour>
  </outline>
</glyph>
<glyph name="q" format="1">
  <advance width="543"/>
  <unicode hex="0071"/>
  <outline>
    <contour>
      <point x="377" y="-148" type="line"/>
      <point x="414" y="21"/>
      <point x="435" y="159"/>
      <point x="475" y="358" type="curve"/>
      <point x="553" y="511" type="line"/>
      <point x="533" y="544"/>
      <point x="497" y="553"/>
      <point x="430" y="547" type="curve"/>
      <point x="420" y="526"/>
      <point x="415" y="493"/>
      <point x="413" y="444" type="curve"/>
      <point x="368" y="227" type="line"/>
      <point x="346" y="98"/>
      <point x="291" y="-97"/>
      <point x="261" y="-205" type="curve"/>
      <point x="261" y="-236"/>
      <point x="290" y="-265"/>
      <point x="363" y="-277" type="curve"/>
      <point x="421" y="-206"/>
      <point x="490" y="-130"/>
      <point x="532" y="-72" type="curve"/>
      <point x="530" y="-50"/>
      <point x="520" y="-41"/>
      <point x="501" y="-43" type="curve"/>
      <point x="470" y="-72"/>
      <point x="414" y="-126"/>
      <point x="383" y="-154" type="curve"/>
    </contour>
    <contour>
      <point x="378" y="255" type="line"/>
      <point x="323" y="205"/>
      <point x="261" y="147"/>
      <point x="199" y="90" type="curve"/>
      <point x="156" y="113"/>
      <point x="142" y="147"/>
      <point x="142" y="193" type="curve" smooth="yes"/>
      <point x="142" y="317"/>
      <point x="207" y="434"/>
      <point x="317" y="480" type="curve"/>
      <point x="359" y="453"/>
      <point x="377" y="422"/>
      <point x="401" y="375" type="curve"/>
      <point x="438" y="402" type="line"/>
      <point x="413" y="460"/>
      <point x="378" y="535"/>
      <point x="318" y="545" type="curve" smooth="yes"/>
      <point x="164" y="542"/>
      <point x="28" y="353"/>
      <point x="30" y="188" type="curve" smooth="yes"/>
      <point x="31" y="85"/>
      <point x="94" y="15"/>
      <point x="219" y="13" type="curve"/>
      <point x="281" y="84"/>
      <point x="361" y="165"/>
      <point x="403" y="220" type="curve"/>
    </contour>
  </outline>
</glyph>
<glyph name="r" format="1">
  <advance width="432"/>
  <unicode hex="0072"/>
  <outline>
    <contour>
      <point x="252" y="587" type="move" name="top"/>
    </contour>
    <contour>
      <point x="120" y="0" type="move" name="bottom"/>
    </contour>
    <contour>
      <point x="439" y="406" type="curve"/>
      <point x="438" y="480"/>
      <point x="393" y="534"/>
      <point x="330" y="545" type="curve"/>
      <point x="272" y="482"/>
      <point x="204" y="404"/>
      <point x="150" y="338" type="curve"/>
      <point x="182" y="305" type="line"/>
      <point x="237" y="371"/>
      <point x="267" y="404"/>
      <point x="306" y="447" type="curve"/>
      <point x="318" y="439"/>
      <point x="326" y="416"/>
      <point x="325" y="388" type="curve"/>
      <point x="361" y="368"/>
      <point x="400" y="374"/>
    </contour>
    <contour>
      <point x="115" y="365" type="line"/>
      <point x="94" y="263"/>
      <point x="61" y="145"/>
      <point x="25" y="31" type="curve"/>
      <point x="44" y="2"/>
      <point x="98" y="-8"/>
      <point x="148" y="7" type="curve"/>
      <point x="170" y="130"/>
      <point x="186" y="245"/>
      <point x="201" y="377" type="curve"/>
      <point x="180" y="396" type="line"/>
      <point x="209" y="445" type="line"/>
      <point x="219" y="505"/>
      <point x="220" y="527"/>
      <point x="214" y="548" type="curve"/>
      <point x="169" y="555"/>
      <point x="129" y="547"/>
      <point x="91" y="512" type="curve"/>
    </contour>
  </outline>
</glyph>
<glyph name="s" format="1">
  <advance width="492"/>
  <unicode hex="0073"/>
  <outline>
    <contour>
      <point x="300" y="587" type="move" name="top"/>
    </contour>
    <contour>
      <point x="231" y="0" type="move" name="bottom"/>
    </contour>
    <contour>
      <point x="439" y="177" type="curve"/>
      <point x="408" y="298"/>
      <point x="168" y="347"/>
      <point x="168" y="399" type="curve" smooth="yes"/>
      <point x="168" y="431"/>
      <point x="234" y="487"/>
      <point x="300" y="506" type="curve"/>
      <point x="331" y="468"/>
      <point x="344" y="436"/>
      <point x="348" y="390" type="curve"/>
      <point x="412" y="379"/>
      <point x="444" y="398"/>
      <point x="448" y="427" type="curve"/>
      <point x="427" y="502"/>
      <point x="379" y="539"/>
      <point x="312" y="560" type="curve"/>
      <point x="199" y="552"/>
      <point x="91" y="482"/>
      <point x="66" y="379" type="curve"/>
      <point x="98" y="268"/>
      <point x="335" y="221"/>
      <point x="335" y="167" type="curve" smooth="yes"/>
      <point x="335" y="125"/>
      <point x="285" y="71"/>
      <point x="193" y="52" type="curve"/>
      <point x="148" y="91"/>
      <point x="129" y="131"/>
      <point x="117" y="194" type="curve"/>
      <point x="71" y="206"/>
      <point x="44" y="185"/>
      <point x="19" y="141" type="curve"/>
      <point x="35" y="83"/>
      <point x="104" y="19"/>
      <point x="185" y="0" type="curve"/>
      <point x="321" y="5"/>
      <point x="414" y="70"/>
    </contour>
  </outline>
</glyph>
<glyph name="t" format="1">
  <advance width="422"/>
  <unicode hex="0074"/>
  <outline>
    <contour>
      <point x="202" y="0" type="move" name="bottom"/>
    </contour>
    <contour>
      <point x="201" y="531" type="line"/>
      <point x="51" y="532" type="line"/>
      <point x="30" y="503"/>
      <point x="29" y="476"/>
      <point x="50" y="451" type="curve"/>
      <point x="250" y="488" type="line"/>
      <point x="424" y="494" type="line"/>
      <point x="446" y="529"/>
      <point x="445" y="560"/>
      <point x="425" y="574" type="curve"/>
    </contour>
    <contour>
      <point x="204" y="46" type="line"/>
      <point x="224" y="229"/>
      <point x="243" y="371"/>
      <point x="256" y="521" type="curve"/>
      <point x="310" y="695" type="line"/>
      <point x="276" y="723"/>
      <point x="234" y="718"/>
      <point x="179" y="684" type="curve"/>
      <point x="185" y="511" type="line"/>
      <point x="154" y="346"/>
      <point x="129" y="245"/>
      <point x="83" y="67" type="curve"/>
      <point x="91" y="38"/>
      <point x="114" y="10"/>
      <point x="180" y="0" type="curve"/>
      <point x="253" y="16"/>
      <point x="336" y="57"/>
      <point x="384" y="98" type="curve"/>
      <point x="387" y="130"/>
      <point x="382" y="148"/>
      <point x="344" y="147" type="curve"/>
      <point x="294" y="110"/>
      <point x="239" y="86"/>
      <point x="166" y="67" type="curve"/>
    </contour>
  </outline>
</glyph>
<glyph name="u" format="1">
  <advance width="552"/>
  <unicode hex="0075"/>
  <outline>
    <contour>
      <point x="321" y="587" type="move" name="top"/>
    </contour>
    <contour>
      <point x="427" y="0" type="move" name="ogonek"/>
    </contour>
    <contour>
      <point x="423" y="547" type="curve"/>
      <point x="400" y="461"/>
      <point x="380" y="370"/>
      <point x="357" y="248" type="curve"/>
      <point x="345" y="175" type="line"/>
      <point x="369" y="155" type="line"/>
      <point x="321" y="32" type="line"/>
      <point x="352" y="3"/>
      <point x="403" y="-8"/>
      <point x="448" y="7" type="curve"/>
      <point x="450" y="137"/>
      <point x="457" y="256"/>
      <point x="469" y="358" type="curve"/>
      <point x="548" y="511" type="line"/>
      <point x="528" y="543"/>
      <point x="493" y="551"/>
    </contour>
    <contour>
      <point x="89" y="546" type="curve"/>
      <point x="92" y="443"/>
      <point x="85" y="338"/>
      <point x="83" y="277" type="curve"/>
      <point x="27" y="108" type="line"/>
      <point x="41" y="62"/>
      <point x="84" y="16"/>
      <point x="211" y="0" type="curve"/>
      <point x="284" y="75"/>
      <point x="348" y="147"/>
      <point x="390" y="212" type="curve"/>
      <point x="359" y="249" type="line"/>
      <point x="311" y="180"/>
      <point x="259" y="130"/>
      <point x="207" y="83" type="curve"/>
      <point x="163" y="96"/>
      <point x="145" y="111"/>
      <point x="137" y="131" type="curve"/>
      <point x="184" y="314"/>
      <point x="208" y="427"/>
      <point x="216" y="511" type="curve"/>
      <point x="181" y="549"/>
      <point x="139" y="556"/>
    </contour>
  </outline>
</glyph>
<glyph name="v" format="1">
  <advance width="486"/>
  <unicode hex="0076"/>
  <outline>
    <contour>
      <point x="373" y="517" type="curve"/>
      <point x="403" y="403" type="line"/>
      <point x="374" y="277"/>
      <point x="297" y="164"/>
      <point x="228" y="81" type="curve"/>
      <point x="219" y="87" type="line"/>
      <point x="235" y="279"/>
      <point x="213" y="448"/>
      <point x="143" y="545" type="curve"/>
      <point x="87" y="548"/>
      <point x="43" y="525"/>
      <point x="27" y="476" type="curve"/>
      <point x="111" y="373" type="line"/>
      <point x="138" y="280"/>
      <point x="134" y="204"/>
      <point x="112" y="59" type="curve"/>
      <point x="132" y="16"/>
      <point x="195" y="-3"/>
      <point x="252" y="1" type="curve"/>
      <point x="392" y="154"/>
      <point x="472" y="336"/>
      <point x="503" y="525" type="curve"/>
      <point x="472" y="558"/>
      <point x="425" y="553"/>
    </contour>
  </outline>
</glyph>
<glyph name="w" format="1">
  <advance width="746"/>
  <unicode hex="0077"/>
  <outline>
    <contour>
      <point x="496" y="85" type="line"/>
      <point x="519" y="269"/>
      <point x="506" y="394"/>
      <point x="440" y="540" type="curve"/>
      <point x="384" y="548"/>
      <point x="343" y="527"/>
      <point x="323" y="483" type="curve"/>
      <point x="386" y="390" type="line"/>
      <point x="343" y="277"/>
      <point x="295" y="182"/>
      <point x="218" y="84" type="curve"/>
      <point x="209" y="86" type="line"/>
      <point x="228" y="269"/>
      <point x="214" y="436"/>
      <point x="143" y="545" type="curve"/>
      <point x="84" y="548"/>
      <point x="43" y="522"/>
      <point x="27" y="476" type="curve"/>
      <point x="112" y="373" type="line"/>
      <point x="129" y="272"/>
      <point x="125" y="198"/>
      <point x="102" y="59" type="curve"/>
      <point x="119" y="19"/>
      <point x="180" y="-4"/>
      <point x="238" y="1" type="curve"/>
      <point x="329" y="119"/>
      <point x="380" y="205"/>
      <point x="413" y="296" type="curve"/>
      <point x="420" y="293" type="line"/>
      <point x="424" y="214"/>
      <point x="418" y="154"/>
      <point x="398" y="61" type="curve"/>
      <point x="413" y="18"/>
      <point x="475" y="-5"/>
      <point x="533" y="1" type="curve"/>
      <point x="675" y="167"/>
      <point x="745" y="353"/>
      <point x="765" y="532" type="curve"/>
      <point x="734" y="564"/>
      <point x="686" y="558"/>
      <point x="635" y="521" type="curve"/>
      <point x="668" y="407" type="line"/>
      <point x="635" y="266"/>
      <point x="572" y="159"/>
      <point x="504" y="80" type="curve"/>
    </contour>
  </outline>
</glyph>
<glyph name="x" format="1">
  <advance width="547"/>
  <unicode hex="0078"/>
  <outline>
    <contour>
      <point x="291" y="296" type="curve"/>
      <point x="281" y="402"/>
      <point x="244" y="484"/>
      <point x="163" y="545" type="curve"/>
      <point x="110" y="530"/>
      <point x="75" y="490"/>
      <point x="82" y="433" type="curve"/>
      <point x="155" y="403"/>
      <point x="209" y="355"/>
      <point x="258" y="262" type="curve"/>
      <point x="268" y="142"/>
      <point x="315" y="62"/>
      <point x="392" y="0" type="curve"/>
      <point x="455" y="17"/>
      <point x="486" y="67"/>
      <point x="467" y="111" type="curve"/>
      <point x="387" y="150"/>
      <point x="328" y="211"/>
    </contour>
    <contour>
      <point x="444" y="545" type="curve"/>
      <point x="264" y="291" type="line"/>
      <point x="187" y="215"/>
      <point x="104" y="146"/>
      <point x="11" y="84" type="curve"/>
      <point x="8" y="44"/>
      <point x="30" y="9"/>
      <point x="96" y="0" type="curve"/>
      <point x="288" y="256" type="line"/>
      <point x="370" y="340"/>
      <point x="438" y="410"/>
      <point x="531" y="469" type="curve"/>
      <point x="523" y="520"/>
      <point x="499" y="548"/>
    </contour>
  </outline>
</glyph>
<glyph name="y" format="1">
  <advance width="517"/>
  <unicode hex="0079"/>
  <outline>
    <contour>
      <point x="325" y="587" type="move" name="top"/>
    </contour>
    <contour>
      <point x="84" y="546" type="curve"/>
      <point x="89" y="487"/>
      <point x="88" y="371"/>
      <point x="82" y="300" type="curve"/>
      <point x="33" y="160" type="line"/>
      <point x="47" y="104"/>
      <point x="102" y="61"/>
      <point x="231" y="42" type="curve"/>
      <point x="300" y="105"/>
      <point x="335" y="138"/>
      <point x="387" y="212" type="curve"/>
      <point x="355" y="249" type="line"/>
      <point x="318" y="194"/>
      <point x="274" y="158"/>
      <point x="224" y="119" type="curve"/>
      <point x="171" y="136"/>
      <point x="154" y="152"/>
      <point x="141" y="182" type="curve"/>
      <point x="181" y="328"/>
      <point x="196" y="385"/>
      <point x="213" y="511" type="curve"/>
      <point x="176" y="549"/>
      <point x="132" y="556"/>
    </contour>
    <contour>
      <point x="316" y="68" type="line"/>
      <point x="298" y="-39"/>
      <point x="289" y="-95"/>
      <point x="261" y="-194" type="curve"/>
      <point x="253" y="-203"/>
      <point x="233" y="-207"/>
      <point x="215" y="-205" type="curve"/>
      <point x="163" y="-162"/>
      <point x="137" y="-110"/>
      <point x="129" y="-46" type="curve"/>
      <point x="95" y="-25"/>
      <point x="50" y="-43"/>
      <point x="19" y="-89" type="curve"/>
      <point x="30" y="-154"/>
      <point x="86" y="-232"/>
      <point x="184" y="-280" type="curve"/>
      <point x="260" y="-283"/>
      <point x="333" y="-263"/>
      <point x="367" y="-218" type="curve"/>
      <point x="387" y="-72"/>
      <point x="424" y="190"/>
      <point x="454" y="341" type="curve"/>
      <point x="543" y="511" type="line"/>
      <point x="522" y="543"/>
      <point x="488" y="553"/>
      <point x="419" y="547" type="curve"/>
      <point x="398" y="485"/>
      <point x="380" y="395"/>
      <point x="355" y="248" type="curve"/>
      <point x="339" y="160" type="line"/>
      <point x="357" y="144" type="line"/>
    </contour>
  </outline>
</glyph>
<glyph name="z" format="1">
  <advance width="545"/>
  <unicode hex="007A"/>
  <outline>
    <contour>
      <point x="313" y="587" type="move" name="top"/>
    </contour>
    <contour>
      <point x="167" y="367" type="curve"/>
      <point x="170" y="401"/>
      <point x="180" y="437"/>
      <point x="201" y="467" type="curve"/>
      <point x="262" y="453"/>
      <point x="318" y="443"/>
      <point x="390" y="443" type="curve"/>
      <point x="395" y="434" type="line"/>
      <point x="276" y="253"/>
      <point x="19" y="162"/>
      <point x="18" y="62" type="curve" smooth="yes"/>
      <point x="17" y="41"/>
      <point x="21" y="20"/>
      <point x="34" y="0" type="curve"/>
      <point x="88" y="-4"/>
      <point x="113" y="3"/>
      <point x="127" y="22" type="curve"/>
      <point x="119" y="45" type="line"/>
      <point x="123" y="49" type="line"/>
      <point x="186" y="47"/>
      <point x="299" y="37"/>
      <point x="382" y="0" type="curve"/>
      <point x="441" y="30"/>
      <point x="478" y="76"/>
      <point x="493" y="125" type="curve"/>
      <point x="487" y="164"/>
      <point x="455" y="178"/>
      <point x="395" y="164" type="curve"/>
      <point x="390" y="137"/>
      <point x="384" y="116"/>
      <point x="368" y="86" type="curve"/>
      <point x="289" y="98"/>
      <point x="209" y="96"/>
      <point x="146" y="100" type="curve"/>
      <point x="143" y="109" type="line"/>
      <point x="272" y="201"/>
      <point x="515" y="381"/>
      <point x="531" y="498" type="curve"/>
      <point x="518" y="533"/>
      <point x="493" y="545"/>
      <point x="433" y="545" type="curve"/>
      <point x="414" y="496" type="line"/>
      <point x="328" y="500"/>
      <point x="254" y="521"/>
      <point x="176" y="545" type="curve"/>
      <point x="109" y="520"/>
      <point x="79" y="456"/>
      <point x="66" y="401" type="curve"/>
      <point x="79" y="369"/>
      <point x="109" y="356"/>
    </contour>
  </outline>
</glyph>
<glyph name="braceleft" format="1">
  <advance width="651"/>
  <unicode hex="007B"/>
  <outline>
    <contour>
      <point x="533" y="751" type="line"/>
      <point x="560" y="761"/>
      <point x="575" y="780"/>
      <point x="576" y="807" type="curve"/>
      <point x="529" y="844"/>
      <point x="472" y="877"/>
      <point x="414" y="877" type="curve" smooth="yes"/>
      <point x="365" y="877"/>
      <point x="308" y="849"/>
      <point x="275" y="809" type="curve"/>
      <point x="375" y="646"/>
      <point x="274" y="477"/>
      <point x="157" y="477" type="curve"/>
      <point x="132" y="393" type="line"/>
      <point x="186" y="369"/>
      <point x="234" y="306"/>
      <point x="232" y="233" type="curve" smooth="yes"/>
      <point x="229" y="149"/>
      <point x="189" y="76"/>
      <point x="112" y="25" type="curve"/>
      <point x="132" y="-40"/>
      <point x="182" y="-86"/>
      <point x="243" y="-103" type="curve"/>
      <point x="307" y="-99"/>
      <point x="362" y="-83"/>
      <point x="408" y="-67" type="curve"/>
      <point x="413" y="-47"/>
      <point x="401" y="-23"/>
      <point x="384" y="-11" type="curve"/>
      <point x="248" y="-38" type="line"/>
      <point x="221" y="-2" type="line"/>
      <point x="290" y="59"/>
      <point x="343" y="136"/>
      <point x="345" y="223" type="curve" smooth="yes"/>
      <point x="346" y="300"/>
      <point x="308" y="360"/>
      <point x="235" y="406" type="curve"/>
      <point x="238" y="421" type="line"/>
      <point x="323" y="424"/>
      <point x="390" y="481"/>
      <point x="413" y="565" type="curve" smooth="yes"/>
      <point x="432" y="628"/>
      <point x="424" y="711"/>
      <point x="384" y="796" type="curve"/>
      <point x="423" y="819" type="line"/>
    </contour>
  </outline>
</glyph>
<glyph name="bar" format="1">
  <advance width="251"/>
  <unicode hex="007C"/>
  <outline>
    <contour>
      <point x="117" y="524" type="line"/>
      <point x="88" y="331"/>
      <point x="33" y="24"/>
      <point x="-15" y="-155" type="curve"/>
      <point x="3" y="-189"/>
      <point x="66" y="-199"/>
      <point x="112" y="-185" type="curve"/>
      <point x="129" y="-24"/>
      <point x="180" y="324"/>
      <point x="190" y="423" type="curve"/>
      <point x="317" y="974" type="line"/>
      <point x="302" y="981"/>
      <point x="287" y="985"/>
      <point x="269" y="985" type="curve" smooth="yes"/>
      <point x="243" y="985"/>
      <point x="216" y="976"/>
      <point x="182" y="955" type="curve"/>
    </contour>
  </outline>
</glyph>
<glyph name="braceright" format="1">
  <advance width="651"/>
  <unicode hex="007D"/>
  <outline>
    <contour>
      <point x="443" y="548" type="curve" smooth="yes"/>
      <point x="446" y="631"/>
      <point x="486" y="704"/>
      <point x="564" y="755" type="curve"/>
      <point x="543" y="821"/>
      <point x="489" y="880"/>
      <point x="423" y="883" type="curve" smooth="yes"/>
      <point x="369" y="881"/>
      <point x="310" y="866"/>
      <point x="267" y="847" type="curve"/>
      <point x="263" y="826"/>
      <point x="274" y="803"/>
      <point x="291" y="791" type="curve"/>
      <point x="427" y="818" type="line"/>
      <point x="455" y="782" type="line"/>
      <point x="385" y="722"/>
      <point x="332" y="644"/>
      <point x="331" y="557" type="curve" smooth="yes"/>
      <point x="329" y="480"/>
      <point x="367" y="421"/>
      <point x="441" y="374" type="curve"/>
      <point x="437" y="359" type="line"/>
      <point x="353" y="356"/>
      <point x="286" y="299"/>
      <point x="262" y="215" type="curve" smooth="yes"/>
      <point x="243" y="152"/>
      <point x="251" y="69"/>
      <point x="291" y="-16" type="curve"/>
      <point x="252" y="-39" type="line"/>
      <point x="142" y="28" type="line"/>
      <point x="115" y="20"/>
      <point x="100" y="0"/>
      <point x="99" y="-27" type="curve"/>
      <point x="149" y="-61"/>
      <point x="200" y="-87"/>
      <point x="261" y="-101" type="curve"/>
      <point x="319" y="-96"/>
      <point x="369" y="-72"/>
      <point x="400" y="-29" type="curve"/>
      <point x="300" y="134"/>
      <point x="402" y="303"/>
      <point x="518" y="303" type="curve"/>
      <point x="543" y="387" type="line"/>
      <point x="489" y="411"/>
      <point x="441" y="474"/>
    </contour>
  </outline>
</glyph>
<glyph name="asciitilde" format="1">
  <advance width="649"/>
  <unicode hex="007E"/>
  <outline>
    <contour>
      <point x="198" y="420" type="curve"/>
      <point x="136" y="396"/>
      <point x="88" y="354"/>
      <point x="56" y="315" type="curve"/>
      <point x="54" y="293"/>
      <point x="91" y="276"/>
      <point x="131" y="279" type="curve"/>
      <point x="200" y="353" type="line"/>
      <point x="207" y="356" type="line"/>
      <point x="261" y="313"/>
      <point x="321" y="290"/>
      <point x="433" y="274" type="curve"/>
      <point x="505" y="301"/>
      <point x="551" y="331"/>
      <point x="587" y="379" type="curve"/>
      <point x="586" y="403"/>
      <point x="555" y="419"/>
      <point x="515" y="412" type="curve"/>
      <point x="435" y="340" type="line"/>
      <point x="428" y="341" type="line"/>
      <point x="359" y="384"/>
      <point x="321" y="405"/>
    </contour>
  </outline>
</glyph>
<glyph name="cent" format="1">
  <advance width="517"/>
  <unicode hex="00A2"/>
  <outline>
    <contour>
      <point x="391" y="637" type="curve"/>
      <point x="330" y="487" type="line"/>
      <point x="224" y="-129" type="line"/>
      <point x="192" y="-138"/>
      <point x="165" y="-123"/>
      <point x="149" y="-92" type="curve"/>
      <point x="214" y="72" type="line"/>
      <point x="319" y="667" type="line"/>
      <point x="353" y="678"/>
      <point x="377" y="667"/>
    </contour>
    <contour>
      <point x="373" y="361" type="curve"/>
      <point x="368" y="425"/>
      <point x="349" y="453"/>
      <point x="316" y="482" type="curve"/>
      <point x="294" y="478" type="line"/>
      <point x="207" y="427"/>
      <point x="152" y="333"/>
      <point x="149" y="264" type="curve" smooth="yes"/>
      <point x="144" y="175"/>
      <point x="165" y="113"/>
      <point x="252" y="71" type="curve"/>
      <point x="314" y="89"/>
      <point x="387" y="125"/>
      <point x="426" y="162" type="curve"/>
      <point x="460" y="163"/>
      <point x="469" y="144"/>
      <point x="463" y="111" type="curve"/>
      <point x="420" y="65"/>
      <point x="317" y="12"/>
      <point x="237" y="0" type="curve"/>
      <point x="86" y="32"/>
      <point x="33" y="136"/>
      <point x="37" y="243" type="curve" smooth="yes"/>
      <point x="39" y="288"/>
      <point x="53" y="326"/>
      <point x="73" y="363" type="curve"/>
      <point x="127" y="439"/>
      <point x="217" y="523"/>
      <point x="330" y="547" type="curve"/>
      <point x="417" y="533"/>
      <point x="470" y="467"/>
      <point x="483" y="394" type="curve"/>
      <point x="458" y="360"/>
      <point x="413" y="349"/>
    </contour>
  </outline>
</glyph>
<glyph name="sterling" format="1">
  <advance width="661"/>
  <unicode hex="00A3"/>
  <outline>
    <contour>
      <point x="519" y="129" type="curve"/>
      <point x="458" y="75" type="line"/>
      <point x="363" y="75"/>
      <point x="270" y="86"/>
      <point x="182" y="106" type="curve"/>
      <point x="221" y="78" type="line"/>
      <point x="280" y="196"/>
      <point x="364" y="438"/>
      <point x="334" y="654" type="curve"/>
      <point x="358" y="675"/>
      <point x="398" y="688"/>
      <point x="425" y="694" type="curve"/>
      <point x="461" y="661"/>
      <point x="476" y="635"/>
      <point x="477" y="574" type="curve"/>
      <point x="521" y="561"/>
      <point x="568" y="572"/>
      <point x="591" y="604" type="curve"/>
      <point x="581" y="674"/>
      <point x="532" y="740"/>
      <point x="435" y="759" type="curve"/>
      <point x="351" y="748"/>
      <point x="278" y="705"/>
      <point x="233" y="653" type="curve"/>
      <point x="267" y="509" type="line"/>
      <point x="245" y="345"/>
      <point x="198" y="224"/>
      <point x="139" y="107" type="curve"/>
      <point x="176" y="112" type="line"/>
      <point x="91" y="139" type="line"/>
      <point x="39" y="98"/>
      <point x="36" y="46"/>
      <point x="113" y="0" type="curve"/>
      <point x="157" y="3"/>
      <point x="195" y="21"/>
      <point x="210" y="68" type="curve"/>
      <point x="164" y="44" type="line"/>
      <point x="297" y="14"/>
      <point x="417" y="4"/>
      <point x="537" y="0" type="curve"/>
      <point x="580" y="63"/>
      <point x="577" y="105"/>
    </contour>
    <contour>
      <point x="503" y="399" type="curve"/>
      <point x="253" y="373" type="line"/>
      <point x="103" y="386" type="line"/>
      <point x="86" y="357"/>
      <point x="83" y="338"/>
      <point x="96" y="323" type="curve"/>
      <point x="492" y="333" type="line"/>
      <point x="514" y="365"/>
      <point x="519" y="389"/>
    </contour>
  </outline>
</glyph>
<glyph name="currency" format="1">
  <advance width="689"/>
  <unicode hex="00A4"/>
  <outline>
    <contour>
      <point x="260" y="194" type="line"/>
      <point x="124" y="43" type="line"/>
      <point x="58" y="49"/>
      <point x="44" y="82"/>
      <point x="59" y="119" type="curve"/>
      <point x="227" y="226" type="line"/>
    </contour>
    <contour>
      <point x="634" y="130" type="line"/>
      <point x="650" y="93"/>
      <point x="635" y="59"/>
      <point x="568" y="54" type="curve"/>
      <point x="433" y="205" type="line"/>
      <point x="465" y="237" type="line"/>
    </contour>
    <contour>
      <point x="468" y="532" type="line"/>
      <point x="604" y="682" type="line"/>
      <point x="670" y="677"/>
      <point x="685" y="644"/>
      <point x="670" y="606" type="curve"/>
      <point x="500" y="500" type="line"/>
    </contour>
    <contour>
      <point x="88" y="601" type="line"/>
      <point x="75" y="638"/>
      <point x="92" y="671"/>
      <point x="158" y="673" type="curve"/>
      <point x="283" y="513" type="line"/>
      <point x="250" y="483" type="line"/>
    </contour>
    <contour>
      <point x="140" y="329" type="curve" smooth="yes"/>
      <point x="140" y="451"/>
      <point x="289" y="632"/>
      <point x="420" y="632" type="curve" smooth="yes"/>
      <point x="498" y="632"/>
      <point x="602" y="479"/>
      <point x="604" y="390" type="curve" smooth="yes"/>
      <point x="605" y="269"/>
      <point x="440" y="109"/>
      <point x="321" y="109" type="curve"/>
      <point x="248" y="109"/>
      <point x="140" y="209"/>
    </contour>
    <contour>
      <point x="408" y="570" type="curve"/>
      <point x="305" y="512"/>
      <point x="256" y="431"/>
      <point x="239" y="340" type="curve"/>
      <point x="242" y="264"/>
      <point x="270" y="211"/>
      <point x="325" y="166" type="curve"/>
      <point x="434" y="215"/>
      <point x="488" y="280"/>
      <point x="509" y="379" type="curve"/>
      <point x="501" y="448"/>
      <point x="463" y="519"/>
    </contour>
  </outline>
</glyph>
<glyph name="yen" format="1">
  <advance width="610"/>
  <unicode hex="00A5"/>
  <outline>
    <contour>
      <point x="279" y="199" type="line"/>
      <point x="109" y="199" type="line"/>
      <point x="88" y="174"/>
      <point x="87" y="140"/>
      <point x="106" y="119" type="curve"/>
      <point x="288" y="151" type="line"/>
    </contour>
    <contour>
      <point x="284" y="353" type="line"/>
      <point x="112" y="356" type="line"/>
      <point x="91" y="332"/>
      <point x="90" y="297"/>
      <point x="109" y="276" type="curve"/>
      <point x="304" y="307" type="line"/>
    </contour>
    <contour>
      <point x="374" y="316" type="line"/>
      <point x="571" y="318" type="line"/>
      <point x="596" y="352"/>
      <point x="594" y="386"/>
      <point x="572" y="398" type="curve"/>
      <point x="390" y="364" type="line"/>
    </contour>
    <contour>
      <point x="352" y="155" type="line"/>
      <point x="567" y="164" type="line"/>
      <point x="592" y="197"/>
      <point x="588" y="234"/>
      <point x="568" y="244" type="curve"/>
      <point x="354" y="209" type="line"/>
    </contour>
    <contour>
      <point x="110" y="698" type="curve"/>
      <point x="170" y="574"/>
      <point x="232" y="445"/>
      <point x="288" y="300" type="curve"/>
      <point x="275" y="229"/>
      <point x="254" y="113"/>
      <point x="223" y="27" type="curve"/>
      <point x="255" y="-2"/>
      <point x="323" y="-11"/>
      <point x="353" y="7" type="curve"/>
      <point x="360" y="122"/>
      <point x="371" y="248"/>
      <point x="393" y="330" type="curve"/>
      <point x="461" y="413"/>
      <point x="529" y="495"/>
      <point x="590" y="573" type="curve" smooth="yes"/>
      <point x="625" y="617"/>
      <point x="639" y="659"/>
      <point x="640" y="714" type="curve"/>
      <point x="606" y="744"/>
      <point x="560" y="754"/>
      <point x="484" y="720" type="curve"/>
      <point x="522" y="583" type="line"/>
      <point x="361" y="372" type="line"/>
      <point x="341" y="327" type="line"/>
      <point x="337" y="327" type="line"/>
      <point x="259" y="552" type="line"/>
      <point x="231" y="733" type="line"/>
      <point x="194" y="753"/>
      <point x="140" y="736"/>
    </contour>
  </outline>
</glyph>
<glyph name="brokenbar" format="1">
  <advance width="259"/>
  <unicode hex="00A6"/>
  <outline>
    <contour>
      <point x="166" y="751" type="line"/>
      <point x="151" y="663"/>
      <point x="132" y="605"/>
      <point x="103" y="493" type="curve"/>
      <point x="127" y="474"/>
      <point x="188" y="465"/>
      <point x="232" y="480" type="curve"/>
      <point x="238" y="562"/>
      <point x="250" y="661"/>
      <point x="254" y="708" type="curve"/>
      <point x="328" y="969" type="line"/>
      <point x="313" y="979"/>
      <point x="294" y="985"/>
      <point x="272" y="985" type="curve" smooth="yes"/>
      <point x="248" y="985"/>
      <point x="223" y="980"/>
      <point x="192" y="968" type="curve"/>
    </contour>
    <contour>
      <point x="42" y="92" type="line"/>
      <point x="26" y="3"/>
      <point x="7" y="-59"/>
      <point x="-22" y="-169" type="curve"/>
      <point x="1" y="-192"/>
      <point x="64" y="-210"/>
      <point x="108" y="-185" type="curve"/>
      <point x="114" y="-102"/>
      <point x="126" y="2"/>
      <point x="129" y="48" type="curve"/>
      <point x="199" y="302" type="line"/>
      <point x="185" y="312"/>
      <point x="167" y="318"/>
      <point x="147" y="318" type="curve" smooth="yes"/>
      <point x="123" y="318"/>
      <point x="96" y="315"/>
      <point x="68" y="303" type="curve"/>
    </contour>
  </outline>
</glyph>
<glyph name="section" format="1">
  <advance width="597"/>
  <unicode hex="00A7"/>
  <outline>
    <contour>
      <point x="388" y="748" type="curve"/>
      <point x="279" y="738"/>
      <point x="161" y="688"/>
      <point x="95" y="569" type="curve"/>
      <point x="110" y="511"/>
      <point x="166" y="475"/>
      <point x="233" y="435" type="curve"/>
      <point x="171" y="408"/>
      <point x="103" y="359"/>
      <point x="59" y="278" type="curve"/>
      <point x="88" y="124"/>
      <point x="412" y="66"/>
      <point x="412" y="6" type="curve" smooth="yes"/>
      <point x="411" y="-58"/>
      <point x="342" y="-106"/>
      <point x="241" y="-131" type="curve"/>
      <point x="161" y="-78"/>
      <point x="139" y="-45"/>
      <point x="113" y="24" type="curve"/>
      <point x="66" y="40"/>
      <point x="34" y="11"/>
      <point x="8" y="-46" type="curve"/>
      <point x="38" y="-100"/>
      <point x="129" y="-165"/>
      <point x="231" y="-194" type="curve"/>
      <point x="390" y="-169"/>
      <point x="495" y="-103"/>
      <point x="526" y="23" type="curve"/>
      <point x="507" y="65"/>
      <point x="458" y="89"/>
      <point x="417" y="111" type="curve"/>
      <point x="506" y="154"/>
      <point x="552" y="218"/>
      <point x="566" y="299" type="curve"/>
      <point x="504" y="439"/>
      <point x="205" y="496"/>
      <point x="206" y="577" type="curve" smooth="yes"/>
      <point x="206" y="610"/>
      <point x="316" y="674"/>
      <point x="378" y="685" type="curve"/>
      <point x="424" y="657"/>
      <point x="453" y="623"/>
      <point x="484" y="544" type="curve"/>
      <point x="541" y="539"/>
      <point x="568" y="554"/>
      <point x="576" y="590" type="curve"/>
      <point x="538" y="668"/>
      <point x="471" y="722"/>
    </contour>
    <contour>
      <point x="468" y="281" type="curve" smooth="yes"/>
      <point x="467" y="230"/>
      <point x="436" y="190"/>
      <point x="363" y="144" type="curve"/>
      <point x="287" y="179"/>
      <point x="162" y="236"/>
      <point x="157" y="291" type="curve" smooth="yes"/>
      <point x="157" y="321"/>
      <point x="241" y="376"/>
      <point x="289" y="405" type="curve"/>
      <point x="359" y="368"/>
      <point x="455" y="330"/>
    </contour>
  </outline>
</glyph>
<glyph name="dieresis" format="1">
  <advance width="327"/>
  <unicode hex="00A8"/>
  <outline>
    <contour>
      <point x="235" y="587" type="move" name="_top"/>
    </contour>
    <contour>
      <point x="141" y="729" type="curve" smooth="yes"/>
      <point x="173" y="729"/>
      <point x="199" y="704"/>
      <point x="199" y="672" type="curve" smooth="yes"/>
      <point x="199" y="641"/>
      <point x="173" y="615"/>
      <point x="141" y="615" type="curve" smooth="yes"/>
      <point x="109" y="615"/>
      <point x="83" y="641"/>
      <point x="83" y="672" type="curve" smooth="yes"/>
      <point x="83" y="704"/>
      <point x="109" y="729"/>
    </contour>
    <contour>
      <point x="329" y="689" type="curve" smooth="yes"/>
      <point x="319" y="689"/>
      <point x="312" y="682"/>
      <point x="312" y="672" type="curve" smooth="yes"/>
      <point x="312" y="663"/>
      <point x="319" y="655"/>
      <point x="329" y="655" type="curve" smooth="yes"/>
      <point x="338" y="655"/>
      <point x="345" y="663"/>
      <point x="345" y="672" type="curve" smooth="yes"/>
      <point x="345" y="682"/>
      <point x="338" y="689"/>
    </contour>
  </outline>
</glyph>
<glyph name="copyright" format="1">
  <advance width="790"/>
  <unicode hex="00A9"/>
  <outline>
    <contour>
      <point x="42" y="374" type="curve"/>
      <point x="46" y="194"/>
      <point x="136" y="34"/>
      <point x="362" y="-5" type="curve"/>
      <point x="634" y="19"/>
      <point x="754" y="194"/>
      <point x="788" y="377" type="curve"/>
      <point x="769" y="578"/>
      <point x="719" y="724"/>
      <point x="459" y="762" type="curve"/>
      <point x="200" y="729"/>
      <point x="78" y="563"/>
    </contour>
    <contour>
      <point x="728" y="376" type="curve"/>
      <point x="699" y="221"/>
      <point x="607" y="63"/>
      <point x="367" y="38" type="curve"/>
      <point x="197" y="86"/>
      <point x="119" y="191"/>
      <point x="101" y="373" type="curve"/>
      <point x="126" y="533"/>
      <point x="243" y="685"/>
      <point x="454" y="718" type="curve"/>
      <point x="674" y="665"/>
      <point x="709" y="549"/>
    </contour>
    <contour>
      <point x="592" y="477" type="curve"/>
      <point x="583" y="541"/>
      <point x="542" y="598"/>
      <point x="465" y="611" type="curve"/>
      <point x="368" y="591"/>
      <point x="293" y="518"/>
      <point x="247" y="452" type="curve"/>
      <point x="229" y="421"/>
      <point x="218" y="388"/>
      <point x="216" y="350" type="curve" smooth="yes"/>
      <point x="212" y="260"/>
      <point x="256" y="170"/>
      <point x="386" y="143" type="curve"/>
      <point x="452" y="152"/>
      <point x="541" y="198"/>
      <point x="578" y="237" type="curve"/>
      <point x="582" y="266"/>
      <point x="575" y="282"/>
      <point x="546" y="282" type="curve"/>
      <point x="512" y="249"/>
      <point x="450" y="218"/>
      <point x="399" y="202" type="curve"/>
      <point x="324" y="239"/>
      <point x="306" y="292"/>
      <point x="310" y="368" type="curve" smooth="yes"/>
      <point x="313" y="427"/>
      <point x="360" y="509"/>
      <point x="435" y="552" type="curve"/>
      <point x="453" y="555" type="line"/>
      <point x="481" y="529"/>
      <point x="495" y="505"/>
      <point x="496" y="451" type="curve"/>
      <point x="532" y="441"/>
      <point x="571" y="450"/>
    </contour>
  </outline>
</glyph>
<glyph name="ordfeminine" format="1">
  <advance width="425"/>
  <unicode hex="00AA"/>
  <outline>
    <contour>
      <point x="326" y="526" type="line"/>
      <point x="279" y="479"/>
      <point x="240" y="442"/>
      <point x="197" y="399" type="curve"/>
      <point x="171" y="415"/>
      <point x="159" y="434"/>
      <point x="159" y="473" type="curve" smooth="yes"/>
      <point x="159" y="553"/>
      <point x="202" y="643"/>
      <point x="284" y="685" type="curve"/>
      <point x="310" y="667"/>
      <point x="329" y="642"/>
      <point x="345" y="611" type="curve"/>
      <point x="370" y="641" type="line"/>
      <point x="353" y="684"/>
      <point x="319" y="731"/>
      <point x="281" y="750" type="curve"/>
      <point x="164" y="750"/>
      <point x="63" y="599"/>
      <point x="65" y="469" type="curve" smooth="yes"/>
      <point x="66" y="392"/>
      <point x="119" y="335"/>
      <point x="211" y="332" type="curve"/>
      <point x="257" y="388"/>
      <point x="312" y="454"/>
      <point x="347" y="496" type="curve"/>
    </contour>
    <contour>
      <point x="369" y="753" type="curve"/>
      <point x="361" y="737"/>
      <point x="357" y="710"/>
      <point x="357" y="672" type="curve"/>
      <point x="341" y="621" type="line"/>
      <point x="319" y="520" type="line"/>
      <point x="299" y="449" type="line"/>
      <point x="312" y="438" type="line"/>
      <point x="278" y="349" type="line"/>
      <point x="305" y="323"/>
      <point x="361" y="315"/>
      <point x="394" y="327" type="curve"/>
      <point x="397" y="429"/>
      <point x="404" y="523"/>
      <point x="412" y="603" type="curve"/>
      <point x="474" y="724" type="line"/>
      <point x="460" y="749"/>
      <point x="424" y="757"/>
    </contour>
  </outline>
</glyph>
<glyph name="guillemotleft" format="1">
  <advance width="561"/>
  <unicode hex="00AB"/>
  <outline>
    <contour>
      <point x="264" y="231" type="curve"/>
      <point x="188" y="297" type="line"/>
      <point x="129" y="357" type="line"/>
      <point x="290" y="472" type="line"/>
      <point x="321" y="521"/>
      <point x="312" y="557"/>
      <point x="278" y="570" type="curve"/>
      <point x="173" y="480" type="line"/>
      <point x="69" y="395" type="line"/>
      <point x="63" y="381"/>
      <point x="59" y="365"/>
      <point x="59" y="351" type="curve"/>
      <point x="217" y="140" type="line"/>
      <point x="250" y="140"/>
      <point x="276" y="186"/>
    </contour>
    <contour>
      <point x="478" y="231" type="curve"/>
      <point x="397" y="297" type="line"/>
      <point x="338" y="357" type="line"/>
      <point x="517" y="472" type="line"/>
      <point x="548" y="521"/>
      <point x="540" y="557"/>
      <point x="506" y="570" type="curve"/>
      <point x="403" y="487" type="line"/>
      <point x="278" y="395" type="line"/>
      <point x="271" y="381"/>
      <point x="268" y="365"/>
      <point x="268" y="351" type="curve"/>
      <point x="432" y="140" type="line"/>
      <point x="464" y="140"/>
      <point x="490" y="186"/>
    </contour>
  </outline>
</glyph>
<glyph name="logicalnot" format="1">
  <advance width="925"/>
  <unicode hex="00AC"/>
  <outline>
    <contour>
      <point x="488" y="403" type="line"/>
      <point x="89" y="408" type="line"/>
      <point x="67" y="379"/>
      <point x="63" y="350"/>
      <point x="77" y="335" type="curve"/>
      <point x="814" y="343" type="line"/>
      <point x="776" y="179" type="line"/>
      <point x="800" y="158"/>
      <point x="829" y="153"/>
      <point x="847" y="168" type="curve"/>
      <point x="886" y="369" type="line" smooth="yes"/>
      <point x="891" y="394"/>
      <point x="889" y="412"/>
      <point x="877" y="420" type="curve"/>
    </contour>
  </outline>
</glyph>
<glyph name="registered" format="1">
  <advance width="505"/>
  <unicode hex="00AE"/>
  <outline>
    <contour>
      <point x="280" y="517" type="line"/>
      <point x="285" y="469"/>
      <point x="312" y="422"/>
      <point x="362" y="393" type="curve"/>
      <point x="385" y="399"/>
      <point x="398" y="417"/>
      <point x="389" y="431" type="curve"/>
      <point x="336" y="450"/>
      <point x="315" y="471"/>
      <point x="298" y="521" type="curve"/>
    </contour>
    <contour>
      <point x="342" y="514" type="curve"/>
      <point x="386" y="537"/>
      <point x="404" y="559"/>
      <point x="404" y="596" type="curve"/>
      <point x="405" y="631"/>
      <point x="370" y="665"/>
      <point x="303" y="665" type="curve"/>
      <point x="276" y="665"/>
      <point x="256" y="662"/>
      <point x="236" y="658" type="curve"/>
      <point x="230" y="653"/>
      <point x="229" y="642"/>
      <point x="236" y="633" type="curve"/>
      <point x="256" y="632" type="line"/>
      <point x="249" y="566" type="line"/>
      <point x="240" y="516"/>
      <point x="231" y="466"/>
      <point x="213" y="406" type="curve"/>
      <point x="222" y="394"/>
      <point x="247" y="390"/>
      <point x="260" y="397" type="curve"/>
      <point x="269" y="459"/>
      <point x="273" y="501"/>
      <point x="277" y="548" type="curve"/>
      <point x="300" y="649" type="line"/>
      <point x="279" y="635" type="line"/>
      <point x="338" y="645"/>
      <point x="361" y="622"/>
      <point x="361" y="594" type="curve"/>
      <point x="361" y="569"/>
      <point x="352" y="555"/>
      <point x="331" y="539" type="curve"/>
      <point x="308" y="532"/>
      <point x="291" y="529"/>
      <point x="264" y="529" type="curve"/>
      <point x="267" y="508" type="line"/>
      <point x="299" y="509"/>
      <point x="313" y="510"/>
    </contour>
    <contour>
      <point x="87" y="524" type="curve"/>
      <point x="89" y="420"/>
      <point x="141" y="328"/>
      <point x="270" y="306" type="curve"/>
      <point x="427" y="320"/>
      <point x="495" y="421"/>
      <point x="515" y="526" type="curve"/>
      <point x="504" y="641"/>
      <point x="475" y="724"/>
      <point x="326" y="746" type="curve"/>
      <point x="177" y="726"/>
      <point x="107" y="631"/>
    </contour>
    <contour>
      <point x="481" y="525" type="curve"/>
      <point x="465" y="436"/>
      <point x="412" y="346"/>
      <point x="273" y="332" type="curve"/>
      <point x="177" y="359"/>
      <point x="131" y="419"/>
      <point x="120" y="523" type="curve"/>
      <point x="135" y="614"/>
      <point x="203" y="701"/>
      <point x="323" y="720" type="curve"/>
      <point x="450" y="690"/>
      <point x="469" y="624"/>
    </contour>
  </outline>
</glyph>
<glyph name="macron" format="1">
  <advance width="357"/>
  <unicode hex="00AF"/>
  <outline>
    <contour>
      <point x="251" y="587" type="move" name="_top"/>
    </contour>
    <contour>
      <point x="406" y="688" type="curve"/>
      <point x="256" y="672" type="line"/>
      <point x="95" y="677" type="line"/>
      <point x="74" y="649"/>
      <point x="70" y="629"/>
      <point x="84" y="614" type="curve"/>
      <point x="390" y="622" type="line"/>
      <point x="418" y="653"/>
      <point x="422" y="679"/>
    </contour>
  </outline>
</glyph>
<glyph name="degree" format="1">
  <advance width="440"/>
  <unicode hex="00B0"/>
  <outline>
    <contour>
      <point x="309" y="762" type="curve" smooth="yes"/>
      <point x="213" y="762"/>
      <point x="103" y="651"/>
      <point x="104" y="566" type="curve" smooth="yes"/>
      <point x="104" y="494"/>
      <point x="184" y="430"/>
      <point x="238" y="430" type="curve"/>
      <point x="329" y="430"/>
      <point x="450" y="532"/>
      <point x="448" y="609" type="curve" smooth="yes"/>
      <point x="446" y="666"/>
      <point x="368" y="762"/>
    </contour>
    <contour>
      <point x="296" y="719" type="curve"/>
      <point x="326" y="687"/>
      <point x="347" y="644"/>
      <point x="352" y="602" type="curve"/>
      <point x="340" y="541"/>
      <point x="311" y="501"/>
      <point x="249" y="470" type="curve"/>
      <point x="221" y="499"/>
      <point x="205" y="531"/>
      <point x="202" y="577" type="curve"/>
      <point x="211" y="633"/>
      <point x="239" y="683"/>
    </contour>
  </outline>
</glyph>
<glyph name="plusminus" format="1">
  <advance width="696"/>
  <unicode hex="00B1"/>
  <outline>
    <contour>
      <point x="595" y="207" type="curve"/>
      <point x="339" y="193" type="line"/>
      <point x="80" y="198" type="line"/>
      <point x="58" y="170"/>
      <point x="54" y="140"/>
      <point x="68" y="126" type="curve"/>
      <point x="579" y="130" type="line"/>
      <point x="606" y="162"/>
      <point x="610" y="196"/>
    </contour>
    <contour>
      <point x="414" y="470" type="line"/>
      <point x="439" y="598" type="line"/>
      <point x="414" y="632"/>
      <point x="381" y="643"/>
      <point x="368" y="629" type="curve"/>
      <point x="347" y="469" type="line"/>
      <point x="124" y="474" type="line"/>
      <point x="103" y="446"/>
      <point x="98" y="418"/>
      <point x="112" y="402" type="curve"/>
      <point x="334" y="404" type="line"/>
      <point x="301" y="268" type="line"/>
      <point x="325" y="242"/>
      <point x="352" y="231"/>
      <point x="370" y="242" type="curve"/>
      <point x="401" y="404" type="line"/>
      <point x="623" y="406" type="line"/>
      <point x="651" y="437"/>
      <point x="655" y="471"/>
      <point x="640" y="482" type="curve"/>
    </contour>
  </outline>
</glyph>
<glyph name="twosuperior" format="1">
  <advance width="301"/>
  <unicode hex="00B2"/>
  <outline>
    <contour>
      <point x="244" y="478" type="line"/>
      <point x="295" y="521"/>
      <point x="323" y="557"/>
      <point x="323" y="602" type="curve" smooth="yes"/>
      <point x="323" y="666"/>
      <point x="268" y="751"/>
      <point x="212" y="751" type="curve" smooth="yes"/>
      <point x="163" y="751"/>
      <point x="113" y="712"/>
      <point x="87" y="660" type="curve"/>
      <point x="99" y="637"/>
      <point x="129" y="602"/>
      <point x="148" y="587" type="curve"/>
      <point x="157" y="588"/>
      <point x="171" y="594"/>
      <point x="176" y="604" type="curve"/>
      <point x="161" y="642" type="line"/>
      <point x="179" y="664"/>
      <point x="200" y="677"/>
      <point x="222" y="677" type="curve" smooth="yes"/>
      <point x="245" y="677"/>
      <point x="258" y="664"/>
      <point x="266" y="628" type="curve"/>
      <point x="248" y="592"/>
      <point x="224" y="564"/>
      <point x="189" y="533" type="curve" smooth="yes"/>
      <point x="37" y="397" type="line"/>
      <point x="38" y="368"/>
      <point x="59" y="335"/>
      <point x="79" y="323" type="curve"/>
      <point x="123" y="334" type="line"/>
      <point x="274" y="319" type="line"/>
      <point x="296" y="339"/>
      <point x="303" y="384"/>
      <point x="294" y="400" type="curve"/>
      <point x="137" y="384" type="line"/>
      <point x="133" y="388" type="line"/>
    </contour>
  </outline>
</glyph>
<glyph name="threesuperior" format="1">
  <advance width="311"/>
  <unicode hex="00B3"/>
  <outline>
    <contour>
      <point x="276" y="571" type="line"/>
      <point x="316" y="590"/>
      <point x="331" y="606"/>
      <point x="331" y="630" type="curve" smooth="yes"/>
      <point x="332" y="691"/>
      <point x="265" y="751"/>
      <point x="207" y="751" type="curve" smooth="yes"/>
      <point x="152" y="751"/>
      <point x="103" y="712"/>
      <point x="76" y="660" type="curve"/>
      <point x="88" y="638"/>
      <point x="115" y="607"/>
      <point x="133" y="594" type="curve"/>
      <point x="144" y="597"/>
      <point x="157" y="602"/>
      <point x="164" y="613" type="curve"/>
      <point x="146" y="648" type="line"/>
      <point x="161" y="665"/>
      <point x="180" y="677"/>
      <point x="205" y="677" type="curve" smooth="yes"/>
      <point x="229" y="677"/>
      <point x="250" y="660"/>
      <point x="257" y="623" type="curve"/>
      <point x="164" y="554" type="line"/>
      <point x="158" y="519" type="line"/>
      <point x="214" y="500"/>
      <point x="240" y="485"/>
      <point x="253" y="459" type="curve"/>
      <point x="209" y="419"/>
      <point x="153" y="398"/>
      <point x="52" y="375" type="curve"/>
      <point x="48" y="360"/>
      <point x="56" y="335"/>
      <point x="70" y="323" type="curve"/>
      <point x="205" y="337"/>
      <point x="325" y="387"/>
      <point x="330" y="451" type="curve" smooth="yes"/>
      <point x="337" y="510"/>
      <point x="263" y="538"/>
      <point x="198" y="556" type="curve"/>
      <point x="185" y="527" type="line"/>
    </contour>
  </outline>
</glyph>
<glyph name="acute" format="1">
  <advance width="200"/>
  <unicode hex="00B4"/>
  <outline>
    <contour>
      <point x="92" y="587" type="move" name="_top"/>
    </contour>
    <contour>
      <point x="173" y="791" type="curve"/>
      <point x="143" y="707" type="line"/>
      <point x="78" y="613" type="line"/>
      <point x="79" y="598"/>
      <point x="97" y="589"/>
      <point x="122" y="589" type="curve"/>
      <point x="292" y="750" type="line"/>
      <point x="284" y="782"/>
      <point x="229" y="803"/>
    </contour>
  </outline>
</glyph>
<glyph name="paragraph" format="1">
  <advance width="617"/>
  <unicode hex="00B6"/>
  <outline>
    <contour>
      <point x="529" y="732" type="line"/>
      <point x="274" y="734"/>
      <point x="94" y="691"/>
      <point x="77" y="496" type="curve" smooth="yes"/>
      <point x="68" y="385"/>
      <point x="164" y="334"/>
      <point x="322" y="324" type="curve"/>
      <point x="294" y="379" type="line"/>
      <point x="270" y="257"/>
      <point x="241" y="140"/>
      <point x="210" y="22" type="curve"/>
      <point x="238" y="-3"/>
      <point x="290" y="-10"/>
      <point x="317" y="4" type="curve"/>
      <point x="351" y="264" type="line"/>
      <point x="445" y="660" type="line"/>
      <point x="467" y="665"/>
      <point x="494" y="666"/>
      <point x="517" y="665" type="curve"/>
      <point x="463" y="364" type="line"/>
      <point x="384" y="22" type="line"/>
      <point x="410" y="-3"/>
      <point x="463" y="-10"/>
      <point x="490" y="4" type="curve"/>
      <point x="501" y="97"/>
      <point x="512" y="186"/>
      <point x="522" y="264" type="curve"/>
      <point x="592" y="615" type="line"/>
      <point x="668" y="806" type="line"/>
      <point x="636" y="833"/>
      <point x="592" y="836"/>
      <point x="548" y="826" type="curve"/>
    </contour>
  </outline>
</glyph>
<glyph name="cedilla" format="1">
  <advance width="334"/>
  <unicode hex="00B8"/>
  <outline>
    <contour>
      <point x="141" y="0" type="move" name="_bottom"/>
    </contour>
    <contour>
      <point x="89" y="22" type="line"/>
      <point x="31" y="-99" type="line"/>
      <point x="37" y="-122"/>
      <point x="61" y="-130"/>
      <point x="82" y="-130" type="curve"/>
      <point x="101" y="-115"/>
      <point x="119" y="-105"/>
      <point x="144" y="-102" type="curve"/>
      <point x="151" y="-111"/>
      <point x="157" y="-127"/>
      <point x="153" y="-145" type="curve" smooth="yes"/>
      <point x="146" y="-175"/>
      <point x="120" y="-193"/>
      <point x="78" y="-193" type="curve" smooth="yes"/>
      <point x="31" y="-193"/>
      <point x="-6" y="-173"/>
      <point x="-43" y="-135" type="curve"/>
      <point x="-56" y="-136"/>
      <point x="-66" y="-154"/>
      <point x="-67" y="-176" type="curve"/>
      <point x="-32" y="-223"/>
      <point x="33" y="-252"/>
      <point x="98" y="-253" type="curve" smooth="yes"/>
      <point x="175" y="-253"/>
      <point x="234" y="-213"/>
      <point x="247" y="-146" type="curve" smooth="yes"/>
      <point x="257" y="-87"/>
      <point x="225" y="-49"/>
      <point x="179" y="-49" type="curve" smooth="yes"/>
      <point x="152" y="-49"/>
      <point x="128" y="-59"/>
      <point x="107" y="-78" type="curve"/>
      <point x="159" y="22" type="line"/>
    </contour>
  </outline>
</glyph>
<glyph name="onesuperior" format="1">
  <advance width="220"/>
  <unicode hex="00B9"/>
  <outline>
    <contour>
      <point x="230" y="624" type="line"/>
      <point x="265" y="717" type="line"/>
      <point x="244" y="742"/>
      <point x="169" y="750"/>
      <point x="128" y="741" type="curve"/>
      <point x="72" y="634" type="line"/>
      <point x="77" y="624"/>
      <point x="109" y="620"/>
      <point x="123" y="625" type="curve"/>
      <point x="162" y="677" type="line"/>
      <point x="172" y="672" type="line"/>
      <point x="152" y="626" type="line"/>
      <point x="86" y="335" type="line"/>
      <point x="110" y="320"/>
      <point x="151" y="317"/>
      <point x="179" y="321" type="curve"/>
      <point x="187" y="422" type="line"/>
    </contour>
  </outline>
</glyph>
<glyph name="ordmasculine" format="1">
  <advance width="434"/>
  <unicode hex="00BA"/>
  <outline>
    <contour>
      <point x="73" y="500" type="curve" smooth="yes"/>
      <point x="73" y="607"/>
      <point x="181" y="749"/>
      <point x="297" y="749" type="curve" smooth="yes"/>
      <point x="366" y="749"/>
      <point x="449" y="627"/>
      <point x="451" y="553" type="curve" smooth="yes"/>
      <point x="452" y="455"/>
      <point x="324" y="324"/>
      <point x="223" y="324" type="curve"/>
      <point x="158" y="324"/>
      <point x="74" y="407"/>
    </contour>
    <contour>
      <point x="286" y="699" type="curve"/>
      <point x="219" y="651"/>
      <point x="180" y="587"/>
      <point x="170" y="512" type="curve"/>
      <point x="172" y="452"/>
      <point x="197" y="410"/>
      <point x="229" y="376" type="curve"/>
      <point x="303" y="413"/>
      <point x="344" y="465"/>
      <point x="358" y="545" type="curve"/>
      <point x="350" y="600"/>
      <point x="321" y="657"/>
    </contour>
  </outline>
</glyph>
<glyph name="guillemotright" format="1">
  <advance width="561"/>
  <unicode hex="00BB"/>
  <outline>
    <contour>
      <point x="326" y="479" type="curve"/>
      <point x="402" y="413" type="line"/>
      <point x="461" y="354" type="line"/>
      <point x="301" y="237" type="line"/>
      <point x="270" y="189"/>
      <point x="278" y="153"/>
      <point x="312" y="140" type="curve"/>
      <point x="418" y="230" type="line"/>
      <point x="521" y="315" type="line"/>
      <point x="528" y="329"/>
      <point x="531" y="344"/>
      <point x="530" y="359" type="curve"/>
      <point x="373" y="570" type="line"/>
      <point x="341" y="570"/>
      <point x="315" y="524"/>
    </contour>
    <contour>
      <point x="111" y="479" type="curve"/>
      <point x="192" y="413" type="line"/>
      <point x="252" y="354" type="line"/>
      <point x="73" y="237" type="line"/>
      <point x="43" y="189"/>
      <point x="50" y="153"/>
      <point x="84" y="140" type="curve"/>
      <point x="187" y="223" type="line"/>
      <point x="312" y="315" type="line"/>
      <point x="319" y="329"/>
      <point x="322" y="344"/>
      <point x="322" y="359" type="curve"/>
      <point x="158" y="570" type="line"/>
      <point x="126" y="570"/>
      <point x="101" y="524"/>
    </contour>
  </outline>
</glyph>
<glyph name="onequarter" format="1">
  <advance width="731"/>
  <unicode hex="00BC"/>
  <outline>
    <contour>
      <point x="661" y="382" type="line"/>
      <point x="642" y="405"/>
      <point x="615" y="414"/>
      <point x="556" y="414" type="curve" smooth="yes"/>
      <point x="547" y="414"/>
      <point x="537" y="413"/>
      <point x="525" y="411" type="curve"/>
      <point x="325" y="137" type="line"/>
      <point x="326" y="120"/>
      <point x="352" y="107"/>
      <point x="365" y="99" type="curve"/>
      <point x="494" y="103" type="line"/>
      <point x="649" y="98" type="line"/>
      <point x="661" y="109"/>
      <point x="671" y="144"/>
      <point x="665" y="159" type="curve"/>
      <point x="459" y="151" type="line"/>
      <point x="420" y="151" type="line"/>
      <point x="509" y="276" type="line"/>
      <point x="573" y="367" type="line"/>
      <point x="581" y="365" type="line"/>
      <point x="541" y="222" type="line"/>
      <point x="491" y="6" type="line"/>
      <point x="511" y="-9"/>
      <point x="553" y="-13"/>
      <point x="576" y="-7" type="curve"/>
      <point x="584" y="97" type="line"/>
      <point x="626" y="293" type="line"/>
    </contour>
    <component base="onesuperior" xOffset="32"/>
    <component base="fraction" xOffset="64"/>
  </outline>
</glyph>
<glyph name="onehalf" format="1">
  <advance width="724"/>
  <unicode hex="00BD"/>
  <outline>
    <contour>
      <point x="595" y="131" type="line"/>
      <point x="646" y="175"/>
      <point x="674" y="211"/>
      <point x="674" y="256" type="curve" smooth="yes"/>
      <point x="674" y="320"/>
      <point x="619" y="404"/>
      <point x="563" y="404" type="curve" smooth="yes"/>
      <point x="514" y="404"/>
      <point x="465" y="366"/>
      <point x="439" y="313" type="curve"/>
      <point x="451" y="291"/>
      <point x="480" y="256"/>
      <point x="499" y="241" type="curve"/>
      <point x="508" y="242"/>
      <point x="522" y="247"/>
      <point x="527" y="258" type="curve"/>
      <point x="512" y="295" type="line"/>
      <point x="530" y="317"/>
      <point x="551" y="330"/>
      <point x="573" y="330" type="curve" smooth="yes"/>
      <point x="596" y="330"/>
      <point x="609" y="317"/>
      <point x="618" y="282" type="curve"/>
      <point x="599" y="246"/>
      <point x="576" y="218"/>
      <point x="540" y="186" type="curve" smooth="yes"/>
      <point x="389" y="51" type="line"/>
      <point x="389" y="22"/>
      <point x="410" y="-11"/>
      <point x="430" y="-23" type="curve"/>
      <point x="474" y="-13" type="line"/>
      <point x="625" y="-27" type="line"/>
      <point x="647" y="-7"/>
      <point x="654" y="37"/>
      <point x="645" y="53" type="curve"/>
      <point x="488" y="38" type="line"/>
      <point x="484" y="41" type="line"/>
    </contour>
    <component base="onesuperior" xOffset="33"/>
    <component base="fraction" xOffset="64"/>
  </outline>
</glyph>
<glyph name="threequarters" format="1">
  <advance width="729"/>
  <unicode hex="00BE"/>
  <outline>
    <contour>
      <point x="714" y="382" type="line"/>
      <point x="696" y="405"/>
      <point x="669" y="414"/>
      <point x="610" y="414" type="curve" smooth="yes"/>
      <point x="600" y="414"/>
      <point x="590" y="413"/>
      <point x="579" y="411" type="curve"/>
      <point x="378" y="137" type="line"/>
      <point x="379" y="120"/>
      <point x="406" y="107"/>
      <point x="418" y="99" type="curve"/>
      <point x="548" y="103" type="line"/>
      <point x="702" y="98" type="line"/>
      <point x="714" y="109"/>
      <point x="724" y="144"/>
      <point x="718" y="159" type="curve"/>
      <point x="513" y="151" type="line"/>
      <point x="473" y="151" type="line"/>
      <point x="563" y="276" type="line"/>
      <point x="627" y="367" type="line"/>
      <point x="634" y="365" type="line"/>
      <point x="593" y="222" type="line"/>
      <point x="544" y="6" type="line"/>
      <point x="564" y="-9"/>
      <point x="606" y="-13"/>
      <point x="629" y="-7" type="curve"/>
      <point x="636" y="97" type="line"/>
      <point x="678" y="293" type="line"/>
    </contour>
    <component base="threesuperior" xOffset="9"/>
    <component base="fraction" xOffset="117"/>
  </outline>
</glyph>
<glyph name="AE" format="1">
  <advance width="803"/>
  <unicode hex="00C6"/>
  <outline>
    <contour>
      <point x="642" y="736" type="curve" smooth="yes"/>
      <point x="520" y="736"/>
      <point x="406" y="728"/>
      <point x="321" y="705" type="curve"/>
      <point x="217" y="449" type="line"/>
      <point x="169" y="366" type="line"/>
      <point x="54" y="366" type="line"/>
      <point x="30" y="339"/>
      <point x="27" y="312"/>
      <point x="45" y="289" type="curve"/>
      <point x="130" y="295" type="line"/>
      <point x="-19" y="30" type="line"/>
      <point x="-4" y="2"/>
      <point x="48" y="-7"/>
      <point x="99" y="6" type="curve"/>
      <point x="235" y="301" type="line"/>
      <point x="390" y="309" type="line"/>
      <point x="334" y="53" type="line"/>
      <point x="362" y="19"/>
      <point x="381" y="0"/>
      <point x="442" y="0" type="curve" smooth="yes"/>
      <point x="522" y="0"/>
      <point x="644" y="13"/>
      <point x="726" y="29" type="curve"/>
      <point x="739" y="56"/>
      <point x="751" y="111"/>
      <point x="711" y="127" type="curve"/>
      <point x="640" y="105"/>
      <point x="524" y="80"/>
      <point x="445" y="77" type="curve"/>
      <point x="445" y="142" type="line"/>
      <point x="475" y="308" type="line"/>
      <point x="570" y="318"/>
      <point x="607" y="318"/>
      <point x="698" y="310" type="curve"/>
      <point x="721" y="341"/>
      <point x="724" y="383"/>
      <point x="706" y="401" type="curve"/>
      <point x="613" y="388"/>
      <point x="565" y="384"/>
      <point x="485" y="378" type="curve"/>
      <point x="495" y="574" type="line"/>
      <point x="524" y="655" type="line"/>
      <point x="585" y="662"/>
      <point x="637" y="666"/>
      <point x="691" y="657" type="curve"/>
      <point x="752" y="604" type="line"/>
      <point x="802" y="639"/>
      <point x="823" y="703"/>
      <point x="791" y="732" type="curve"/>
      <point x="752" y="734"/>
      <point x="698" y="736"/>
    </contour>
    <contour>
      <point x="388" y="638" type="line"/>
      <point x="398" y="641" type="line"/>
      <point x="393" y="367" type="line"/>
      <point x="262" y="362" type="line"/>
    </contour>
  </outline>
</glyph>
<glyph name="Eth" format="1">
  <advance width="662"/>
  <unicode hex="00D0"/>
  <outline>
    <contour>
      <point x="394" y="426" type="curve"/>
      <point x="174" y="398" type="line"/>
      <point x="37" y="410" type="line"/>
      <point x="15" y="393"/>
      <point x="15" y="359"/>
      <point x="47" y="334" type="curve"/>
      <point x="223" y="355" type="line"/>
      <point x="406" y="355" type="line"/>
      <point x="432" y="381"/>
      <point x="419" y="415"/>
    </contour>
    <component base="D" xOffset="7"/>
  </outline>
</glyph>
<glyph name="multiply" format="1">
  <advance width="643"/>
  <unicode hex="00D7"/>
  <outline>
    <contour>
      <point x="469" y="111" type="line"/>
      <point x="496" y="101"/>
      <point x="522" y="117"/>
      <point x="534" y="155" type="curve"/>
      <point x="340" y="354" type="line"/>
      <point x="185" y="594" type="line"/>
      <point x="153" y="595"/>
      <point x="126" y="578"/>
      <point x="126" y="542" type="curve"/>
    </contour>
    <contour>
      <point x="331" y="358" type="line"/>
      <point x="73" y="161" type="line"/>
      <point x="72" y="134"/>
      <point x="86" y="115"/>
      <point x="124" y="107" type="curve"/>
      <point x="594" y="545" type="line"/>
      <point x="598" y="583"/>
      <point x="575" y="595"/>
      <point x="540" y="596" type="curve"/>
    </contour>
  </outline>
</glyph>
<glyph name="Oslash" format="1">
  <advance width="721"/>
  <unicode hex="00D8"/>
  <outline>
    <contour>
      <point x="668" y="737" type="curve"/>
      <point x="554" y="550" type="line"/>
      <point x="4" y="80" type="line"/>
      <point x="5" y="33"/>
      <point x="35" y="13"/>
      <point x="88" y="0" type="curve"/>
      <point x="194" y="169" type="line"/>
      <point x="761" y="662" type="line"/>
      <point x="758" y="703"/>
      <point x="722" y="729"/>
    </contour>
    <contour>
      <point x="80" y="303" type="curve" smooth="yes"/>
      <point x="81" y="177"/>
      <point x="197" y="0"/>
      <point x="319" y="0" type="curve" smooth="yes"/>
      <point x="448" y="0"/>
      <point x="652" y="229"/>
      <point x="650" y="376" type="curve" smooth="yes"/>
      <point x="648" y="552"/>
      <point x="533" y="742"/>
      <point x="437" y="742" type="curve" smooth="yes"/>
      <point x="263" y="742"/>
      <point x="78" y="522"/>
    </contour>
    <contour>
      <point x="429" y="679" type="curve"/>
      <point x="506" y="597"/>
      <point x="534" y="490"/>
      <point x="549" y="363" type="curve"/>
      <point x="508" y="238"/>
      <point x="443" y="139"/>
      <point x="318" y="64" type="curve"/>
      <point x="233" y="115"/>
      <point x="189" y="220"/>
      <point x="188" y="319" type="curve" smooth="yes"/>
      <point x="188" y="465"/>
      <point x="288" y="606"/>
    </contour>
  </outline>
</glyph>
<glyph name="Thorn" format="1">
  <advance width="571"/>
  <unicode hex="00DE"/>
  <outline>
    <contour>
      <point x="170" y="540" type="line"/>
      <point x="127" y="333"/>
      <point x="101" y="189"/>
      <point x="54" y="32" type="curve"/>
      <point x="75" y="2"/>
      <point x="152" y="-9"/>
      <point x="185" y="10" type="curve"/>
      <point x="203" y="154"/>
      <point x="226" y="400"/>
      <point x="252" y="577" type="curve"/>
      <point x="311" y="811" type="line"/>
      <point x="271" y="831"/>
      <point x="230" y="822"/>
      <point x="176" y="790" type="curve"/>
    </contour>
    <contour>
      <point x="226" y="512" type="line"/>
      <point x="261" y="531"/>
      <point x="318" y="552"/>
      <point x="367" y="549" type="curve"/>
      <point x="432" y="530"/>
      <point x="472" y="483"/>
      <point x="475" y="418" type="curve" smooth="yes"/>
      <point x="476" y="365"/>
      <point x="445" y="327"/>
      <point x="397" y="283" type="curve"/>
      <point x="328" y="260"/>
      <point x="275" y="256"/>
      <point x="198" y="272" type="curve"/>
      <point x="182" y="229" type="line"/>
      <point x="255" y="203"/>
      <point x="332" y="200"/>
      <point x="435" y="220" type="curve"/>
      <point x="535" y="287"/>
      <point x="581" y="341"/>
      <point x="579" y="423" type="curve" smooth="yes"/>
      <point x="578" y="517"/>
      <point x="500" y="589"/>
      <point x="388" y="615" type="curve"/>
      <point x="327" y="614"/>
      <point x="247" y="588"/>
      <point x="201" y="556" type="curve"/>
    </contour>
  </outline>
</glyph>
<glyph name="germandbls" format="1">
  <advance width="609"/>
  <unicode hex="00DF"/>
  <outline>
    <contour>
      <point x="128" y="636" type="curve"/>
      <point x="116" y="452"/>
      <point x="79" y="275"/>
      <point x="14" y="31" type="curve"/>
      <point x="31" y="2"/>
      <point x="83" y="-8"/>
      <point x="133" y="5" type="curve"/>
      <point x="171" y="261"/>
      <point x="193" y="447"/>
      <point x="217" y="642" type="curve"/>
      <point x="284" y="760" type="line"/>
      <point x="255" y="737" type="line"/>
      <point x="390" y="758"/>
      <point x="455" y="690"/>
      <point x="455" y="618" type="curve" smooth="yes"/>
      <point x="455" y="560"/>
      <point x="427" y="509"/>
      <point x="364" y="480" type="curve"/>
      <point x="303" y="498" type="line"/>
      <point x="260" y="471"/>
      <point x="237" y="413"/>
      <point x="292" y="355" type="curve"/>
      <point x="371" y="384" type="line"/>
      <point x="443" y="365"/>
      <point x="474" y="307"/>
      <point x="474" y="248" type="curve" smooth="yes"/>
      <point x="474" y="171"/>
      <point x="418" y="93"/>
      <point x="326" y="75" type="curve"/>
      <point x="281" y="147" type="line"/>
      <point x="227" y="144"/>
      <point x="188" y="100"/>
      <point x="180" y="51" type="curve"/>
      <point x="204" y="23"/>
      <point x="240" y="3"/>
      <point x="312" y="0" type="curve"/>
      <point x="477" y="25"/>
      <point x="572" y="131"/>
      <point x="573" y="243" type="curve" smooth="yes"/>
      <point x="573" y="322"/>
      <point x="525" y="402"/>
      <point x="406" y="435" type="curve"/>
      <point x="407" y="442" type="line"/>
      <point x="506" y="480"/>
      <point x="546" y="551"/>
      <point x="547" y="627" type="curve" smooth="yes"/>
      <point x="547" y="726"/>
      <point x="446" y="823"/>
      <point x="270" y="811" type="curve"/>
      <point x="191" y="777"/>
      <point x="154" y="722"/>
    </contour>
  </outline>
</glyph>
<glyph name="ae" format="1">
  <advance width="856"/>
  <unicode hex="00E6"/>
  <outline>
    <contour>
      <point x="582" y="72" type="curve"/>
      <point x="512" y="100"/>
      <point x="483" y="146"/>
      <point x="475" y="209" type="curve"/>
      <point x="582" y="230"/>
      <point x="695" y="269"/>
      <point x="800" y="320" type="curve"/>
      <point x="817" y="428"/>
      <point x="780" y="525"/>
      <point x="657" y="553" type="curve"/>
      <point x="590" y="539"/>
      <point x="530" y="496"/>
      <point x="492" y="450" type="curve"/>
      <point x="525" y="528" type="line"/>
      <point x="511" y="551"/>
      <point x="474" y="554"/>
      <point x="436" y="547" type="curve"/>
      <point x="426" y="525"/>
      <point x="420" y="495"/>
      <point x="419" y="444" type="curve"/>
      <point x="394" y="486"/>
      <point x="361" y="526"/>
      <point x="324" y="545" type="curve"/>
      <point x="166" y="543"/>
      <point x="31" y="353"/>
      <point x="33" y="188" type="curve" smooth="yes"/>
      <point x="34" y="89"/>
      <point x="93" y="17"/>
      <point x="216" y="13" type="curve"/>
      <point x="260" y="64"/>
      <point x="307" y="115"/>
      <point x="349" y="162" type="curve"/>
      <point x="359" y="152" type="line"/>
      <point x="316" y="34" type="line"/>
      <point x="335" y="6"/>
      <point x="366" y="-8"/>
      <point x="412" y="3" type="curve"/>
      <point x="428" y="112" type="line"/>
      <point x="452" y="64"/>
      <point x="500" y="23"/>
      <point x="570" y="0" type="curve"/>
      <point x="642" y="11"/>
      <point x="756" y="66"/>
      <point x="796" y="110" type="curve"/>
      <point x="801" y="148"/>
      <point x="791" y="162"/>
      <point x="759" y="162" type="curve"/>
      <point x="718" y="123"/>
      <point x="649" y="93"/>
    </contour>
    <contour>
      <point x="638" y="486" type="line"/>
      <point x="691" y="454"/>
      <point x="705" y="412"/>
      <point x="701" y="345" type="curve"/>
      <point x="631" y="311"/>
      <point x="557" y="285"/>
      <point x="473" y="263" type="curve"/>
      <point x="475" y="346"/>
      <point x="540" y="435"/>
      <point x="622" y="482" type="curve"/>
    </contour>
    <contour>
      <point x="317" y="477" type="curve"/>
      <point x="359" y="449"/>
      <point x="381" y="422"/>
      <point x="401" y="380" type="curve"/>
      <point x="390" y="350"/>
      <point x="373" y="294"/>
      <point x="370" y="249" type="curve"/>
      <point x="315" y="199"/>
      <point x="257" y="146"/>
      <point x="197" y="90" type="curve"/>
      <point x="157" y="114"/>
      <point x="145" y="147"/>
      <point x="145" y="193" type="curve" smooth="yes"/>
      <point x="145" y="317"/>
      <point x="207" y="430"/>
    </contour>
  </outline>
</glyph>
<glyph name="eth" format="1">
  <advance width="503"/>
  <unicode hex="00F0"/>
  <outline>
    <contour>
      <point x="245" y="775" type="curve"/>
      <point x="334" y="673" type="line"/>
      <point x="403" y="505"/>
      <point x="426" y="218"/>
      <point x="227" y="66" type="curve"/>
      <point x="167" y="97"/>
      <point x="136" y="151"/>
      <point x="136" y="227" type="curve" smooth="yes"/>
      <point x="136" y="321"/>
      <point x="179" y="411"/>
      <point x="275" y="466" type="curve"/>
      <point x="330" y="436"/>
      <point x="354" y="396"/>
      <point x="384" y="341" type="curve"/>
      <point x="414" y="366" type="line"/>
      <point x="385" y="432"/>
      <point x="361" y="490"/>
      <point x="288" y="539" type="curve"/>
      <point x="129" y="495"/>
      <point x="34" y="355"/>
      <point x="34" y="228" type="curve" smooth="yes"/>
      <point x="33" y="117"/>
      <point x="102" y="20"/>
      <point x="232" y="0" type="curve"/>
      <point x="402" y="74"/>
      <point x="465" y="244"/>
      <point x="466" y="418" type="curve" smooth="yes"/>
      <point x="467" y="570"/>
      <point x="407" y="722"/>
      <point x="315" y="817" type="curve"/>
      <point x="274" y="818"/>
      <point x="255" y="809"/>
    </contour>
    <contour>
      <point x="497" y="762" type="curve"/>
      <point x="337" y="693" type="line"/>
      <point x="190" y="669" type="line"/>
      <point x="174" y="646"/>
      <point x="181" y="619"/>
      <point x="219" y="601" type="curve"/>
      <point x="392" y="663" type="line"/>
      <point x="527" y="699" type="line"/>
      <point x="543" y="730"/>
      <point x="526" y="755"/>
    </contour>
  </outline>
</glyph>
<glyph name="divide" format="1">
  <advance width="714"/>
  <unicode hex="00F7"/>
  <outline>
    <contour>
      <point x="683" y="381" type="curve"/>
      <point x="373" y="365" type="line"/>
      <point x="66" y="369" type="line"/>
      <point x="45" y="341"/>
      <point x="41" y="313"/>
      <point x="55" y="297" type="curve"/>
      <point x="667" y="305" type="line"/>
      <point x="695" y="337"/>
      <point x="699" y="371"/>
    </contour>
    <contour>
      <point x="317" y="96" type="curve"/>
      <point x="349" y="96"/>
      <point x="389" y="121"/>
      <point x="411" y="153" type="curve"/>
      <point x="406" y="188"/>
      <point x="372" y="227"/>
      <point x="346" y="227" type="curve"/>
      <point x="310" y="222"/>
      <point x="273" y="180"/>
      <point x="269" y="141" type="curve"/>
      <point x="272" y="114"/>
      <point x="293" y="96"/>
    </contour>
    <contour>
      <point x="375" y="445" type="curve"/>
      <point x="407" y="445"/>
      <point x="448" y="470"/>
      <point x="469" y="503" type="curve"/>
      <point x="464" y="537"/>
      <point x="430" y="576"/>
      <point x="404" y="576" type="curve"/>
      <point x="368" y="572"/>
      <point x="331" y="530"/>
      <point x="327" y="491" type="curve"/>
      <point x="330" y="463"/>
      <point x="351" y="445"/>
    </contour>
  </outline>
</glyph>
<glyph name="oslash" format="1">
  <advance width="595"/>
  <unicode hex="00F8"/>
  <outline>
    <contour>
      <point x="173" y="147" type="line"/>
      <point x="66" y="0" type="line"/>
      <point x="22" y="6"/>
      <point x="3" y="26"/>
      <point x="-4" y="69" type="curve"/>
      <point x="430" y="404" type="line"/>
      <point x="544" y="560" type="line"/>
      <point x="581" y="554"/>
      <point x="605" y="530"/>
      <point x="606" y="495" type="curve"/>
    </contour>
    <contour>
      <point x="76" y="234" type="curve" smooth="yes"/>
      <point x="76" y="364"/>
      <point x="225" y="557"/>
      <point x="356" y="557" type="curve" smooth="yes"/>
      <point x="433" y="557"/>
      <point x="537" y="394"/>
      <point x="539" y="299" type="curve" smooth="yes"/>
      <point x="541" y="171"/>
      <point x="376" y="0"/>
      <point x="256" y="0" type="curve"/>
      <point x="184" y="0"/>
      <point x="76" y="106"/>
    </contour>
    <contour>
      <point x="343" y="492" type="curve"/>
      <point x="241" y="429"/>
      <point x="191" y="344"/>
      <point x="174" y="246" type="curve"/>
      <point x="178" y="165"/>
      <point x="206" y="107"/>
      <point x="260" y="60" type="curve"/>
      <point x="369" y="111"/>
      <point x="424" y="182"/>
      <point x="445" y="288" type="curve"/>
      <point x="436" y="361"/>
      <point x="399" y="438"/>
    </contour>
  </outline>
</glyph>
<glyph name="thorn" format="1">
  <advance width="545"/>
  <unicode hex="00FE"/>
  <outline>
    <contour>
      <point x="175" y="399" type="line"/>
      <point x="207" y="458" type="line"/>
      <point x="225" y="579" type="line"/>
      <point x="285" y="811" type="line"/>
      <point x="243" y="830"/>
      <point x="206" y="824"/>
      <point x="148" y="789" type="curve"/>
      <point x="136" y="540" type="line"/>
      <point x="92" y="228"/>
      <point x="54" y="39"/>
      <point x="-23" y="-243" type="curve"/>
      <point x="2" y="-272"/>
      <point x="47" y="-280"/>
      <point x="102" y="-266" type="curve"/>
      <point x="139" y="-96"/>
      <point x="166" y="180"/>
      <point x="197" y="377" type="curve" smooth="yes"/>
    </contour>
    <contour>
      <point x="131" y="0" type="line"/>
      <point x="331" y="24"/>
      <point x="483" y="138"/>
      <point x="530" y="325" type="curve"/>
      <point x="506" y="444"/>
      <point x="466" y="511"/>
      <point x="329" y="545" type="curve"/>
      <point x="269" y="488"/>
      <point x="210" y="418"/>
      <point x="150" y="336" type="curve"/>
      <point x="181" y="297" type="line"/>
      <point x="235" y="367"/>
      <point x="284" y="418"/>
      <point x="332" y="459" type="curve"/>
      <point x="390" y="434"/>
      <point x="415" y="397"/>
      <point x="427" y="329" type="curve"/>
      <point x="405" y="204"/>
      <point x="303" y="92"/>
      <point x="122" y="63" type="curve"/>
    </contour>
  </outline>
</glyph>
<glyph name="Aogonek" format="1">
  <advance width="616"/>
  <unicode hex="0104"/>
  <outline>
    <contour>
      <point x="509" y="2" type="curve"/>
      <point x="509" y="23"/>
      <point x="499" y="32"/>
      <point x="473" y="36" type="curve"/>
      <point x="406" y="16"/>
      <point x="307" y="-47"/>
      <point x="307" y="-124" type="curve" smooth="yes"/>
      <point x="307" y="-171"/>
      <point x="375" y="-213"/>
      <point x="442" y="-213" type="curve" smooth="yes"/>
      <point x="510" y="-213"/>
      <point x="560" y="-184"/>
      <point x="597" y="-145" type="curve"/>
      <point x="594" y="-122"/>
      <point x="583" y="-113"/>
      <point x="566" y="-112" type="curve"/>
      <point x="537" y="-136"/>
      <point x="499" y="-149"/>
      <point x="463" y="-149" type="curve" smooth="yes"/>
      <point x="427" y="-149"/>
      <point x="400" y="-135"/>
      <point x="387" y="-113" type="curve"/>
      <point x="401" y="-61"/>
      <point x="449" y="-12"/>
    </contour>
    <component base="A"/>
  </outline>
</glyph>
<glyph name="aogonek" format="1">
  <advance width="556"/>
  <unicode hex="0105"/>
  <outline>
    <contour>
      <point x="442" y="1" type="curve"/>
      <point x="443" y="22"/>
      <point x="432" y="40"/>
      <point x="406" y="41" type="curve"/>
      <point x="305" y="16"/>
      <point x="235" y="-59"/>
      <point x="235" y="-121" type="curve" smooth="yes"/>
      <point x="235" y="-171"/>
      <point x="283" y="-213"/>
      <point x="363" y="-213" type="curve" smooth="yes"/>
      <point x="418" y="-213"/>
      <point x="468" y="-191"/>
      <point x="505" y="-145" type="curve"/>
      <point x="502" y="-122"/>
      <point x="492" y="-113"/>
      <point x="471" y="-113" type="curve"/>
      <point x="427" y="-155"/>
      <point x="354" y="-162"/>
      <point x="305" y="-132" type="curve"/>
      <point x="318" y="-64"/>
      <point x="370" y="-19"/>
    </contour>
    <component base="a"/>
  </outline>
</glyph>
<glyph name="dcaron" format="1">
  <advance width="627"/>
  <unicode hex="010F"/>
  <outline>
    <contour>
      <point x="638" y="669" type="curve"/>
      <point x="696" y="717"/>
      <point x="749" y="793"/>
      <point x="756" y="864" type="curve"/>
      <point x="740" y="909"/>
      <point x="685" y="940"/>
      <point x="632" y="898" type="curve"/>
      <point x="654" y="774" type="line"/>
      <point x="598" y="689" type="line"/>
      <point x="606" y="675"/>
      <point x="621" y="669"/>
    </contour>
    <component base="d"/>
  </outline>
</glyph>
<glyph name="Eogonek" format="1">
  <advance width="540"/>
  <unicode hex="0118"/>
  <outline>
    <contour>
      <point x="457" y="28" type="curve"/>
      <point x="462" y="47"/>
      <point x="447" y="58"/>
      <point x="422" y="59" type="curve"/>
      <point x="335" y="30"/>
      <point x="229" y="-39"/>
      <point x="229" y="-112" type="curve" smooth="yes"/>
      <point x="229" y="-170"/>
      <point x="295" y="-213"/>
      <point x="374" y="-213" type="curve" smooth="yes"/>
      <point x="438" y="-213"/>
      <point x="489" y="-184"/>
      <point x="522" y="-145" type="curve"/>
      <point x="521" y="-123"/>
      <point x="512" y="-112"/>
      <point x="491" y="-113" type="curve"/>
      <point x="460" y="-138"/>
      <point x="422" y="-154"/>
      <point x="385" y="-154" type="curve" smooth="yes"/>
      <point x="346" y="-154"/>
      <point x="317" y="-140"/>
      <point x="302" y="-119" type="curve"/>
      <point x="310" y="-60"/>
      <point x="396" y="7"/>
    </contour>
    <component base="E"/>
  </outline>
</glyph>
<glyph name="eogonek" format="1">
  <advance width="517"/>
  <unicode hex="0119"/>
  <outline>
    <contour>
      <point x="318" y="22" type="curve"/>
      <point x="322" y="46"/>
      <point x="307" y="56"/>
      <point x="284" y="57" type="curve"/>
      <point x="172" y="22"/>
      <point x="112" y="-50"/>
      <point x="112" y="-111" type="curve" smooth="yes"/>
      <point x="112" y="-166"/>
      <point x="172" y="-213"/>
      <point x="254" y="-213" type="curve" smooth="yes"/>
      <point x="328" y="-213"/>
      <point x="382" y="-180"/>
      <point x="414" y="-141" type="curve"/>
      <point x="413" y="-118"/>
      <point x="403" y="-108"/>
      <point x="380" y="-110" type="curve"/>
      <point x="348" y="-134"/>
      <point x="308" y="-150"/>
      <point x="270" y="-150" type="curve" smooth="yes"/>
      <point x="239" y="-150"/>
      <point x="201" y="-141"/>
      <point x="184" y="-116" type="curve"/>
      <point x="198" y="-61"/>
      <point x="260" y="1"/>
    </contour>
    <component base="e"/>
  </outline>
</glyph>
<glyph name="Gcommaaccent" format="1">
  <advance width="648"/>
  <unicode hex="0122"/>
  <outline>
    <contour>
      <point x="264" y="-268" type="curve"/>
      <point x="322" y="-220"/>
      <point x="375" y="-145"/>
      <point x="382" y="-73" type="curve"/>
      <point x="366" y="-29"/>
      <point x="311" y="3"/>
      <point x="258" y="-39" type="curve"/>
      <point x="280" y="-163" type="line"/>
      <point x="224" y="-248" type="line"/>
      <point x="232" y="-263"/>
      <point x="247" y="-269"/>
    </contour>
    <component base="G"/>
  </outline>
</glyph>
<glyph name="gcommaaccent" format="1">
  <advance width="534"/>
  <unicode hex="0123"/>
  <outline>
    <contour>
      <point x="383" y="857" type="curve"/>
      <point x="324" y="789"/>
      <point x="277" y="701"/>
      <point x="292" y="612" type="curve"/>
      <point x="319" y="579"/>
      <point x="383" y="576"/>
      <point x="422" y="631" type="curve"/>
      <point x="384" y="742" type="line"/>
      <point x="432" y="841" type="line"/>
      <point x="421" y="855"/>
      <point x="402" y="860"/>
    </contour>
    <component base="g"/>
  </outline>
</glyph>
<glyph name="Iogonek" format="1">
  <advance width="253"/>
  <unicode hex="012E"/>
  <outline>
    <contour>
      <point x="145" y="3" type="curve"/>
      <point x="146" y="21"/>
      <point x="135" y="32"/>
      <point x="112" y="32" type="curve"/>
      <point x="24" y="8"/>
      <point x="-40" y="-55"/>
      <point x="-40" y="-117" type="curve" smooth="yes"/>
      <point x="-40" y="-168"/>
      <point x="9" y="-213"/>
      <point x="95" y="-213" type="curve" smooth="yes"/>
      <point x="156" y="-213"/>
      <point x="209" y="-185"/>
      <point x="244" y="-145" type="curve"/>
      <point x="243" y="-123"/>
      <point x="232" y="-114"/>
      <point x="211" y="-113" type="curve"/>
      <point x="183" y="-139"/>
      <point x="143" y="-153"/>
      <point x="106" y="-153" type="curve" smooth="yes"/>
      <point x="78" y="-153"/>
      <point x="50" y="-145"/>
      <point x="31" y="-126" type="curve"/>
      <point x="33" y="-65"/>
      <point x="95" y="-17"/>
    </contour>
    <component base="I"/>
  </outline>
</glyph>
<glyph name="iogonek" format="1">
  <advance width="255"/>
  <unicode hex="012F"/>
  <outline>
    <contour>
      <point x="157" y="4" type="curve"/>
      <point x="157" y="25"/>
      <point x="151" y="32"/>
      <point x="133" y="37" type="curve"/>
      <point x="38" y="18"/>
      <point x="-32" y="-50"/>
      <point x="-32" y="-115" type="curve" smooth="yes"/>
      <point x="-32" y="-165"/>
      <point x="15" y="-213"/>
      <point x="110" y="-213" type="curve" smooth="yes"/>
      <point x="175" y="-213"/>
      <point x="227" y="-183"/>
      <point x="257" y="-145" type="curve"/>
      <point x="254" y="-124"/>
      <point x="244" y="-114"/>
      <point x="225" y="-113" type="curve"/>
      <point x="198" y="-139"/>
      <point x="156" y="-154"/>
      <point x="116" y="-154" type="curve" smooth="yes"/>
      <point x="85" y="-154"/>
      <point x="57" y="-145"/>
      <point x="39" y="-127" type="curve"/>
      <point x="48" y="-68"/>
      <point x="95" y="-23"/>
    </contour>
    <component base="i"/>
  </outline>
</glyph>
<glyph name="dotlessi" format="1">
  <advance width="254"/>
  <unicode hex="0131"/>
  <outline>
    <contour>
      <point x="192" y="587" type="move" name="top"/>
    </contour>
    <contour>
      <point x="149" y="0" type="move" name="ogonek"/>
    </contour>
    <contour>
      <point x="112" y="359" type="line"/>
      <point x="90" y="250"/>
      <point x="65" y="141"/>
      <point x="31" y="36" type="curve"/>
      <point x="54" y="2"/>
      <point x="115" y="-8"/>
      <point x="160" y="7" type="curve"/>
      <point x="172" y="151"/>
      <point x="182" y="268"/>
      <point x="195" y="385" type="curve"/>
      <point x="235" y="526" type="line"/>
      <point x="204" y="555"/>
      <point x="162" y="548"/>
      <point x="108" y="524" type="curve"/>
    </contour>
  </outline>
</glyph>
<glyph name="Kcommaaccent" format="1">
  <advance width="622"/>
  <unicode hex="0136"/>
  <outline>
    <contour>
      <point x="220" y="-268" type="curve"/>
      <point x="278" y="-220"/>
      <point x="331" y="-145"/>
      <point x="338" y="-73" type="curve"/>
      <point x="322" y="-29"/>
      <point x="267" y="3"/>
      <point x="214" y="-39" type="curve"/>
      <point x="236" y="-163" type="line"/>
      <point x="180" y="-248" type="line"/>
      <point x="188" y="-263"/>
      <point x="203" y="-269"/>
    </contour>
    <component base="K"/>
  </outline>
</glyph>
<glyph name="kcommaaccent" format="1">
  <advance width="529"/>
  <unicode hex="0137"/>
  <outline>
    <contour>
      <point x="185" y="-268" type="curve"/>
      <point x="242" y="-220"/>
      <point x="296" y="-145"/>
      <point x="302" y="-73" type="curve"/>
      <point x="286" y="-29"/>
      <point x="231" y="3"/>
      <point x="179" y="-39" type="curve"/>
      <point x="200" y="-163" type="line"/>
      <point x="144" y="-248" type="line"/>
      <point x="152" y="-263"/>
      <point x="168" y="-269"/>
    </contour>
    <component base="k"/>
  </outline>
</glyph>
<glyph name="Lcommaaccent" format="1">
  <advance width="485"/>
  <unicode hex="013B"/>
  <outline>
    <contour>
      <point x="168" y="-268" type="curve"/>
      <point x="226" y="-220"/>
      <point x="279" y="-145"/>
      <point x="286" y="-73" type="curve"/>
      <point x="270" y="-29"/>
      <point x="215" y="3"/>
      <point x="162" y="-39" type="curve"/>
      <point x="184" y="-163" type="line"/>
      <point x="128" y="-248" type="line"/>
      <point x="135" y="-263"/>
      <point x="151" y="-269"/>
    </contour>
    <component base="L"/>
  </outline>
</glyph>
<glyph name="lcommaaccent" format="1">
  <advance width="272"/>
  <unicode hex="013C"/>
  <outline>
    <contour>
      <point x="42" y="-268" type="curve"/>
      <point x="100" y="-220"/>
      <point x="153" y="-145"/>
      <point x="160" y="-73" type="curve"/>
      <point x="144" y="-29"/>
      <point x="89" y="3"/>
      <point x="36" y="-39" type="curve"/>
      <point x="58" y="-163" type="line"/>
      <point x="2" y="-248" type="line"/>
      <point x="9" y="-263"/>
      <point x="25" y="-269"/>
    </contour>
    <component base="l"/>
  </outline>
</glyph>
<glyph name="Lcaron" format="1">
  <advance width="485"/>
  <unicode hex="013D"/>
  <outline>
    <contour>
      <point x="376" y="585" type="curve"/>
      <point x="433" y="633"/>
      <point x="487" y="708"/>
      <point x="494" y="780" type="curve"/>
      <point x="478" y="825"/>
      <point x="423" y="856"/>
      <point x="370" y="814" type="curve"/>
      <point x="392" y="690" type="line"/>
      <point x="336" y="605" type="line"/>
      <point x="343" y="591"/>
      <point x="359" y="584"/>
    </contour>
    <component base="L"/>
  </outline>
</glyph>
<glyph name="lcaron" format="1">
  <advance width="335"/>
  <unicode hex="013E"/>
  <outline>
    <contour>
      <point x="346" y="669" type="curve"/>
      <point x="404" y="717"/>
      <point x="457" y="793"/>
      <point x="464" y="864" type="curve"/>
      <point x="448" y="909"/>
      <point x="393" y="940"/>
      <point x="340" y="898" type="curve"/>
      <point x="362" y="774" type="line"/>
      <point x="306" y="689" type="line"/>
      <point x="314" y="675"/>
      <point x="329" y="669"/>
    </contour>
    <component base="l"/>
  </outline>
</glyph>
